M48
METRIC,LZ,000.000
;FILE_FORMAT=3:3
;TYPE=PLATED
;Layer: PTH_Through
;EasyEDA v6.5.50, 2025-05-10 22:03:40
;3dfc61e0309445a68604fa7064afe25b,ba9dcde3079f4f00b3cbb53a4f6625ee,10
;Gerber Generator version 0.2
;Holesize 1 = 0.310 mm
T01C0.310
;Holesize 2 = 0.889 mm
T02C0.889
;Holesize 3 = 0.900 mm
T03C0.900
;Holesize 4 = 0.915 mm
T04C0.915
;Holesize 5 = 1.000 mm
T05C1.000
;Holesize 6 = 1.016 mm
T06C1.016
;Holesize 7 = 1.101 mm
T07C1.101
%
G05
G90
T01
X093091Y-024130
X102235Y-024130
X046609Y009906
X044069Y-025273
X089535Y-011049
X093472Y-011303
X095631Y011430
X098679Y011430
T02
X072898Y026162
X075438Y026162
X077978Y026162
X080518Y026162
X083058Y026162
X085598Y026162
X088138Y026162
X090678Y026162
X100584Y024130
X098044Y024130
X095504Y024130
X110109Y024003
X107569Y024003
X105029Y024003
X118999Y024003
X116459Y024003
X113919Y024003
X041275Y-032512
X041275Y-029972
X041275Y-027432
X041275Y-024892
X134493Y023749
X131953Y023749
X129413Y023749
T03
X089662Y-026416
X097282Y-026416
T04
X094615Y018669
X125095Y018669
X042291Y018669
X044831Y018669
X042291Y021209
X044831Y021209
X042291Y023749
X044831Y023749
X042291Y026289
X044831Y026289
X118679Y003000
X118679Y000460
X118679Y-002080
X118679Y-004620
X118679Y-007160
T05
X041400Y001310
X041400Y-001230
X041400Y-003770
X041403Y-006310
T06
X057785Y018669
X060325Y018669
X062865Y018669
X065405Y018669
X067945Y018669
X070485Y018669
X073025Y018669
X075565Y018669
X078105Y018669
X080645Y018669
X084455Y018669
X086995Y018669
X089535Y018669
X092075Y018669
X097155Y018669
X099695Y018669
X102235Y018669
X107315Y018669
X109855Y018669
X112395Y018669
X114935Y018669
X117475Y018669
X120015Y018669
X122555Y018669
X125095Y018669
X135255Y018669
X132715Y018669
X135255Y016129
X135255Y013589
X132715Y016129
X132715Y013589
X132715Y011049
X135255Y011049
X135255Y008509
X132715Y008509
X132715Y005969
X135255Y005969
X132715Y003429
X135255Y003429
X132715Y000889
X135255Y000889
X132715Y-001651
X135255Y-001651
X132715Y-004191
X135255Y-004191
X132715Y-006731
X135255Y-006731
X135255Y-009271
X132715Y-009271
X132715Y-011811
X135255Y-011811
X135255Y-014351
X132715Y-014351
X132715Y-016891
X135255Y-016891
X135255Y-019431
X132715Y-019431
X132715Y-021971
X135255Y-021971
X135255Y-024511
X132715Y-024511
X130175Y-029591
X127635Y-029591
X125095Y-029591
X122555Y-029591
X120015Y-029591
X117475Y-029591
X114935Y-029591
X112395Y-029591
X107315Y-029591
X104775Y-029591
X102235Y-029591
X099695Y-029591
X097155Y-029591
X094615Y-029591
X092075Y-029591
X089535Y-029591
X084455Y-029591
X081915Y-029591
X079375Y-029591
X076835Y-029591
X074295Y-029591
X071755Y-029591
X069215Y-029591
X066675Y-029591
T07
X123063Y023876
X125603Y023876
M30
