G04 Layer: TopSolderMaskLayer*
G04 EasyEDA v6.5.50, 2025-05-10 22:03:40*
G04 3dfc61e0309445a68604fa7064afe25b,ba9dcde3079f4f00b3cbb53a4f6625ee,10*
G04 Gerber Generator version 0.2*
G04 Scale: 100 percent, Rotated: No, Reflected: No *
G04 Dimensions in millimeters *
G04 leading zeros omitted , absolute positions ,4 integer and 5 decimal *
%FSLAX45Y45*%
%MOMM*%

%AMMACRO1*4,1,8,-0.8085,-0.8382,-0.8382,-0.8084,-0.8382,0.8085,-0.8085,0.8382,0.8084,0.8382,0.8382,0.8085,0.8382,-0.8084,0.8084,-0.8382,-0.8085,-0.8382,0*%
%AMMACRO2*4,1,8,-0.7827,-0.812,-0.812,-0.7827,-0.812,0.7827,-0.7827,0.812,0.7827,0.812,0.812,0.7827,0.812,-0.7827,0.7827,-0.812,-0.7827,-0.812,0*%
%AMMACRO3*4,1,8,-0.8711,-0.8382,-0.9008,-0.8084,-0.9008,0.8085,-0.8711,0.8382,0.871,0.8382,0.9008,0.8085,0.9008,-0.8084,0.871,-0.8382,-0.8711,-0.8382,0*%
%ADD10C,1.9812*%
%ADD11C,1.7272*%
%ADD12MACRO1*%
%ADD13C,1.6764*%
%ADD14C,1.6240*%
%ADD15MACRO2*%
%ADD16MACRO3*%
%ADD17C,1.8016*%
%ADD18C,1.9812*%
%ADD19C,1.7516*%
%ADD20C,0.0100*%

%LPD*%
D10*
G01*
X5778500Y1866900D03*
G01*
X6032500Y1866900D03*
G01*
X6286500Y1866900D03*
G01*
X6540500Y1866900D03*
G01*
X6794500Y1866900D03*
G01*
X7048500Y1866900D03*
G01*
X7302500Y1866900D03*
G01*
X7556500Y1866900D03*
G01*
X7810500Y1866900D03*
G01*
X8064500Y1866900D03*
G01*
X8445500Y1866900D03*
G01*
X8699500Y1866900D03*
G01*
X8953500Y1866900D03*
G01*
X9207500Y1866900D03*
G01*
X9461500Y1866900D03*
G01*
X9715500Y1866900D03*
G01*
X9969500Y1866900D03*
G01*
X10223500Y1866900D03*
G01*
X10731500Y1866900D03*
G01*
X10985500Y1866900D03*
G01*
X11239500Y1866900D03*
G01*
X11493500Y1866900D03*
G01*
X11747500Y1866900D03*
G01*
X12001500Y1866900D03*
G01*
X12255500Y1866900D03*
G01*
X12509500Y1866900D03*
G01*
X13525500Y1866900D03*
G01*
X13271500Y1866900D03*
G01*
X13525500Y1612900D03*
G01*
X13525500Y1358900D03*
G01*
X13271500Y1612900D03*
G01*
X13271500Y1358900D03*
G01*
X13271500Y1104900D03*
G01*
X13525500Y1104900D03*
G01*
X13525500Y850900D03*
G01*
X13271500Y850900D03*
G01*
X13271500Y596900D03*
G01*
X13525500Y596900D03*
G01*
X13271500Y342900D03*
G01*
X13525500Y342900D03*
G01*
X13271500Y88900D03*
G01*
X13525500Y88900D03*
G01*
X13271500Y-165100D03*
G01*
X13525500Y-165100D03*
G01*
X13271500Y-419100D03*
G01*
X13525500Y-419100D03*
G01*
X13271500Y-673100D03*
G01*
X13525500Y-673100D03*
G01*
X13525500Y-927100D03*
G01*
X13271500Y-927100D03*
G01*
X13271500Y-1181100D03*
G01*
X13525500Y-1181100D03*
G01*
X13525500Y-1435100D03*
G01*
X13271500Y-1435100D03*
G01*
X13271500Y-1689100D03*
G01*
X13525500Y-1689100D03*
G01*
X13525500Y-1943100D03*
G01*
X13271500Y-1943100D03*
G01*
X13271500Y-2197100D03*
G01*
X13525500Y-2197100D03*
G01*
X13525500Y-2451100D03*
G01*
X13271500Y-2451100D03*
G01*
X13017500Y-2959100D03*
G01*
X12763500Y-2959100D03*
G01*
X12509500Y-2959100D03*
G01*
X12255500Y-2959100D03*
G01*
X12001500Y-2959100D03*
G01*
X11747500Y-2959100D03*
G01*
X11493500Y-2959100D03*
G01*
X11239500Y-2959100D03*
G01*
X10731500Y-2959100D03*
G01*
X10477500Y-2959100D03*
G01*
X10223500Y-2959100D03*
G01*
X9969500Y-2959100D03*
G01*
X9715500Y-2959100D03*
G01*
X9461500Y-2959100D03*
G01*
X9207500Y-2959100D03*
G01*
X8953500Y-2959100D03*
G01*
X8445500Y-2959100D03*
G01*
X8191500Y-2959100D03*
G01*
X7937500Y-2959100D03*
G01*
X7683500Y-2959100D03*
G01*
X7429500Y-2959100D03*
G01*
X7175500Y-2959100D03*
G01*
X6921500Y-2959100D03*
G01*
X6667500Y-2959100D03*
D11*
G01*
X12509500Y1866900D03*
D12*
G01*
X7289800Y2616200D03*
D13*
G01*
X7543800Y2616200D03*
G01*
X7797800Y2616200D03*
G01*
X8051800Y2616200D03*
G01*
X8305800Y2616200D03*
G01*
X8559800Y2616200D03*
G01*
X8813800Y2616200D03*
G01*
X9067800Y2616200D03*
G01*
X10058400Y2413000D03*
G01*
X9804400Y2413000D03*
D12*
G01*
X9550400Y2413000D03*
D13*
G01*
X11010900Y2400300D03*
G01*
X10756900Y2400300D03*
D12*
G01*
X10502900Y2400300D03*
D13*
G01*
X11899900Y2400300D03*
G01*
X11645900Y2400300D03*
D12*
G01*
X11391900Y2400300D03*
D14*
G01*
X4229100Y1866900D03*
G01*
X4483100Y1866900D03*
G01*
X4229100Y2120900D03*
G01*
X4483100Y2120900D03*
G01*
X4229100Y2374900D03*
G01*
X4483100Y2374900D03*
G01*
X4229100Y2628900D03*
D15*
G01*
X4483096Y2628896D03*
D11*
G01*
X11867895Y299999D03*
G01*
X11867895Y45999D03*
G01*
X11867895Y-208000D03*
G01*
X11867895Y-462000D03*
G01*
X11867895Y-716000D03*
D16*
G01*
X12306301Y2387600D03*
D17*
G01*
X12560300Y2387600D03*
D18*
G01*
X8966200Y-2641600D03*
G01*
X9728200Y-2641600D03*
D12*
G01*
X4127500Y-3251200D03*
D13*
G01*
X4127500Y-2997200D03*
G01*
X4127500Y-2743200D03*
G01*
X4127500Y-2489200D03*
G01*
X13449300Y2374900D03*
G01*
X13195300Y2374900D03*
D12*
G01*
X12941300Y2374900D03*
D19*
G01*
X4140072Y130987D03*
G01*
X4140072Y-123012D03*
G01*
X4140072Y-377012D03*
G01*
X4140327Y-631012D03*
M02*
