G04 Layer: TopLayer*
G04 EasyEDA v6.5.50, 2025-05-10 22:03:40*
G04 3dfc61e0309445a68604fa7064afe25b,ba9dcde3079f4f00b3cbb53a4f6625ee,10*
G04 Gerber Generator version 0.2*
G04 Scale: 100 percent, Rotated: No, Reflected: No *
G04 Dimensions in millimeters *
G04 leading zeros omitted , absolute positions ,4 integer and 5 decimal *
%FSLAX45Y45*%
%MOMM*%

%AMMACRO1*21,1,$1,$2,0,0,$3*%
%ADD10C,0.5000*%
%ADD11C,1.7780*%
%ADD12C,1.5240*%
%ADD13MACRO1,1.5748X1.5748X0.0000*%
%ADD14C,1.5748*%
%ADD15R,1.5748X1.5748*%
%ADD16R,1.5240X1.5240*%
%ADD17R,1.7000X1.5748*%
%ADD18C,1.7000*%
%ADD19C,1.8796*%
%ADD20C,1.6500*%
%ADD21C,0.6200*%
%ADD22C,0.0100*%

%LPD*%
D10*
X4127500Y-2997200D02*
G01*
X4648200Y-3302000D01*
X7226300Y-3302000D01*
X7683500Y-2959100D01*
X12941300Y2374900D02*
G01*
X12941300Y-700956D01*
X10998200Y-2644056D01*
X9550400Y2413000D02*
G01*
X9550400Y2277856D01*
X9707356Y2120900D01*
X11010900Y2400300D02*
G01*
X11010900Y2264488D01*
X11154488Y2120900D01*
X11899900Y2400300D02*
G01*
X11899900Y2378120D01*
X12157120Y2120900D01*
X7442200Y2120900D02*
G01*
X6794500Y2120900D01*
X6540500Y1866900D01*
X6540500Y1866900D02*
G01*
X6286500Y2120900D01*
X5270500Y2120900D01*
X4762500Y2628900D01*
X4483100Y2628900D01*
X6286500Y2120900D02*
G01*
X6794500Y2120900D01*
X8953500Y-2959100D02*
G01*
X4673600Y1320800D01*
X4254500Y1320800D01*
X3683000Y1892300D01*
X3683000Y2781300D01*
X3683000Y2755851D02*
G01*
X3683000Y2844800D01*
X3797300Y2959100D01*
X12865100Y2959100D01*
X13449300Y2374900D01*
X10223500Y-2413000D02*
G01*
X10287000Y-2413000D01*
X10426700Y-2552700D01*
X10426700Y-2565400D01*
X10502900Y-2641600D01*
X10502900Y-2933700D01*
X10477500Y-2959100D01*
X10058400Y2413000D02*
G01*
X9639300Y2832100D01*
X3937000Y2794000D01*
X3949700Y1816100D01*
X4267200Y1498600D01*
X4724400Y1498600D01*
X8636000Y-2413000D01*
X9309100Y-2413000D01*
X9347200Y-1130300D02*
G01*
X9321800Y-1104900D01*
X8953500Y-1104900D01*
X13195300Y2374900D02*
G01*
X12788900Y2781300D01*
X12242800Y2781300D01*
X12128924Y2667424D01*
X12128924Y2109635D01*
X4483100Y1866900D02*
G01*
X4597400Y1866900D01*
X5321300Y1143000D01*
X9563100Y1143000D01*
X11747500Y1866900D02*
G01*
X11023600Y1143000D01*
X9867900Y1143000D01*
X4140072Y-376999D02*
G01*
X3860800Y-863475D01*
X3860800Y-2730500D01*
X4127500Y-2997200D01*
X4140327Y-630999D02*
G01*
X4660900Y-317627D01*
X4660900Y990600D01*
X4140327Y-630999D02*
G01*
X4406900Y-1104772D01*
X4406900Y-2527300D01*
X11867895Y299999D02*
G01*
X10520400Y299999D01*
X9702800Y1117600D01*
X9702800Y1854200D01*
X9715500Y1866900D01*
X11867895Y45999D02*
G01*
X10028199Y45999D01*
X9448800Y-533400D01*
X9448800Y-2946400D01*
X9461500Y-2959100D01*
X11867895Y-716000D02*
G01*
X12725400Y-52070D01*
X12725400Y2108200D01*
X7442200Y2120900D01*
X7289800Y2273300D01*
X7289800Y2616200D01*
X7683500Y-2959100D02*
G01*
X8064500Y-3340100D01*
X10769600Y-3340100D01*
X10998200Y-3111500D01*
X11010900Y-1562100D01*
X11391900Y-1181100D01*
X11391900Y-736600D01*
X11666474Y-462026D01*
X11867895Y-462026D01*
D11*
G01*
X5778500Y1866900D03*
G01*
X6032500Y1866900D03*
G01*
X6286500Y1866900D03*
G01*
X6540500Y1866900D03*
G01*
X6794500Y1866900D03*
G01*
X7048500Y1866900D03*
G01*
X7302500Y1866900D03*
G01*
X7556500Y1866900D03*
G01*
X7810500Y1866900D03*
G01*
X8064500Y1866900D03*
G01*
X8445500Y1866900D03*
G01*
X8699500Y1866900D03*
G01*
X8953500Y1866900D03*
G01*
X9207500Y1866900D03*
G01*
X9461500Y1866900D03*
G01*
X9715500Y1866900D03*
G01*
X9969500Y1866900D03*
G01*
X10223500Y1866900D03*
G01*
X10731500Y1866900D03*
G01*
X10985500Y1866900D03*
G01*
X11239500Y1866900D03*
G01*
X11493500Y1866900D03*
G01*
X11747500Y1866900D03*
G01*
X12001500Y1866900D03*
G01*
X12255500Y1866900D03*
G01*
X12509500Y1866900D03*
G01*
X13525500Y1866900D03*
G01*
X13271500Y1866900D03*
G01*
X13525500Y1612900D03*
G01*
X13525500Y1358900D03*
G01*
X13271500Y1612900D03*
G01*
X13271500Y1358900D03*
G01*
X13271500Y1104900D03*
G01*
X13525500Y1104900D03*
G01*
X13525500Y850900D03*
G01*
X13271500Y850900D03*
G01*
X13271500Y596900D03*
G01*
X13525500Y596900D03*
G01*
X13271500Y342900D03*
G01*
X13525500Y342900D03*
G01*
X13271500Y88900D03*
G01*
X13525500Y88900D03*
G01*
X13271500Y-165100D03*
G01*
X13525500Y-165100D03*
G01*
X13271500Y-419100D03*
G01*
X13525500Y-419100D03*
G01*
X13271500Y-673100D03*
G01*
X13525500Y-673100D03*
G01*
X13525500Y-927100D03*
G01*
X13271500Y-927100D03*
G01*
X13271500Y-1181100D03*
G01*
X13525500Y-1181100D03*
G01*
X13525500Y-1435100D03*
G01*
X13271500Y-1435100D03*
G01*
X13271500Y-1689100D03*
G01*
X13525500Y-1689100D03*
G01*
X13525500Y-1943100D03*
G01*
X13271500Y-1943100D03*
G01*
X13271500Y-2197100D03*
G01*
X13525500Y-2197100D03*
G01*
X13525500Y-2451100D03*
G01*
X13271500Y-2451100D03*
G01*
X13017500Y-2959100D03*
G01*
X12763500Y-2959100D03*
G01*
X12509500Y-2959100D03*
G01*
X12255500Y-2959100D03*
G01*
X12001500Y-2959100D03*
G01*
X11747500Y-2959100D03*
G01*
X11493500Y-2959100D03*
G01*
X11239500Y-2959100D03*
G01*
X10731500Y-2959100D03*
G01*
X10477500Y-2959100D03*
G01*
X10223500Y-2959100D03*
G01*
X9969500Y-2959100D03*
G01*
X9715500Y-2959100D03*
G01*
X9461500Y-2959100D03*
G01*
X9207500Y-2959100D03*
G01*
X8953500Y-2959100D03*
G01*
X8445500Y-2959100D03*
G01*
X8191500Y-2959100D03*
G01*
X7937500Y-2959100D03*
G01*
X7683500Y-2959100D03*
G01*
X7429500Y-2959100D03*
G01*
X7175500Y-2959100D03*
G01*
X6921500Y-2959100D03*
G01*
X6667500Y-2959100D03*
D12*
G01*
X12509500Y1866900D03*
D13*
G01*
X7289800Y2616200D03*
D14*
G01*
X7543800Y2616200D03*
G01*
X7797800Y2616200D03*
G01*
X8051800Y2616200D03*
G01*
X8305800Y2616200D03*
G01*
X8559800Y2616200D03*
G01*
X8813800Y2616200D03*
G01*
X9067800Y2616200D03*
G01*
X10058400Y2413000D03*
G01*
X9804400Y2413000D03*
D15*
G01*
X9550400Y2413000D03*
D14*
G01*
X11010900Y2400300D03*
G01*
X10756900Y2400300D03*
D15*
G01*
X10502900Y2400300D03*
D14*
G01*
X11899900Y2400300D03*
G01*
X11645900Y2400300D03*
D15*
G01*
X11391900Y2400300D03*
D12*
G01*
X4229100Y1866900D03*
G01*
X4483100Y1866900D03*
G01*
X4229100Y2120900D03*
G01*
X4483100Y2120900D03*
G01*
X4229100Y2374900D03*
G01*
X4483100Y2374900D03*
G01*
X4229100Y2628900D03*
D16*
G01*
X4483100Y2628900D03*
D12*
G01*
X11867895Y299999D03*
G01*
X11867895Y45999D03*
G01*
X11867895Y-208000D03*
G01*
X11867895Y-462000D03*
G01*
X11867895Y-716000D03*
D17*
G01*
X12306300Y2387600D03*
D18*
G01*
X12560300Y2387600D03*
D19*
G01*
X8966200Y-2641600D03*
G01*
X9728200Y-2641600D03*
D15*
G01*
X4127500Y-3251200D03*
D14*
G01*
X4127500Y-2997200D03*
G01*
X4127500Y-2743200D03*
G01*
X4127500Y-2489200D03*
G01*
X13449300Y2374900D03*
G01*
X13195300Y2374900D03*
D15*
G01*
X12941300Y2374900D03*
D20*
G01*
X4140072Y130987D03*
G01*
X4140072Y-123012D03*
G01*
X4140072Y-377012D03*
G01*
X4140327Y-631012D03*
D21*
G01*
X9309100Y-2413000D03*
G01*
X10223500Y-2413000D03*
G01*
X4660900Y990600D03*
G01*
X4406900Y-2527300D03*
G01*
X8953500Y-1104900D03*
G01*
X9347200Y-1130300D03*
G01*
X9563100Y1143000D03*
G01*
X9867900Y1143000D03*
M02*
