G04 Layer: TopSilkscreenLayer*
G04 EasyEDA v6.5.50, 2025-05-10 22:03:40*
G04 3dfc61e0309445a68604fa7064afe25b,ba9dcde3079f4f00b3cbb53a4f6625ee,10*
G04 Gerber Generator version 0.2*
G04 Scale: 100 percent, Rotated: No, Reflected: No *
G04 Dimensions in millimeters *
G04 leading zeros omitted , absolute positions ,4 integer and 5 decimal *
%FSLAX45Y45*%
%MOMM*%

%ADD10C,0.2032*%
%ADD11C,0.1000*%
%ADD12C,0.1524*%
%ADD13C,0.2500*%
%ADD14C,0.2030*%
%ADD15C,0.2540*%
%ADD16C,0.5000*%
%ADD17C,0.0118*%

%LPD*%
G36*
X7240625Y131673D02*
G01*
X7125512Y131622D01*
X7123074Y130556D01*
X7120890Y128219D01*
X7120026Y125933D01*
X7120026Y-72745D01*
X7154722Y-72745D01*
X7154722Y94691D01*
X7156297Y96469D01*
X7157923Y97129D01*
X7324445Y96977D01*
X7326680Y94742D01*
X7326680Y-72745D01*
X7324445Y-74980D01*
X7156958Y-74980D01*
X7154722Y-72745D01*
X7120026Y-72745D01*
X7120026Y-104038D01*
X7121144Y-106629D01*
X7123480Y-108813D01*
X7125766Y-109677D01*
X7355738Y-109677D01*
X7358329Y-108559D01*
X7360513Y-106222D01*
X7361377Y-103936D01*
X7361377Y125933D01*
X7360513Y128219D01*
X7358329Y130556D01*
X7355738Y131673D01*
G37*
G36*
X7470292Y131673D02*
G01*
X7467498Y130149D01*
X7465009Y127152D01*
X7464806Y68173D01*
X7466330Y65379D01*
X7469378Y62941D01*
X7494778Y62941D01*
X7497825Y65379D01*
X7499299Y68173D01*
X7499299Y126237D01*
X7497825Y129032D01*
X7494778Y131470D01*
G37*
G36*
X7539278Y131673D02*
G01*
X7536434Y130149D01*
X7533995Y127152D01*
X7533995Y101752D01*
X7536434Y98704D01*
X7539278Y97180D01*
X7562799Y97180D01*
X7565593Y98704D01*
X7568082Y101752D01*
X7568082Y127152D01*
X7565593Y130149D01*
X7562799Y131673D01*
G37*
G36*
X7608214Y131673D02*
G01*
X7605420Y130149D01*
X7602981Y127152D01*
X7602575Y102260D01*
X7600696Y99263D01*
X7597698Y97383D01*
X7572806Y96977D01*
X7569758Y94538D01*
X7568285Y91744D01*
X7568285Y68173D01*
X7569758Y65379D01*
X7572806Y62941D01*
X7597698Y62534D01*
X7600696Y60655D01*
X7602575Y57658D01*
X7602981Y32766D01*
X7605420Y29718D01*
X7608214Y28194D01*
X7632700Y28448D01*
X7635748Y30886D01*
X7637221Y33680D01*
X7637221Y126237D01*
X7635748Y129032D01*
X7632700Y131470D01*
G37*
G36*
X7677200Y131673D02*
G01*
X7674356Y130149D01*
X7671917Y127152D01*
X7671917Y101752D01*
X7674356Y98704D01*
X7677200Y97180D01*
X7700721Y97180D01*
X7703566Y98704D01*
X7706004Y101752D01*
X7706004Y127152D01*
X7703566Y130149D01*
X7700721Y131673D01*
G37*
G36*
X7815122Y131673D02*
G01*
X7812278Y130149D01*
X7809839Y127152D01*
X7809839Y101752D01*
X7812278Y98704D01*
X7815122Y97180D01*
X7838643Y97180D01*
X7841488Y98704D01*
X7843926Y101752D01*
X7843926Y127152D01*
X7841488Y130149D01*
X7838643Y131673D01*
G37*
G36*
X7999222Y131673D02*
G01*
X7884058Y131622D01*
X7881670Y130556D01*
X7879486Y128219D01*
X7878622Y125933D01*
X7878622Y-72745D01*
X7913268Y-72745D01*
X7913268Y94691D01*
X7914894Y96469D01*
X7916519Y97129D01*
X8083042Y96977D01*
X8085277Y94742D01*
X8085277Y-72745D01*
X8083042Y-74980D01*
X7915554Y-74980D01*
X7913268Y-72745D01*
X7878622Y-72745D01*
X7878622Y-104038D01*
X7879740Y-106629D01*
X7882077Y-108813D01*
X7884363Y-109677D01*
X8114334Y-109677D01*
X8116925Y-108559D01*
X8119109Y-106222D01*
X8119973Y-103936D01*
X8119973Y125933D01*
X8119109Y128219D01*
X8116925Y130556D01*
X8114334Y131673D01*
G37*
G36*
X7401306Y97180D02*
G01*
X7398512Y95707D01*
X7396073Y92659D01*
X7396073Y67259D01*
X7398512Y64211D01*
X7401306Y62738D01*
X7424877Y62738D01*
X7427671Y64211D01*
X7430160Y67259D01*
X7430160Y92659D01*
X7427671Y95707D01*
X7424877Y97180D01*
G37*
G36*
X7711643Y97180D02*
G01*
X7708849Y95707D01*
X7706410Y92659D01*
X7706410Y67259D01*
X7708849Y64211D01*
X7711643Y62738D01*
X7735214Y62738D01*
X7738008Y64211D01*
X7740497Y67259D01*
X7740497Y92659D01*
X7738008Y95707D01*
X7735214Y97180D01*
G37*
G36*
X7286955Y62738D02*
G01*
X7194448Y62687D01*
X7192009Y61620D01*
X7189825Y59283D01*
X7188962Y56997D01*
X7188962Y-35052D01*
X7190079Y-37693D01*
X7192416Y-39878D01*
X7194702Y-40741D01*
X7286955Y-40741D01*
X7289749Y-39217D01*
X7292238Y-36169D01*
X7292238Y58166D01*
X7289749Y61214D01*
G37*
G36*
X7539278Y62738D02*
G01*
X7536434Y61214D01*
X7533995Y58166D01*
X7533995Y-1727D01*
X7536434Y-4724D01*
X7539278Y-6248D01*
X7597292Y-6248D01*
X7600086Y-4724D01*
X7602575Y-1727D01*
X7602778Y22758D01*
X7601254Y25552D01*
X7598206Y28041D01*
X7573365Y28448D01*
X7570368Y30327D01*
X7568488Y33324D01*
X7568082Y58166D01*
X7565593Y61214D01*
X7562799Y62738D01*
G37*
G36*
X7677200Y62738D02*
G01*
X7674356Y61214D01*
X7671917Y58166D01*
X7671917Y32766D01*
X7674356Y29718D01*
X7677200Y28244D01*
X7700721Y28244D01*
X7703566Y29718D01*
X7706004Y32766D01*
X7706004Y58166D01*
X7703566Y61214D01*
X7700721Y62738D01*
G37*
G36*
X7746136Y62738D02*
G01*
X7743342Y61214D01*
X7740903Y58166D01*
X7740650Y33731D01*
X7742174Y30886D01*
X7745222Y28448D01*
X7804556Y28041D01*
X7807553Y26162D01*
X7809433Y23164D01*
X7809839Y-1727D01*
X7812278Y-4724D01*
X7815122Y-6248D01*
X7839608Y-6045D01*
X7842605Y-3606D01*
X7844129Y-762D01*
X7843926Y58166D01*
X7841488Y61214D01*
X7838643Y62738D01*
G37*
G36*
X8045551Y62738D02*
G01*
X7953044Y62687D01*
X7950606Y61620D01*
X7948422Y59283D01*
X7947558Y56997D01*
X7947558Y-35052D01*
X7948675Y-37693D01*
X7951012Y-39878D01*
X7953298Y-40741D01*
X8045551Y-40741D01*
X8048345Y-39217D01*
X8050834Y-36169D01*
X8050834Y58166D01*
X8048345Y61214D01*
G37*
G36*
X7401306Y28244D02*
G01*
X7398512Y26720D01*
X7396073Y23672D01*
X7395870Y-762D01*
X7397394Y-3606D01*
X7400391Y-6045D01*
X7425283Y-6451D01*
X7428280Y-8331D01*
X7430160Y-11328D01*
X7430160Y-35661D01*
X7428280Y-38658D01*
X7425283Y-40538D01*
X7400391Y-40944D01*
X7397394Y-43383D01*
X7395870Y-46177D01*
X7395870Y-104241D01*
X7397394Y-107035D01*
X7400391Y-109474D01*
X7424877Y-109728D01*
X7427671Y-108204D01*
X7430160Y-105156D01*
X7430566Y-80264D01*
X7432395Y-77266D01*
X7435443Y-75438D01*
X7460183Y-74980D01*
X7462774Y-73152D01*
X7464602Y-70561D01*
X7465009Y-11328D01*
X7466888Y-8331D01*
X7469886Y-6451D01*
X7494778Y-6045D01*
X7497825Y-3606D01*
X7499350Y-762D01*
X7499096Y23672D01*
X7496657Y26720D01*
X7493863Y28244D01*
G37*
G36*
X7642707Y28244D02*
G01*
X7639913Y26720D01*
X7637424Y23672D01*
X7637424Y-1727D01*
X7639913Y-4724D01*
X7642707Y-6248D01*
X7666278Y-6248D01*
X7669072Y-4724D01*
X7671511Y-1727D01*
X7671511Y23672D01*
X7669072Y26720D01*
X7666278Y28244D01*
G37*
G36*
X7608214Y-6248D02*
G01*
X7605420Y-7772D01*
X7602981Y-10769D01*
X7602981Y-36169D01*
X7605420Y-39217D01*
X7608214Y-40741D01*
X7631785Y-40741D01*
X7634579Y-39217D01*
X7637018Y-36169D01*
X7637018Y-10769D01*
X7634579Y-7772D01*
X7631785Y-6248D01*
G37*
G36*
X7677200Y-6248D02*
G01*
X7674356Y-7772D01*
X7671917Y-10769D01*
X7671917Y-36169D01*
X7674356Y-39217D01*
X7677200Y-40741D01*
X7700721Y-40741D01*
X7703566Y-39217D01*
X7706004Y-36169D01*
X7706004Y-10769D01*
X7703566Y-7772D01*
X7700721Y-6248D01*
G37*
G36*
X7746136Y-6248D02*
G01*
X7743342Y-7772D01*
X7740903Y-10769D01*
X7740650Y-35255D01*
X7742174Y-38049D01*
X7745222Y-40538D01*
X7770114Y-40944D01*
X7773111Y-42773D01*
X7774940Y-45821D01*
X7775346Y-70662D01*
X7777835Y-73710D01*
X7780629Y-75234D01*
X7805115Y-74980D01*
X7808163Y-72542D01*
X7809636Y-69748D01*
X7809636Y-11734D01*
X7808163Y-8890D01*
X7805115Y-6451D01*
G37*
G36*
X7504785Y-40741D02*
G01*
X7501991Y-42214D01*
X7499502Y-45262D01*
X7499299Y-69748D01*
X7500823Y-72542D01*
X7503820Y-74980D01*
X7528712Y-75438D01*
X7531709Y-77266D01*
X7533589Y-80264D01*
X7533995Y-105156D01*
X7536434Y-108204D01*
X7539278Y-109728D01*
X7563713Y-109474D01*
X7566761Y-107035D01*
X7568285Y-104241D01*
X7568285Y-46177D01*
X7566761Y-43383D01*
X7563713Y-40944D01*
G37*
G36*
X7711643Y-40741D02*
G01*
X7708849Y-42214D01*
X7706410Y-45262D01*
X7706410Y-70662D01*
X7708849Y-73710D01*
X7711643Y-75184D01*
X7735214Y-75184D01*
X7738008Y-73710D01*
X7740497Y-70662D01*
X7740497Y-45262D01*
X7738008Y-42214D01*
X7735214Y-40741D01*
G37*
G36*
X7470292Y-75184D02*
G01*
X7467498Y-76708D01*
X7465009Y-79756D01*
X7464602Y-104597D01*
X7462774Y-107645D01*
X7459776Y-109474D01*
X7435037Y-109880D01*
X7432395Y-111760D01*
X7430566Y-114350D01*
X7430160Y-139090D01*
X7428280Y-142087D01*
X7425283Y-143967D01*
X7331456Y-144373D01*
X7328408Y-146812D01*
X7326884Y-149656D01*
X7327087Y-174142D01*
X7329576Y-177139D01*
X7332370Y-178663D01*
X7459370Y-178663D01*
X7462164Y-177139D01*
X7464602Y-174142D01*
X7465009Y-149250D01*
X7466888Y-146253D01*
X7469886Y-144373D01*
X7494219Y-144373D01*
X7497267Y-146253D01*
X7499096Y-149250D01*
X7499502Y-174142D01*
X7501991Y-177139D01*
X7504785Y-178663D01*
X7529271Y-178460D01*
X7532268Y-176022D01*
X7533792Y-173177D01*
X7533792Y-115163D01*
X7532268Y-112369D01*
X7529271Y-109880D01*
X7504379Y-109474D01*
X7501381Y-107645D01*
X7499502Y-104597D01*
X7499096Y-79756D01*
X7496657Y-76708D01*
X7493863Y-75184D01*
G37*
G36*
X7608214Y-75184D02*
G01*
X7605420Y-76708D01*
X7602981Y-79756D01*
X7602981Y-105156D01*
X7605420Y-108204D01*
X7608214Y-109677D01*
X7631785Y-109677D01*
X7634579Y-108204D01*
X7637018Y-105156D01*
X7637018Y-79756D01*
X7634579Y-76708D01*
X7631785Y-75184D01*
G37*
G36*
X7677200Y-75184D02*
G01*
X7674356Y-76708D01*
X7671917Y-79756D01*
X7671511Y-139090D01*
X7669631Y-142087D01*
X7666634Y-143967D01*
X7641894Y-144373D01*
X7639303Y-146253D01*
X7637424Y-148844D01*
X7637018Y-208076D01*
X7635189Y-211074D01*
X7632192Y-212953D01*
X7607808Y-212953D01*
X7604810Y-211074D01*
X7602981Y-208076D01*
X7602575Y-183184D01*
X7600086Y-180136D01*
X7597292Y-178663D01*
X7539278Y-178663D01*
X7536434Y-180136D01*
X7533995Y-183184D01*
X7533792Y-207670D01*
X7535316Y-210464D01*
X7538313Y-212953D01*
X7563205Y-213360D01*
X7566202Y-215188D01*
X7568082Y-218186D01*
X7568082Y-242519D01*
X7566202Y-245567D01*
X7563205Y-247396D01*
X7538313Y-247802D01*
X7535316Y-250291D01*
X7533792Y-253085D01*
X7533792Y-311099D01*
X7535316Y-313944D01*
X7538313Y-316382D01*
X7562799Y-316585D01*
X7565593Y-315061D01*
X7568082Y-312064D01*
X7568488Y-287172D01*
X7570368Y-284175D01*
X7573365Y-282295D01*
X7598105Y-281889D01*
X7600696Y-280060D01*
X7602575Y-277418D01*
X7602981Y-252679D01*
X7604810Y-249682D01*
X7607808Y-247802D01*
X7667040Y-247396D01*
X7669631Y-245567D01*
X7671511Y-242976D01*
X7671917Y-183743D01*
X7673797Y-180746D01*
X7676794Y-178866D01*
X7736128Y-178460D01*
X7739176Y-176022D01*
X7740700Y-173177D01*
X7740700Y-149656D01*
X7739176Y-146812D01*
X7736128Y-144373D01*
X7711287Y-143967D01*
X7708290Y-142087D01*
X7706410Y-139090D01*
X7706004Y-79756D01*
X7703566Y-76708D01*
X7700721Y-75184D01*
G37*
G36*
X7746136Y-75184D02*
G01*
X7743342Y-76708D01*
X7740903Y-79756D01*
X7740903Y-105156D01*
X7743342Y-108204D01*
X7746136Y-109677D01*
X7769707Y-109677D01*
X7772501Y-108204D01*
X7774940Y-105156D01*
X7774940Y-79756D01*
X7772501Y-76708D01*
X7769707Y-75184D01*
G37*
G36*
X7815122Y-75184D02*
G01*
X7812278Y-76708D01*
X7809839Y-79756D01*
X7809433Y-173583D01*
X7807553Y-176580D01*
X7804556Y-178460D01*
X7745222Y-178866D01*
X7742174Y-181305D01*
X7740700Y-184099D01*
X7740700Y-207670D01*
X7742174Y-210464D01*
X7745222Y-212953D01*
X7770114Y-213360D01*
X7773111Y-215188D01*
X7774940Y-218186D01*
X7774940Y-242519D01*
X7773111Y-245567D01*
X7770114Y-247396D01*
X7745222Y-247802D01*
X7742174Y-250291D01*
X7740650Y-253085D01*
X7740903Y-277571D01*
X7743342Y-280568D01*
X7746136Y-282092D01*
X7804200Y-282092D01*
X7806994Y-280568D01*
X7809433Y-277571D01*
X7809839Y-218186D01*
X7811719Y-215188D01*
X7814716Y-213360D01*
X7874050Y-212953D01*
X7877098Y-210464D01*
X7878622Y-207670D01*
X7878622Y-149656D01*
X7877098Y-146812D01*
X7874050Y-144373D01*
X7849209Y-143967D01*
X7846212Y-142087D01*
X7844332Y-139090D01*
X7843926Y-79756D01*
X7841488Y-76708D01*
X7838643Y-75184D01*
G37*
G36*
X7125462Y-144170D02*
G01*
X7122668Y-145694D01*
X7120229Y-148691D01*
X7120026Y-207670D01*
X7121499Y-210464D01*
X7124547Y-212953D01*
X7149033Y-213156D01*
X7151827Y-211632D01*
X7154316Y-208584D01*
X7154722Y-183743D01*
X7156551Y-180746D01*
X7159548Y-178866D01*
X7183932Y-178866D01*
X7186930Y-180746D01*
X7188758Y-183743D01*
X7189165Y-208584D01*
X7191654Y-211632D01*
X7194448Y-213156D01*
X7217968Y-213156D01*
X7220813Y-211632D01*
X7223252Y-208584D01*
X7223658Y-183743D01*
X7225538Y-180746D01*
X7228535Y-178866D01*
X7287869Y-178460D01*
X7290917Y-176022D01*
X7292441Y-173177D01*
X7292238Y-148691D01*
X7289749Y-145694D01*
X7286955Y-144170D01*
G37*
G36*
X7918551Y-144170D02*
G01*
X7915757Y-145694D01*
X7913268Y-148691D01*
X7912959Y-220065D01*
X7947507Y-220065D01*
X7948422Y-216763D01*
X7951216Y-213969D01*
X7953857Y-213207D01*
X7976971Y-213360D01*
X7979968Y-215188D01*
X7981848Y-218186D01*
X7981848Y-242519D01*
X7979968Y-245567D01*
X7976971Y-247396D01*
X7952638Y-247396D01*
X7949641Y-245567D01*
X7947761Y-242519D01*
X7947507Y-220065D01*
X7912959Y-220065D01*
X7912862Y-242519D01*
X7911033Y-245567D01*
X7908036Y-247396D01*
X7848803Y-247802D01*
X7846161Y-249682D01*
X7844332Y-252272D01*
X7843926Y-277012D01*
X7842046Y-280009D01*
X7839049Y-281889D01*
X7814157Y-282295D01*
X7811160Y-284734D01*
X7809636Y-287578D01*
X7809839Y-346506D01*
X7812278Y-349554D01*
X7815122Y-351078D01*
X7873136Y-351078D01*
X7875930Y-349554D01*
X7878419Y-346506D01*
X7878825Y-321665D01*
X7880654Y-318668D01*
X7883702Y-316788D01*
X7977378Y-316382D01*
X7979968Y-314502D01*
X7981848Y-311912D01*
X7982254Y-287172D01*
X7984134Y-284175D01*
X7987131Y-282295D01*
X8011871Y-281889D01*
X8014462Y-280060D01*
X8016341Y-277418D01*
X8016748Y-252679D01*
X8018627Y-249682D01*
X8021624Y-247802D01*
X8046466Y-247396D01*
X8049514Y-244957D01*
X8051038Y-242163D01*
X8051038Y-218592D01*
X8049514Y-215798D01*
X8046466Y-213360D01*
X8021624Y-212953D01*
X8018627Y-211074D01*
X8016748Y-208076D01*
X8016341Y-148691D01*
X8013852Y-145694D01*
X8011058Y-144170D01*
X7987538Y-144170D01*
X7984693Y-145694D01*
X7982254Y-148691D01*
X7981848Y-173583D01*
X7979968Y-176580D01*
X7976971Y-178460D01*
X7952638Y-178460D01*
X7949641Y-176580D01*
X7947761Y-173583D01*
X7947355Y-148691D01*
X7944916Y-145694D01*
X7942122Y-144170D01*
G37*
G36*
X8056473Y-144170D02*
G01*
X8053679Y-145694D01*
X8051241Y-148691D01*
X8050987Y-207670D01*
X8052511Y-210464D01*
X8055559Y-212953D01*
X8080959Y-212953D01*
X8084007Y-210464D01*
X8085480Y-207670D01*
X8085480Y-149656D01*
X8084007Y-146812D01*
X8080959Y-144373D01*
G37*
G36*
X7470292Y-178612D02*
G01*
X7467498Y-180136D01*
X7465009Y-183184D01*
X7464806Y-242163D01*
X7466330Y-244957D01*
X7469378Y-247396D01*
X7494778Y-247396D01*
X7497825Y-244957D01*
X7499299Y-242163D01*
X7499299Y-184099D01*
X7497825Y-181305D01*
X7494778Y-178866D01*
G37*
G36*
X7297877Y-178663D02*
G01*
X7295083Y-180136D01*
X7292644Y-183184D01*
X7292644Y-208584D01*
X7295083Y-211632D01*
X7297877Y-213156D01*
X7321448Y-213156D01*
X7324242Y-211632D01*
X7326680Y-208584D01*
X7326680Y-183184D01*
X7324242Y-180136D01*
X7321448Y-178663D01*
G37*
G36*
X7159955Y-213156D02*
G01*
X7157161Y-214629D01*
X7154722Y-217678D01*
X7154316Y-242519D01*
X7152436Y-245567D01*
X7149439Y-247396D01*
X7124547Y-247802D01*
X7121499Y-250291D01*
X7120026Y-253085D01*
X7120026Y-276656D01*
X7121499Y-279450D01*
X7124547Y-281889D01*
X7149439Y-282295D01*
X7152436Y-284175D01*
X7154316Y-287172D01*
X7154722Y-312064D01*
X7157161Y-315061D01*
X7159955Y-316585D01*
X7218934Y-316382D01*
X7221931Y-313944D01*
X7223455Y-311099D01*
X7223455Y-253085D01*
X7221931Y-250291D01*
X7218934Y-247802D01*
X7194042Y-247396D01*
X7191044Y-245567D01*
X7189165Y-242519D01*
X7188758Y-217678D01*
X7186320Y-214629D01*
X7183526Y-213156D01*
G37*
G36*
X7263384Y-213156D02*
G01*
X7260590Y-214629D01*
X7258151Y-217678D01*
X7258151Y-243078D01*
X7260590Y-246125D01*
X7263384Y-247599D01*
X7286955Y-247599D01*
X7289749Y-246125D01*
X7292238Y-243078D01*
X7292238Y-217678D01*
X7289749Y-214629D01*
X7286955Y-213156D01*
G37*
G36*
X7332370Y-213156D02*
G01*
X7329576Y-214629D01*
X7327087Y-217678D01*
X7327087Y-243078D01*
X7329576Y-246125D01*
X7332370Y-247599D01*
X7355941Y-247599D01*
X7358735Y-246125D01*
X7361174Y-243078D01*
X7361174Y-217678D01*
X7358735Y-214629D01*
X7355941Y-213156D01*
G37*
G36*
X7401306Y-213156D02*
G01*
X7398512Y-214629D01*
X7396073Y-217678D01*
X7396073Y-243078D01*
X7398512Y-246125D01*
X7401306Y-247599D01*
X7424877Y-247599D01*
X7427671Y-246125D01*
X7430160Y-243078D01*
X7430160Y-217678D01*
X7427671Y-214629D01*
X7424877Y-213156D01*
G37*
G36*
X7711643Y-213156D02*
G01*
X7708849Y-214629D01*
X7706410Y-217678D01*
X7706410Y-243078D01*
X7708849Y-246125D01*
X7711643Y-247599D01*
X7735214Y-247599D01*
X7738008Y-246125D01*
X7740497Y-243078D01*
X7740497Y-217678D01*
X7738008Y-214629D01*
X7735214Y-213156D01*
G37*
G36*
X7297877Y-247599D02*
G01*
X7295083Y-249123D01*
X7292644Y-252171D01*
X7292238Y-311505D01*
X7290358Y-314502D01*
X7287361Y-316382D01*
X7227976Y-316788D01*
X7224979Y-319227D01*
X7223455Y-322072D01*
X7223658Y-346506D01*
X7226096Y-349554D01*
X7228941Y-351078D01*
X7321448Y-351078D01*
X7324242Y-349554D01*
X7326680Y-346506D01*
X7327087Y-321665D01*
X7328966Y-318668D01*
X7331964Y-316788D01*
X7356856Y-316382D01*
X7359903Y-313944D01*
X7361377Y-311099D01*
X7361377Y-287578D01*
X7359903Y-284734D01*
X7356856Y-282295D01*
X7331964Y-281889D01*
X7328966Y-280009D01*
X7327087Y-277012D01*
X7326680Y-252171D01*
X7324242Y-249123D01*
X7321448Y-247599D01*
G37*
G36*
X7677200Y-247599D02*
G01*
X7674356Y-249123D01*
X7671917Y-252171D01*
X7671917Y-277571D01*
X7674356Y-280568D01*
X7677200Y-282092D01*
X7700721Y-282092D01*
X7703566Y-280568D01*
X7706004Y-277571D01*
X7706004Y-252171D01*
X7703566Y-249123D01*
X7700721Y-247599D01*
G37*
G36*
X8090966Y-247599D02*
G01*
X8088172Y-249123D01*
X8085683Y-252171D01*
X8085683Y-277571D01*
X8088172Y-280568D01*
X8090966Y-282092D01*
X8114538Y-282092D01*
X8117331Y-280568D01*
X8119770Y-277571D01*
X8119770Y-252171D01*
X8117331Y-249123D01*
X8114538Y-247599D01*
G37*
G36*
X7435799Y-282092D02*
G01*
X7433005Y-283616D01*
X7430566Y-286613D01*
X7430566Y-312064D01*
X7433005Y-315061D01*
X7435799Y-316585D01*
X7493863Y-316585D01*
X7496657Y-315061D01*
X7499096Y-312064D01*
X7499096Y-286613D01*
X7496657Y-283616D01*
X7493863Y-282092D01*
G37*
G36*
X7608214Y-282092D02*
G01*
X7605420Y-283616D01*
X7602981Y-286613D01*
X7602981Y-312064D01*
X7605420Y-315061D01*
X7608214Y-316585D01*
X7666278Y-316585D01*
X7669072Y-315061D01*
X7671511Y-312064D01*
X7671511Y-286613D01*
X7669072Y-283616D01*
X7666278Y-282092D01*
G37*
G36*
X7987538Y-316585D02*
G01*
X7984693Y-318109D01*
X7982254Y-321106D01*
X7982051Y-380085D01*
X7983575Y-382879D01*
X7986572Y-385318D01*
X8045958Y-385724D01*
X8048955Y-387604D01*
X8050834Y-390601D01*
X8051241Y-415493D01*
X8053679Y-418490D01*
X8056473Y-420014D01*
X8114538Y-420014D01*
X8117331Y-418490D01*
X8119770Y-415493D01*
X8119973Y-356514D01*
X8118449Y-353720D01*
X8115452Y-351282D01*
X8090560Y-350875D01*
X8087563Y-348996D01*
X8085683Y-345998D01*
X8085277Y-321106D01*
X8082838Y-318109D01*
X8080044Y-316585D01*
X8056473Y-316585D01*
X8053679Y-318109D01*
X8051241Y-321106D01*
X8050834Y-345998D01*
X8048955Y-348996D01*
X8045958Y-350875D01*
X8021624Y-350875D01*
X8018627Y-348996D01*
X8016748Y-345998D01*
X8016341Y-321106D01*
X8013852Y-318109D01*
X8011058Y-316585D01*
G37*
G36*
X7125462Y-351078D02*
G01*
X7122668Y-352552D01*
X7120229Y-355600D01*
X7120229Y-381000D01*
X7122668Y-384048D01*
X7125462Y-385521D01*
X7217968Y-385521D01*
X7220813Y-384048D01*
X7223252Y-381000D01*
X7223252Y-355600D01*
X7220813Y-352552D01*
X7217968Y-351078D01*
G37*
G36*
X7332370Y-351078D02*
G01*
X7329576Y-352552D01*
X7327087Y-355600D01*
X7327087Y-381000D01*
X7329576Y-384048D01*
X7332370Y-385521D01*
X7390384Y-385521D01*
X7393228Y-384048D01*
X7395667Y-381000D01*
X7395667Y-355600D01*
X7393228Y-352552D01*
X7390384Y-351078D01*
G37*
G36*
X7435799Y-351078D02*
G01*
X7433005Y-352552D01*
X7430566Y-355600D01*
X7430160Y-380492D01*
X7428280Y-383489D01*
X7425283Y-385318D01*
X7400391Y-385724D01*
X7397394Y-388213D01*
X7395870Y-391007D01*
X7395870Y-414578D01*
X7397394Y-417372D01*
X7400391Y-419811D01*
X7425283Y-420217D01*
X7428280Y-422097D01*
X7430160Y-425094D01*
X7430566Y-449986D01*
X7433005Y-452983D01*
X7435799Y-454507D01*
X7459370Y-454507D01*
X7462164Y-452983D01*
X7464602Y-449986D01*
X7465009Y-390601D01*
X7466888Y-387604D01*
X7469886Y-385724D01*
X7494219Y-385724D01*
X7497267Y-387604D01*
X7499096Y-390601D01*
X7499502Y-449986D01*
X7501991Y-452983D01*
X7504785Y-454507D01*
X7528306Y-454507D01*
X7531150Y-452983D01*
X7533589Y-449986D01*
X7533995Y-390601D01*
X7535875Y-387604D01*
X7538872Y-385724D01*
X7563713Y-385318D01*
X7566761Y-382879D01*
X7568285Y-380085D01*
X7568082Y-355600D01*
X7565593Y-352552D01*
X7562799Y-351078D01*
G37*
G36*
X7711643Y-351078D02*
G01*
X7708849Y-352552D01*
X7706410Y-355600D01*
X7706410Y-381000D01*
X7708849Y-384048D01*
X7711643Y-385521D01*
X7735214Y-385521D01*
X7738008Y-384048D01*
X7740497Y-381000D01*
X7740497Y-355600D01*
X7738008Y-352552D01*
X7735214Y-351078D01*
G37*
G36*
X7780629Y-351078D02*
G01*
X7777835Y-352552D01*
X7775346Y-355600D01*
X7775143Y-414528D01*
X7776667Y-417372D01*
X7779715Y-419811D01*
X7804556Y-420217D01*
X7807553Y-422097D01*
X7809433Y-425094D01*
X7809433Y-449427D01*
X7807553Y-452424D01*
X7804556Y-454304D01*
X7779816Y-454710D01*
X7777225Y-456539D01*
X7775346Y-459181D01*
X7774940Y-518414D01*
X7773111Y-521411D01*
X7770114Y-523240D01*
X7745222Y-523646D01*
X7742174Y-526135D01*
X7740700Y-528929D01*
X7740700Y-586943D01*
X7742174Y-589788D01*
X7745222Y-592226D01*
X7769707Y-592429D01*
X7772501Y-590905D01*
X7774940Y-587908D01*
X7775346Y-563016D01*
X7777225Y-560019D01*
X7780223Y-558139D01*
X7804556Y-558139D01*
X7807553Y-560019D01*
X7809433Y-563016D01*
X7809433Y-587349D01*
X7807553Y-590346D01*
X7804556Y-592226D01*
X7779715Y-592632D01*
X7776667Y-595071D01*
X7775143Y-597916D01*
X7775143Y-599236D01*
X7844129Y-599236D01*
X7844993Y-596087D01*
X7847787Y-593242D01*
X7850428Y-592480D01*
X7942478Y-592632D01*
X7945475Y-594512D01*
X7947355Y-597509D01*
X7947355Y-690778D01*
X7945475Y-693826D01*
X7942478Y-695655D01*
X7849209Y-695655D01*
X7846212Y-693826D01*
X7844332Y-690778D01*
X7844129Y-599236D01*
X7775143Y-599236D01*
X7775143Y-655929D01*
X7776667Y-658723D01*
X7779715Y-661162D01*
X7804556Y-661619D01*
X7807553Y-663448D01*
X7809433Y-666445D01*
X7809740Y-737311D01*
X7878572Y-737311D01*
X7879435Y-734009D01*
X7882280Y-731164D01*
X7884922Y-730402D01*
X7908036Y-730554D01*
X7911033Y-732434D01*
X7912862Y-735431D01*
X7912862Y-759764D01*
X7911033Y-762762D01*
X7908036Y-764641D01*
X7883702Y-764641D01*
X7880654Y-762762D01*
X7878825Y-759764D01*
X7878572Y-737311D01*
X7809740Y-737311D01*
X7809839Y-760171D01*
X7811719Y-762762D01*
X7814309Y-764641D01*
X7839049Y-765048D01*
X7842046Y-766927D01*
X7843926Y-769924D01*
X7843926Y-794258D01*
X7842046Y-797255D01*
X7839049Y-799134D01*
X7814309Y-799541D01*
X7811719Y-801370D01*
X7809839Y-803960D01*
X7809433Y-828700D01*
X7807553Y-831748D01*
X7804556Y-833577D01*
X7779715Y-833983D01*
X7776667Y-836472D01*
X7775143Y-839266D01*
X7775346Y-863752D01*
X7777835Y-866749D01*
X7780629Y-868273D01*
X7907629Y-868273D01*
X7910423Y-866749D01*
X7912862Y-863752D01*
X7913116Y-839266D01*
X7911592Y-836472D01*
X7908544Y-833983D01*
X7883702Y-833577D01*
X7880654Y-831748D01*
X7878825Y-828700D01*
X7878825Y-804367D01*
X7880654Y-801370D01*
X7883702Y-799541D01*
X7942884Y-799134D01*
X7945526Y-797255D01*
X7947355Y-794664D01*
X7947761Y-735431D01*
X7949641Y-732434D01*
X7952638Y-730554D01*
X7977378Y-730148D01*
X7979968Y-728268D01*
X7981848Y-725678D01*
X7982254Y-666445D01*
X7984134Y-663448D01*
X7987131Y-661619D01*
X8011464Y-661619D01*
X8014462Y-663448D01*
X8016341Y-666445D01*
X8016748Y-725830D01*
X8019186Y-728827D01*
X8021980Y-730351D01*
X8114538Y-730351D01*
X8117331Y-728827D01*
X8119770Y-725830D01*
X8119973Y-666851D01*
X8118449Y-664057D01*
X8115452Y-661619D01*
X8056067Y-661162D01*
X8053070Y-659333D01*
X8051241Y-656336D01*
X8050834Y-631596D01*
X8048955Y-628954D01*
X8046364Y-627126D01*
X7987131Y-626719D01*
X7984134Y-624840D01*
X7982254Y-621842D01*
X7982254Y-597509D01*
X7984134Y-594512D01*
X7987131Y-592632D01*
X8045958Y-592632D01*
X8048955Y-594512D01*
X8050834Y-597509D01*
X8051241Y-622350D01*
X8053679Y-625398D01*
X8056473Y-626922D01*
X8080044Y-626922D01*
X8082838Y-625398D01*
X8085277Y-622350D01*
X8085683Y-563016D01*
X8087563Y-560019D01*
X8090560Y-558139D01*
X8115452Y-557733D01*
X8118449Y-555294D01*
X8120024Y-552450D01*
X8119770Y-528015D01*
X8117331Y-524967D01*
X8114538Y-523443D01*
X8056473Y-523443D01*
X8053679Y-524967D01*
X8051241Y-528015D01*
X8050834Y-552856D01*
X8048955Y-555904D01*
X8045958Y-557733D01*
X7987131Y-557733D01*
X7984134Y-555904D01*
X7982254Y-552856D01*
X7981848Y-528116D01*
X7979968Y-525526D01*
X7977378Y-523646D01*
X7814716Y-523240D01*
X7811719Y-521411D01*
X7809839Y-518414D01*
X7809839Y-494080D01*
X7811719Y-491032D01*
X7814716Y-489204D01*
X7839608Y-488797D01*
X7842605Y-486308D01*
X7844129Y-483514D01*
X7844129Y-391007D01*
X7842605Y-388213D01*
X7839608Y-385724D01*
X7814716Y-385318D01*
X7811719Y-383489D01*
X7809839Y-380492D01*
X7809433Y-355600D01*
X7806994Y-352552D01*
X7804200Y-351078D01*
G37*
G36*
X7228941Y-385521D02*
G01*
X7226096Y-387045D01*
X7223658Y-390093D01*
X7223658Y-415493D01*
X7226096Y-418490D01*
X7228941Y-420014D01*
X7286955Y-420014D01*
X7289749Y-418490D01*
X7292238Y-415493D01*
X7292238Y-390093D01*
X7289749Y-387045D01*
X7286955Y-385521D01*
G37*
G36*
X7608214Y-385521D02*
G01*
X7605420Y-387045D01*
X7602981Y-390093D01*
X7602728Y-414528D01*
X7604252Y-417372D01*
X7607300Y-419811D01*
X7632192Y-420217D01*
X7635189Y-422097D01*
X7637018Y-425094D01*
X7637018Y-449427D01*
X7635189Y-452424D01*
X7632192Y-454304D01*
X7538313Y-454710D01*
X7535316Y-457149D01*
X7533792Y-459943D01*
X7533792Y-483514D01*
X7535316Y-486308D01*
X7538313Y-488797D01*
X7563205Y-489204D01*
X7566202Y-491032D01*
X7568082Y-494080D01*
X7568082Y-518414D01*
X7566202Y-521411D01*
X7563205Y-523240D01*
X7538313Y-523646D01*
X7535316Y-526135D01*
X7533792Y-528929D01*
X7533792Y-586943D01*
X7535316Y-589788D01*
X7538313Y-592226D01*
X7562799Y-592429D01*
X7565593Y-590905D01*
X7568082Y-587908D01*
X7568488Y-563016D01*
X7570368Y-560019D01*
X7573365Y-558139D01*
X7598105Y-557733D01*
X7600696Y-555904D01*
X7602575Y-553262D01*
X7602981Y-528523D01*
X7604810Y-525526D01*
X7607808Y-523646D01*
X7667040Y-523240D01*
X7669631Y-521411D01*
X7671511Y-518820D01*
X7671917Y-459587D01*
X7673797Y-456590D01*
X7676794Y-454710D01*
X7770622Y-454304D01*
X7773670Y-451866D01*
X7775143Y-449021D01*
X7775143Y-425500D01*
X7773670Y-422656D01*
X7770622Y-420217D01*
X7711287Y-419811D01*
X7708290Y-417931D01*
X7706410Y-414934D01*
X7706004Y-390093D01*
X7703566Y-387045D01*
X7700721Y-385521D01*
G37*
G36*
X7884058Y-385521D02*
G01*
X7881264Y-387045D01*
X7878825Y-390093D01*
X7878572Y-414528D01*
X7880096Y-417372D01*
X7883144Y-419811D01*
X7908036Y-420217D01*
X7911033Y-422097D01*
X7912862Y-425094D01*
X7913268Y-484327D01*
X7915148Y-486918D01*
X7917738Y-488797D01*
X7976971Y-489204D01*
X7979968Y-491032D01*
X7981848Y-494080D01*
X7982254Y-518922D01*
X7984693Y-521970D01*
X7987538Y-523443D01*
X8045551Y-523443D01*
X8048345Y-521970D01*
X8050834Y-518922D01*
X8051038Y-494487D01*
X8049514Y-491642D01*
X8046466Y-489204D01*
X8021624Y-488797D01*
X8018627Y-486918D01*
X8016748Y-483920D01*
X8016341Y-459181D01*
X8014462Y-456539D01*
X8011871Y-454710D01*
X7952638Y-454304D01*
X7949641Y-452424D01*
X7947761Y-449427D01*
X7947761Y-425094D01*
X7949641Y-422097D01*
X7952638Y-420217D01*
X7977530Y-419811D01*
X7980527Y-417372D01*
X7982051Y-414528D01*
X7981848Y-390093D01*
X7979409Y-387045D01*
X7976565Y-385521D01*
G37*
G36*
X7125462Y-420014D02*
G01*
X7122668Y-421538D01*
X7120229Y-424586D01*
X7120026Y-586943D01*
X7121499Y-589788D01*
X7124547Y-592226D01*
X7149033Y-592429D01*
X7151827Y-590905D01*
X7154316Y-587908D01*
X7154722Y-494080D01*
X7156551Y-491032D01*
X7159548Y-489204D01*
X7218375Y-489204D01*
X7221372Y-491032D01*
X7223252Y-494080D01*
X7223252Y-518414D01*
X7221372Y-521411D01*
X7218375Y-523240D01*
X7193534Y-523646D01*
X7190486Y-526135D01*
X7188962Y-528929D01*
X7189165Y-553415D01*
X7191654Y-556463D01*
X7194448Y-557936D01*
X7252462Y-557936D01*
X7255306Y-556463D01*
X7257745Y-553415D01*
X7258151Y-494080D01*
X7260031Y-491032D01*
X7263028Y-489204D01*
X7287869Y-488797D01*
X7290917Y-486308D01*
X7292441Y-483514D01*
X7292441Y-459943D01*
X7290917Y-457149D01*
X7287869Y-454710D01*
X7159548Y-454304D01*
X7156551Y-452424D01*
X7154722Y-449427D01*
X7154316Y-424535D01*
X7151827Y-421538D01*
X7149033Y-420014D01*
G37*
G36*
X7297877Y-420014D02*
G01*
X7295083Y-421538D01*
X7292644Y-424586D01*
X7292644Y-449986D01*
X7295083Y-452983D01*
X7297877Y-454507D01*
X7355941Y-454507D01*
X7358735Y-452983D01*
X7361174Y-449986D01*
X7361174Y-424586D01*
X7358735Y-421538D01*
X7355941Y-420014D01*
G37*
G36*
X7470292Y-454507D02*
G01*
X7467498Y-456031D01*
X7465009Y-459028D01*
X7465009Y-484428D01*
X7467498Y-487476D01*
X7470292Y-489000D01*
X7493863Y-489000D01*
X7496657Y-487476D01*
X7499096Y-484428D01*
X7499096Y-459028D01*
X7496657Y-456031D01*
X7493863Y-454507D01*
G37*
G36*
X8056473Y-454507D02*
G01*
X8053679Y-456031D01*
X8051241Y-459028D01*
X8051241Y-484428D01*
X8053679Y-487476D01*
X8056473Y-489000D01*
X8080044Y-489000D01*
X8082838Y-487476D01*
X8085277Y-484428D01*
X8085277Y-459028D01*
X8082838Y-456031D01*
X8080044Y-454507D01*
G37*
G36*
X7435799Y-488950D02*
G01*
X7433005Y-490474D01*
X7430566Y-493522D01*
X7430160Y-518414D01*
X7428280Y-521411D01*
X7425283Y-523240D01*
X7365898Y-523646D01*
X7362901Y-526135D01*
X7361377Y-528929D01*
X7361580Y-553415D01*
X7364018Y-556463D01*
X7366863Y-557936D01*
X7459370Y-557936D01*
X7462164Y-556463D01*
X7464602Y-553415D01*
X7464856Y-494487D01*
X7463332Y-491642D01*
X7460284Y-489204D01*
G37*
G36*
X7297877Y-489000D02*
G01*
X7295083Y-490474D01*
X7292644Y-493522D01*
X7292644Y-518922D01*
X7295083Y-521970D01*
X7297877Y-523443D01*
X7355941Y-523443D01*
X7358735Y-521970D01*
X7361174Y-518922D01*
X7361174Y-493522D01*
X7358735Y-490474D01*
X7355941Y-489000D01*
G37*
G36*
X7677200Y-523443D02*
G01*
X7674356Y-524967D01*
X7671917Y-528015D01*
X7671917Y-553415D01*
X7674356Y-556463D01*
X7677200Y-557936D01*
X7700721Y-557936D01*
X7703566Y-556463D01*
X7706004Y-553415D01*
X7706004Y-528015D01*
X7703566Y-524967D01*
X7700721Y-523443D01*
G37*
G36*
X7332370Y-557936D02*
G01*
X7329576Y-559460D01*
X7327087Y-562508D01*
X7327087Y-587908D01*
X7329576Y-590905D01*
X7332370Y-592429D01*
X7355941Y-592429D01*
X7358735Y-590905D01*
X7361174Y-587908D01*
X7361174Y-562508D01*
X7358735Y-559460D01*
X7355941Y-557936D01*
G37*
G36*
X7470292Y-557936D02*
G01*
X7467498Y-559460D01*
X7465009Y-562508D01*
X7465009Y-587908D01*
X7467498Y-590905D01*
X7470292Y-592429D01*
X7493863Y-592429D01*
X7496657Y-590905D01*
X7499096Y-587908D01*
X7499096Y-562508D01*
X7496657Y-559460D01*
X7493863Y-557936D01*
G37*
G36*
X7608214Y-557936D02*
G01*
X7605420Y-559460D01*
X7602981Y-562457D01*
X7602728Y-586943D01*
X7604252Y-589788D01*
X7607300Y-592226D01*
X7632192Y-592632D01*
X7635189Y-594512D01*
X7637018Y-597509D01*
X7637424Y-622350D01*
X7639913Y-625398D01*
X7642707Y-626922D01*
X7700721Y-626922D01*
X7703566Y-625398D01*
X7706004Y-622350D01*
X7706207Y-597916D01*
X7704683Y-595071D01*
X7701686Y-592632D01*
X7676794Y-592226D01*
X7673797Y-590346D01*
X7671917Y-587349D01*
X7671511Y-562457D01*
X7669072Y-559460D01*
X7666278Y-557936D01*
G37*
G36*
X7401306Y-592429D02*
G01*
X7398512Y-593953D01*
X7396073Y-596950D01*
X7395870Y-655929D01*
X7397394Y-658723D01*
X7400391Y-661162D01*
X7459776Y-661619D01*
X7462774Y-663448D01*
X7464602Y-666445D01*
X7464602Y-690778D01*
X7462774Y-693826D01*
X7459776Y-695655D01*
X7400391Y-696061D01*
X7397394Y-698550D01*
X7395870Y-701344D01*
X7395870Y-862837D01*
X7397394Y-865632D01*
X7400391Y-868070D01*
X7424877Y-868273D01*
X7427671Y-866749D01*
X7430160Y-863752D01*
X7430566Y-735431D01*
X7432395Y-732434D01*
X7435443Y-730554D01*
X7459776Y-730554D01*
X7462774Y-732434D01*
X7464602Y-735431D01*
X7465009Y-760272D01*
X7467498Y-763320D01*
X7470292Y-764844D01*
X7493863Y-764844D01*
X7496657Y-763320D01*
X7499096Y-760272D01*
X7499502Y-735431D01*
X7501381Y-732434D01*
X7504379Y-730554D01*
X7529118Y-730148D01*
X7531709Y-728268D01*
X7533589Y-725678D01*
X7533995Y-666445D01*
X7535875Y-663448D01*
X7538872Y-661619D01*
X7563713Y-661162D01*
X7566761Y-658723D01*
X7568285Y-655929D01*
X7568285Y-632358D01*
X7566761Y-629564D01*
X7563713Y-627126D01*
X7469886Y-626719D01*
X7466888Y-624840D01*
X7465009Y-621842D01*
X7464602Y-596950D01*
X7462164Y-593953D01*
X7459370Y-592429D01*
G37*
G36*
X7125512Y-626922D02*
G01*
X7123074Y-628040D01*
X7120890Y-630377D01*
X7120026Y-632663D01*
X7120026Y-831342D01*
X7154722Y-831342D01*
X7154722Y-663905D01*
X7156297Y-662127D01*
X7157923Y-661416D01*
X7324445Y-661619D01*
X7326680Y-663854D01*
X7326680Y-831342D01*
X7324445Y-833577D01*
X7156958Y-833577D01*
X7154722Y-831342D01*
X7120026Y-831342D01*
X7120026Y-862634D01*
X7121144Y-865225D01*
X7123480Y-867410D01*
X7125766Y-868273D01*
X7355738Y-868273D01*
X7358329Y-867156D01*
X7360513Y-864819D01*
X7361377Y-862533D01*
X7361377Y-632663D01*
X7360513Y-630377D01*
X7358329Y-628040D01*
X7355738Y-626922D01*
G37*
G36*
X7711643Y-626922D02*
G01*
X7708849Y-628396D01*
X7706410Y-631444D01*
X7706410Y-656844D01*
X7708849Y-659892D01*
X7711643Y-661416D01*
X7735214Y-661416D01*
X7738008Y-659892D01*
X7740497Y-656844D01*
X7740497Y-631444D01*
X7738008Y-628396D01*
X7735214Y-626922D01*
G37*
G36*
X7884058Y-626922D02*
G01*
X7881264Y-628396D01*
X7878825Y-631444D01*
X7878825Y-656844D01*
X7881264Y-659892D01*
X7884058Y-661416D01*
X7907629Y-661416D01*
X7910423Y-659892D01*
X7912862Y-656844D01*
X7912862Y-631444D01*
X7910423Y-628396D01*
X7907629Y-626922D01*
G37*
G36*
X7677200Y-661365D02*
G01*
X7674356Y-662889D01*
X7671917Y-665937D01*
X7671511Y-690778D01*
X7669631Y-693826D01*
X7666634Y-695655D01*
X7641894Y-696061D01*
X7639303Y-697941D01*
X7637424Y-700532D01*
X7637018Y-725271D01*
X7635189Y-728268D01*
X7632192Y-730148D01*
X7538313Y-730554D01*
X7535316Y-732993D01*
X7533792Y-735838D01*
X7533792Y-759358D01*
X7535316Y-762203D01*
X7538313Y-764641D01*
X7563205Y-765048D01*
X7566202Y-766927D01*
X7568082Y-769924D01*
X7568082Y-794258D01*
X7566202Y-797255D01*
X7563205Y-799134D01*
X7538313Y-799541D01*
X7535316Y-801979D01*
X7533792Y-804773D01*
X7533792Y-862837D01*
X7535316Y-865632D01*
X7538313Y-868070D01*
X7562799Y-868273D01*
X7565593Y-866749D01*
X7568082Y-863752D01*
X7568488Y-838860D01*
X7570368Y-835863D01*
X7573365Y-833983D01*
X7598105Y-833577D01*
X7600696Y-831748D01*
X7602575Y-829157D01*
X7602981Y-804367D01*
X7604810Y-801370D01*
X7607808Y-799541D01*
X7632547Y-799134D01*
X7635189Y-797255D01*
X7637018Y-794664D01*
X7637424Y-769924D01*
X7639303Y-766927D01*
X7642301Y-765048D01*
X7667040Y-764641D01*
X7669631Y-762762D01*
X7671511Y-760171D01*
X7671917Y-735431D01*
X7673797Y-732434D01*
X7676794Y-730554D01*
X7701686Y-730148D01*
X7704683Y-727710D01*
X7706207Y-724916D01*
X7706207Y-666851D01*
X7704683Y-664057D01*
X7701686Y-661619D01*
G37*
G36*
X7608214Y-661416D02*
G01*
X7605420Y-662889D01*
X7602981Y-665937D01*
X7602981Y-691337D01*
X7605420Y-694385D01*
X7608214Y-695858D01*
X7631785Y-695858D01*
X7634579Y-694385D01*
X7637018Y-691337D01*
X7637018Y-665937D01*
X7634579Y-662889D01*
X7631785Y-661416D01*
G37*
G36*
X7286955Y-695858D02*
G01*
X7194448Y-695909D01*
X7192009Y-696976D01*
X7189825Y-699312D01*
X7188962Y-701598D01*
X7188962Y-793648D01*
X7190079Y-796290D01*
X7192416Y-798474D01*
X7194702Y-799338D01*
X7286955Y-799338D01*
X7289749Y-797814D01*
X7292238Y-794766D01*
X7292238Y-700430D01*
X7289749Y-697382D01*
G37*
G36*
X7746136Y-730351D02*
G01*
X7743342Y-731875D01*
X7740903Y-734872D01*
X7740903Y-760272D01*
X7743342Y-763320D01*
X7746136Y-764844D01*
X7769707Y-764844D01*
X7772501Y-763320D01*
X7774940Y-760272D01*
X7774940Y-734872D01*
X7772501Y-731875D01*
X7769707Y-730351D01*
G37*
G36*
X7711643Y-764844D02*
G01*
X7708849Y-766318D01*
X7706410Y-769366D01*
X7706410Y-794766D01*
X7708849Y-797814D01*
X7711643Y-799338D01*
X7735214Y-799338D01*
X7738008Y-797814D01*
X7740497Y-794766D01*
X7740497Y-769366D01*
X7738008Y-766318D01*
X7735214Y-764844D01*
G37*
G36*
X7780629Y-764844D02*
G01*
X7777835Y-766318D01*
X7775346Y-769366D01*
X7775346Y-794766D01*
X7777835Y-797814D01*
X7780629Y-799338D01*
X7804200Y-799338D01*
X7806994Y-797814D01*
X7809433Y-794766D01*
X7809433Y-769366D01*
X7806994Y-766318D01*
X7804200Y-764844D01*
G37*
G36*
X8021980Y-764844D02*
G01*
X8019186Y-766318D01*
X8016748Y-769366D01*
X8016341Y-794258D01*
X8014462Y-797255D01*
X8011464Y-799134D01*
X7986725Y-799541D01*
X7984134Y-801370D01*
X7982254Y-803960D01*
X7981848Y-828700D01*
X7979968Y-831748D01*
X7976971Y-833577D01*
X7952130Y-833983D01*
X7949082Y-836472D01*
X7947558Y-839266D01*
X7947761Y-863752D01*
X7950250Y-866749D01*
X7953044Y-868273D01*
X8045551Y-868273D01*
X8048345Y-866749D01*
X8050834Y-863752D01*
X8051241Y-804367D01*
X8053070Y-801370D01*
X8056067Y-799541D01*
X8080959Y-799134D01*
X8084007Y-796645D01*
X8085531Y-793851D01*
X8085277Y-769366D01*
X8082838Y-766318D01*
X8080044Y-764844D01*
G37*
G36*
X7677200Y-799338D02*
G01*
X7674356Y-800811D01*
X7671917Y-803859D01*
X7671917Y-829259D01*
X7674356Y-832307D01*
X7677200Y-833780D01*
X7700721Y-833780D01*
X7703566Y-832307D01*
X7706004Y-829259D01*
X7706004Y-803859D01*
X7703566Y-800811D01*
X7700721Y-799338D01*
G37*
G36*
X8090966Y-799338D02*
G01*
X8088172Y-800811D01*
X8085683Y-803859D01*
X8085683Y-829259D01*
X8088172Y-832307D01*
X8090966Y-833780D01*
X8114538Y-833780D01*
X8117331Y-832307D01*
X8119770Y-829259D01*
X8119770Y-803859D01*
X8117331Y-800811D01*
X8114538Y-799338D01*
G37*
G36*
X7608214Y-833780D02*
G01*
X7605420Y-835304D01*
X7602981Y-838352D01*
X7602981Y-863752D01*
X7605420Y-866749D01*
X7608214Y-868273D01*
X7666278Y-868273D01*
X7669072Y-866749D01*
X7671511Y-863752D01*
X7671511Y-838352D01*
X7669072Y-835304D01*
X7666278Y-833780D01*
G37*
G36*
X6105144Y-2536698D02*
G01*
X6102146Y-2537155D01*
X6099251Y-2538730D01*
X6096304Y-2541625D01*
X6093206Y-2546096D01*
X6083249Y-2561793D01*
X6073902Y-2577084D01*
X6078474Y-2580640D01*
X6105398Y-2557018D01*
X6109309Y-2553208D01*
X6111697Y-2550109D01*
X6112916Y-2547467D01*
X6113272Y-2545080D01*
X6112560Y-2541320D01*
X6110732Y-2538679D01*
X6108141Y-2537206D01*
G37*
G36*
X4956810Y-2540508D02*
G01*
X4922520Y-2549906D01*
X4922520Y-2556510D01*
X4941316Y-2558288D01*
X4941316Y-2611120D01*
X4934204Y-2604160D01*
X4926939Y-2599690D01*
X4919522Y-2597353D01*
X4911852Y-2596642D01*
X4906822Y-2596896D01*
X4901946Y-2597658D01*
X4897272Y-2598928D01*
X4892852Y-2600655D01*
X4888687Y-2602839D01*
X4884775Y-2605430D01*
X4881118Y-2608529D01*
X4877816Y-2612034D01*
X4874818Y-2615895D01*
X4872126Y-2620162D01*
X4869840Y-2624836D01*
X4867910Y-2629865D01*
X4866386Y-2635250D01*
X4865268Y-2640939D01*
X4864608Y-2646934D01*
X4864374Y-2652776D01*
X4883912Y-2652776D01*
X4884216Y-2645156D01*
X4885080Y-2638348D01*
X4886502Y-2632252D01*
X4888382Y-2626918D01*
X4890668Y-2622245D01*
X4893411Y-2618282D01*
X4896459Y-2614980D01*
X4899863Y-2612339D01*
X4903520Y-2610358D01*
X4907381Y-2608935D01*
X4911445Y-2608072D01*
X4915662Y-2607818D01*
X4921300Y-2608376D01*
X4927295Y-2610307D01*
X4933746Y-2613914D01*
X4940808Y-2619502D01*
X4940808Y-2684018D01*
X4934559Y-2689910D01*
X4928463Y-2693771D01*
X4922215Y-2695854D01*
X4915408Y-2696464D01*
X4910988Y-2696210D01*
X4906822Y-2695346D01*
X4902860Y-2693974D01*
X4899202Y-2691942D01*
X4895900Y-2689352D01*
X4892903Y-2686151D01*
X4890262Y-2682290D01*
X4888077Y-2677769D01*
X4886299Y-2672588D01*
X4884978Y-2666695D01*
X4884166Y-2660091D01*
X4883912Y-2652776D01*
X4864374Y-2652776D01*
X4864709Y-2661208D01*
X4865878Y-2668625D01*
X4867656Y-2675534D01*
X4870145Y-2681884D01*
X4873294Y-2687675D01*
X4877003Y-2692806D01*
X4881321Y-2697226D01*
X4886147Y-2700985D01*
X4891481Y-2703931D01*
X4897272Y-2706116D01*
X4903470Y-2707436D01*
X4910074Y-2707894D01*
X4919624Y-2706827D01*
X4927904Y-2703728D01*
X4935016Y-2698800D01*
X4941316Y-2692146D01*
X4942586Y-2707386D01*
X4977130Y-2705100D01*
X4977130Y-2698242D01*
X4959096Y-2696210D01*
X4959096Y-2573782D01*
X4959604Y-2542032D01*
G37*
G36*
X5746242Y-2540508D02*
G01*
X5711952Y-2549906D01*
X5711952Y-2556510D01*
X5729986Y-2558288D01*
X5729732Y-2695702D01*
X5711952Y-2698242D01*
X5711952Y-2705100D01*
X5766562Y-2705100D01*
X5766562Y-2698242D01*
X5748782Y-2695702D01*
X5748274Y-2658364D01*
X5748274Y-2573782D01*
X5749290Y-2542032D01*
G37*
G36*
X5673090Y-2543810D02*
G01*
X5667400Y-2544775D01*
X5662828Y-2547518D01*
X5659729Y-2551734D01*
X5658612Y-2557272D01*
X5659729Y-2562860D01*
X5662777Y-2567330D01*
X5667400Y-2570226D01*
X5673090Y-2571242D01*
X5678627Y-2570226D01*
X5683148Y-2567279D01*
X5686196Y-2562860D01*
X5687314Y-2557272D01*
X5686196Y-2551734D01*
X5683148Y-2547518D01*
X5678627Y-2544775D01*
G37*
G36*
X5415788Y-2555240D02*
G01*
X5384498Y-2646934D01*
X5393690Y-2646934D01*
X5416550Y-2577846D01*
X5439664Y-2646934D01*
X5384498Y-2646934D01*
X5368290Y-2694432D01*
X5350256Y-2697480D01*
X5350256Y-2705100D01*
X5399786Y-2705100D01*
X5399786Y-2697480D01*
X5378196Y-2694432D01*
X5390896Y-2655824D01*
X5442458Y-2655824D01*
X5455412Y-2694686D01*
X5433568Y-2697480D01*
X5433568Y-2705100D01*
X5494020Y-2705100D01*
X5494020Y-2697480D01*
X5476748Y-2695448D01*
X5428742Y-2555240D01*
G37*
G36*
X4607306Y-2556256D02*
G01*
X4607306Y-2563876D01*
X4628134Y-2566162D01*
X4628388Y-2602941D01*
X4628134Y-2695194D01*
X4607306Y-2697480D01*
X4607306Y-2705100D01*
X4669536Y-2705100D01*
X4669536Y-2697480D01*
X4648708Y-2694940D01*
X4648250Y-2673400D01*
X4648200Y-2653538D01*
X4670298Y-2626868D01*
X4707128Y-2695194D01*
X4688586Y-2697480D01*
X4688586Y-2705100D01*
X4745736Y-2705100D01*
X4745736Y-2697480D01*
X4728464Y-2695448D01*
X4682236Y-2612390D01*
X4720082Y-2566416D01*
X4741164Y-2563876D01*
X4741164Y-2556256D01*
X4690364Y-2556256D01*
X4690364Y-2563876D01*
X4707890Y-2566924D01*
X4648200Y-2640584D01*
X4648301Y-2588056D01*
X4648708Y-2566162D01*
X4669790Y-2563876D01*
X4669790Y-2556256D01*
G37*
G36*
X5958586Y-2556256D02*
G01*
X5958586Y-2563876D01*
X5981446Y-2566162D01*
X5983224Y-2700782D01*
X5982614Y-2711551D01*
X5980734Y-2720086D01*
X5977636Y-2726690D01*
X5973318Y-2731770D01*
X5967476Y-2726690D01*
X5963158Y-2723591D01*
X5959195Y-2721457D01*
X5955385Y-2720238D01*
X5951474Y-2719832D01*
X5946648Y-2720441D01*
X5942634Y-2722321D01*
X5939688Y-2725724D01*
X5938012Y-2730754D01*
X5940907Y-2735681D01*
X5945378Y-2738780D01*
X5951016Y-2740456D01*
X5957316Y-2740914D01*
X5961989Y-2740660D01*
X5966612Y-2739948D01*
X5971133Y-2738678D01*
X5975502Y-2737002D01*
X5979668Y-2734818D01*
X5983579Y-2732176D01*
X5987186Y-2729026D01*
X5990437Y-2725470D01*
X5993282Y-2721406D01*
X5995670Y-2716936D01*
X5997600Y-2712008D01*
X5999835Y-2702407D01*
X6001054Y-2693162D01*
X6001715Y-2682036D01*
X6001969Y-2667762D01*
X6002070Y-2595321D01*
X6002528Y-2566162D01*
X6023356Y-2563876D01*
X6023356Y-2556256D01*
G37*
G36*
X5519674Y-2568956D02*
G01*
X5513832Y-2598928D01*
X5494020Y-2601468D01*
X5494020Y-2609342D01*
X5512816Y-2609342D01*
X5512562Y-2681986D01*
X5513019Y-2688183D01*
X5514289Y-2693517D01*
X5516372Y-2697988D01*
X5519216Y-2701594D01*
X5522823Y-2704388D01*
X5527141Y-2706370D01*
X5532120Y-2707487D01*
X5537708Y-2707894D01*
X5545785Y-2707132D01*
X5552846Y-2704846D01*
X5558840Y-2701239D01*
X5563616Y-2696464D01*
X5559044Y-2691384D01*
X5554929Y-2694178D01*
X5551220Y-2696159D01*
X5547614Y-2697327D01*
X5543804Y-2697734D01*
X5538520Y-2696819D01*
X5534507Y-2693873D01*
X5531967Y-2688742D01*
X5531104Y-2681224D01*
X5531104Y-2609342D01*
X5561076Y-2609342D01*
X5561076Y-2599690D01*
X5531358Y-2599690D01*
X5532628Y-2568956D01*
G37*
G36*
X5594096Y-2568956D02*
G01*
X5588254Y-2598928D01*
X5568188Y-2601468D01*
X5568188Y-2609342D01*
X5587238Y-2609342D01*
X5586984Y-2681986D01*
X5587441Y-2688183D01*
X5588711Y-2693517D01*
X5590794Y-2697988D01*
X5593638Y-2701594D01*
X5597245Y-2704388D01*
X5601563Y-2706370D01*
X5606542Y-2707487D01*
X5612130Y-2707894D01*
X5620156Y-2707132D01*
X5627166Y-2704846D01*
X5633110Y-2701239D01*
X5638038Y-2696464D01*
X5633466Y-2691384D01*
X5629351Y-2694178D01*
X5625642Y-2696159D01*
X5622036Y-2697327D01*
X5618226Y-2697734D01*
X5612942Y-2696819D01*
X5608929Y-2693873D01*
X5606389Y-2688742D01*
X5605526Y-2681224D01*
X5605526Y-2609342D01*
X5635498Y-2609342D01*
X5635498Y-2599690D01*
X5605780Y-2599690D01*
X5606796Y-2568956D01*
G37*
G36*
X4802378Y-2596642D02*
G01*
X4797298Y-2596896D01*
X4792319Y-2597658D01*
X4787493Y-2598928D01*
X4782820Y-2600655D01*
X4778400Y-2602788D01*
X4774184Y-2605430D01*
X4770221Y-2608478D01*
X4766564Y-2611983D01*
X4763211Y-2615844D01*
X4760264Y-2620111D01*
X4757623Y-2624734D01*
X4755438Y-2629763D01*
X4753660Y-2635097D01*
X4752390Y-2640787D01*
X4752105Y-2642870D01*
X4771136Y-2642870D01*
X4772558Y-2633675D01*
X4774946Y-2625801D01*
X4778146Y-2619298D01*
X4782058Y-2614066D01*
X4786477Y-2610053D01*
X4791303Y-2607208D01*
X4796282Y-2605582D01*
X4801362Y-2605024D01*
X4806594Y-2605582D01*
X4811318Y-2607157D01*
X4815535Y-2609596D01*
X4819091Y-2612847D01*
X4822037Y-2616708D01*
X4824171Y-2621076D01*
X4825542Y-2625902D01*
X4826000Y-2630932D01*
X4825492Y-2635961D01*
X4823663Y-2639923D01*
X4820005Y-2642463D01*
X4814062Y-2643378D01*
X4771136Y-2642870D01*
X4752105Y-2642870D01*
X4751578Y-2646730D01*
X4751324Y-2653030D01*
X4751578Y-2659380D01*
X4752238Y-2665374D01*
X4753406Y-2671013D01*
X4754981Y-2676296D01*
X4756962Y-2681173D01*
X4759350Y-2685694D01*
X4762093Y-2689809D01*
X4765243Y-2693517D01*
X4768697Y-2696819D01*
X4772507Y-2699715D01*
X4776673Y-2702153D01*
X4781092Y-2704236D01*
X4785868Y-2705811D01*
X4790846Y-2706979D01*
X4796129Y-2707640D01*
X4801616Y-2707894D01*
X4808778Y-2707436D01*
X4815433Y-2706116D01*
X4821529Y-2704033D01*
X4827066Y-2701086D01*
X4832096Y-2697429D01*
X4836566Y-2693111D01*
X4840427Y-2688082D01*
X4843780Y-2682494D01*
X4839208Y-2679446D01*
X4833061Y-2685999D01*
X4826050Y-2691079D01*
X4817872Y-2694279D01*
X4807966Y-2695448D01*
X4802632Y-2695143D01*
X4797653Y-2694228D01*
X4793030Y-2692704D01*
X4788763Y-2690520D01*
X4784902Y-2687777D01*
X4781448Y-2684373D01*
X4778400Y-2680411D01*
X4775860Y-2675788D01*
X4773828Y-2670606D01*
X4772304Y-2664764D01*
X4771288Y-2658313D01*
X4770882Y-2651252D01*
X4842510Y-2651506D01*
X4843678Y-2646070D01*
X4844034Y-2639060D01*
X4843678Y-2632710D01*
X4842611Y-2626817D01*
X4840935Y-2621381D01*
X4838598Y-2616454D01*
X4835702Y-2611983D01*
X4832248Y-2608021D01*
X4828286Y-2604668D01*
X4823917Y-2601823D01*
X4819091Y-2599588D01*
X4813858Y-2597962D01*
X4808270Y-2596997D01*
G37*
G36*
X5148072Y-2596642D02*
G01*
X5142992Y-2596896D01*
X5138013Y-2597658D01*
X5133187Y-2598928D01*
X5128514Y-2600655D01*
X5124094Y-2602788D01*
X5119878Y-2605430D01*
X5115915Y-2608478D01*
X5112258Y-2611983D01*
X5108905Y-2615844D01*
X5105958Y-2620111D01*
X5103317Y-2624734D01*
X5101132Y-2629763D01*
X5099354Y-2635097D01*
X5098084Y-2640787D01*
X5097799Y-2642870D01*
X5116830Y-2642870D01*
X5118201Y-2633675D01*
X5120589Y-2625801D01*
X5123789Y-2619298D01*
X5127650Y-2614066D01*
X5132070Y-2610053D01*
X5136845Y-2607208D01*
X5141925Y-2605582D01*
X5147056Y-2605024D01*
X5152288Y-2605582D01*
X5157012Y-2607157D01*
X5161229Y-2609596D01*
X5164785Y-2612847D01*
X5167731Y-2616708D01*
X5169865Y-2621076D01*
X5171236Y-2625902D01*
X5171694Y-2630932D01*
X5171186Y-2635961D01*
X5169357Y-2639923D01*
X5165699Y-2642463D01*
X5159756Y-2643378D01*
X5116830Y-2642870D01*
X5097799Y-2642870D01*
X5097272Y-2646730D01*
X5097018Y-2653030D01*
X5097272Y-2659380D01*
X5097932Y-2665374D01*
X5099100Y-2671013D01*
X5100675Y-2676296D01*
X5102656Y-2681173D01*
X5105044Y-2685694D01*
X5107787Y-2689809D01*
X5110937Y-2693517D01*
X5114391Y-2696819D01*
X5118201Y-2699715D01*
X5122367Y-2702153D01*
X5126786Y-2704236D01*
X5131562Y-2705811D01*
X5136540Y-2706979D01*
X5141823Y-2707640D01*
X5147310Y-2707894D01*
X5154371Y-2707436D01*
X5160975Y-2706116D01*
X5167020Y-2704033D01*
X5172557Y-2701086D01*
X5177536Y-2697429D01*
X5182006Y-2693111D01*
X5185867Y-2688082D01*
X5189220Y-2682494D01*
X5184902Y-2679446D01*
X5178755Y-2685999D01*
X5171744Y-2691079D01*
X5163566Y-2694279D01*
X5153660Y-2695448D01*
X5148326Y-2695143D01*
X5143347Y-2694228D01*
X5138724Y-2692704D01*
X5134457Y-2690520D01*
X5130596Y-2687777D01*
X5127091Y-2684373D01*
X5124094Y-2680411D01*
X5121554Y-2675788D01*
X5119522Y-2670606D01*
X5117998Y-2664764D01*
X5116982Y-2658313D01*
X5116576Y-2651252D01*
X5188204Y-2651506D01*
X5189372Y-2646070D01*
X5189728Y-2639060D01*
X5189372Y-2632710D01*
X5188305Y-2626817D01*
X5186578Y-2621381D01*
X5184241Y-2616454D01*
X5181295Y-2611983D01*
X5177840Y-2608021D01*
X5173878Y-2604668D01*
X5169458Y-2601823D01*
X5164632Y-2599588D01*
X5159451Y-2597962D01*
X5153914Y-2596997D01*
G37*
G36*
X5250942Y-2596642D02*
G01*
X5242052Y-2597302D01*
X5234279Y-2599182D01*
X5227574Y-2602077D01*
X5222087Y-2605938D01*
X5217769Y-2610561D01*
X5214620Y-2615844D01*
X5212740Y-2621534D01*
X5212080Y-2627630D01*
X5212588Y-2633065D01*
X5214010Y-2637942D01*
X5216347Y-2642260D01*
X5219496Y-2646172D01*
X5223408Y-2649626D01*
X5228031Y-2652725D01*
X5233365Y-2655417D01*
X5239258Y-2657856D01*
X5249672Y-2661158D01*
X5259120Y-2665323D01*
X5265623Y-2669794D01*
X5269331Y-2675026D01*
X5270500Y-2681478D01*
X5270093Y-2685338D01*
X5268976Y-2688793D01*
X5266994Y-2691892D01*
X5264251Y-2694482D01*
X5260644Y-2696616D01*
X5256225Y-2698191D01*
X5250992Y-2699156D01*
X5244846Y-2699512D01*
X5239715Y-2699258D01*
X5235041Y-2698546D01*
X5230672Y-2697378D01*
X5226558Y-2695702D01*
X5221732Y-2675128D01*
X5211064Y-2675128D01*
X5211572Y-2699512D01*
X5219598Y-2703169D01*
X5227574Y-2705811D01*
X5235956Y-2707386D01*
X5245100Y-2707894D01*
X5251856Y-2707589D01*
X5258054Y-2706725D01*
X5263692Y-2705354D01*
X5268772Y-2703525D01*
X5273243Y-2701188D01*
X5277154Y-2698496D01*
X5280456Y-2695448D01*
X5283149Y-2692044D01*
X5285282Y-2688386D01*
X5286806Y-2684475D01*
X5287721Y-2680411D01*
X5288026Y-2676144D01*
X5287619Y-2671064D01*
X5286349Y-2666339D01*
X5284216Y-2661869D01*
X5281066Y-2657754D01*
X5276900Y-2653944D01*
X5271617Y-2650388D01*
X5265216Y-2647137D01*
X5249926Y-2641346D01*
X5240324Y-2637282D01*
X5233873Y-2633065D01*
X5230266Y-2628036D01*
X5229098Y-2621534D01*
X5230520Y-2614930D01*
X5234686Y-2609799D01*
X5241544Y-2606446D01*
X5250942Y-2605278D01*
X5254955Y-2605532D01*
X5258968Y-2606344D01*
X5262930Y-2607614D01*
X5266944Y-2609342D01*
X5271262Y-2628392D01*
X5281168Y-2628392D01*
X5281930Y-2605786D01*
X5274716Y-2601874D01*
X5267299Y-2599029D01*
X5259476Y-2597251D01*
G37*
G36*
X5827268Y-2596642D02*
G01*
X5818936Y-2597099D01*
X5811316Y-2598521D01*
X5804458Y-2600858D01*
X5798413Y-2603957D01*
X5793333Y-2607919D01*
X5789168Y-2612593D01*
X5786069Y-2618028D01*
X5784088Y-2624074D01*
X5785002Y-2627630D01*
X5786932Y-2630271D01*
X5789930Y-2631897D01*
X5793994Y-2632456D01*
X5797956Y-2631846D01*
X5801106Y-2629966D01*
X5803493Y-2626766D01*
X5805170Y-2622296D01*
X5809488Y-2607056D01*
X5816041Y-2605582D01*
X5822188Y-2605024D01*
X5827420Y-2605328D01*
X5831840Y-2606294D01*
X5835548Y-2608021D01*
X5838494Y-2610662D01*
X5840730Y-2614371D01*
X5842304Y-2619146D01*
X5843219Y-2625242D01*
X5843524Y-2632710D01*
X5843524Y-2639568D01*
X5836666Y-2641193D01*
X5823610Y-2645003D01*
X5817870Y-2646934D01*
X5807913Y-2650794D01*
X5799785Y-2654655D01*
X5793384Y-2658567D01*
X5788507Y-2662580D01*
X5785002Y-2666746D01*
X5782665Y-2671114D01*
X5781446Y-2675737D01*
X5781288Y-2677668D01*
X5799836Y-2677668D01*
X5800039Y-2674620D01*
X5800699Y-2671521D01*
X5801969Y-2668371D01*
X5804052Y-2665272D01*
X5807049Y-2662224D01*
X5811062Y-2659176D01*
X5816346Y-2656179D01*
X5822950Y-2653284D01*
X5831992Y-2650083D01*
X5843524Y-2646680D01*
X5843524Y-2681986D01*
X5835396Y-2688082D01*
X5829096Y-2692095D01*
X5823661Y-2694279D01*
X5818124Y-2694940D01*
X5810859Y-2693924D01*
X5805068Y-2690774D01*
X5801207Y-2685389D01*
X5799836Y-2677668D01*
X5781288Y-2677668D01*
X5781040Y-2680716D01*
X5781649Y-2686964D01*
X5783376Y-2692450D01*
X5786069Y-2697124D01*
X5789676Y-2700985D01*
X5794044Y-2703982D01*
X5799023Y-2706166D01*
X5804560Y-2707436D01*
X5810504Y-2707894D01*
X5815279Y-2707640D01*
X5819648Y-2706776D01*
X5823712Y-2705404D01*
X5827623Y-2703474D01*
X5831433Y-2700985D01*
X5835345Y-2697937D01*
X5843778Y-2690114D01*
X5846114Y-2697327D01*
X5850280Y-2702864D01*
X5856224Y-2706420D01*
X5863844Y-2707640D01*
X5869330Y-2707030D01*
X5874308Y-2705049D01*
X5878830Y-2701544D01*
X5882894Y-2696210D01*
X5878830Y-2691892D01*
X5876747Y-2694279D01*
X5874664Y-2696006D01*
X5872429Y-2697124D01*
X5869940Y-2697480D01*
X5866536Y-2696718D01*
X5863945Y-2694279D01*
X5862370Y-2689860D01*
X5861812Y-2683256D01*
X5861812Y-2634742D01*
X5861558Y-2628188D01*
X5860897Y-2622296D01*
X5859678Y-2617114D01*
X5858052Y-2612542D01*
X5855919Y-2608630D01*
X5853277Y-2605328D01*
X5850178Y-2602585D01*
X5846622Y-2600350D01*
X5842508Y-2598724D01*
X5837936Y-2597556D01*
X5832856Y-2596845D01*
G37*
G36*
X6081268Y-2596642D02*
G01*
X6073038Y-2597099D01*
X6065469Y-2598521D01*
X6058662Y-2600858D01*
X6052667Y-2603957D01*
X6047587Y-2607919D01*
X6043422Y-2612593D01*
X6040323Y-2618028D01*
X6038342Y-2624074D01*
X6039256Y-2627630D01*
X6041186Y-2630271D01*
X6044184Y-2631897D01*
X6048248Y-2632456D01*
X6052108Y-2631846D01*
X6055258Y-2629966D01*
X6057696Y-2626766D01*
X6059424Y-2622296D01*
X6063742Y-2607056D01*
X6070244Y-2605582D01*
X6076188Y-2605024D01*
X6081471Y-2605328D01*
X6085941Y-2606294D01*
X6089650Y-2608021D01*
X6092545Y-2610662D01*
X6094780Y-2614371D01*
X6096355Y-2619146D01*
X6097219Y-2625242D01*
X6097524Y-2632710D01*
X6097524Y-2639568D01*
X6090818Y-2641193D01*
X6077864Y-2645003D01*
X6072124Y-2646934D01*
X6062167Y-2650794D01*
X6054039Y-2654655D01*
X6047638Y-2658567D01*
X6042761Y-2662580D01*
X6039256Y-2666746D01*
X6036919Y-2671114D01*
X6035700Y-2675737D01*
X6035542Y-2677668D01*
X6054090Y-2677668D01*
X6054293Y-2674620D01*
X6054953Y-2671521D01*
X6056223Y-2668371D01*
X6058306Y-2665272D01*
X6061303Y-2662224D01*
X6065316Y-2659176D01*
X6070600Y-2656179D01*
X6077204Y-2653284D01*
X6086195Y-2650083D01*
X6097524Y-2646680D01*
X6097524Y-2681986D01*
X6089548Y-2688082D01*
X6083300Y-2692095D01*
X6077813Y-2694279D01*
X6072124Y-2694940D01*
X6065012Y-2693924D01*
X6059322Y-2690774D01*
X6055461Y-2685389D01*
X6054090Y-2677668D01*
X6035542Y-2677668D01*
X6035294Y-2680716D01*
X6035903Y-2686964D01*
X6037630Y-2692450D01*
X6040323Y-2697124D01*
X6043930Y-2700985D01*
X6048298Y-2703982D01*
X6053277Y-2706166D01*
X6058814Y-2707436D01*
X6064758Y-2707894D01*
X6069533Y-2707640D01*
X6073902Y-2706776D01*
X6077966Y-2705404D01*
X6081877Y-2703474D01*
X6085687Y-2700985D01*
X6089599Y-2697937D01*
X6098032Y-2690114D01*
X6100318Y-2697327D01*
X6104534Y-2702864D01*
X6110376Y-2706420D01*
X6117844Y-2707640D01*
X6123482Y-2707030D01*
X6128562Y-2705049D01*
X6133084Y-2701544D01*
X6137148Y-2696210D01*
X6133084Y-2691892D01*
X6130899Y-2694279D01*
X6128816Y-2696006D01*
X6126530Y-2697124D01*
X6123940Y-2697480D01*
X6120536Y-2696718D01*
X6117945Y-2694279D01*
X6116370Y-2689860D01*
X6115812Y-2683256D01*
X6115812Y-2634742D01*
X6115558Y-2628188D01*
X6114897Y-2622296D01*
X6113678Y-2617114D01*
X6112052Y-2612542D01*
X6109919Y-2608630D01*
X6107277Y-2605328D01*
X6104178Y-2602585D01*
X6100622Y-2600350D01*
X6096508Y-2598724D01*
X6091936Y-2597556D01*
X6086856Y-2596845D01*
G37*
G36*
X6221476Y-2596642D02*
G01*
X6216192Y-2596997D01*
X6210909Y-2598064D01*
X6205677Y-2599791D01*
X6200444Y-2602179D01*
X6195364Y-2605125D01*
X6190488Y-2608630D01*
X6185763Y-2612694D01*
X6181344Y-2617216D01*
X6179566Y-2598928D01*
X6176518Y-2596896D01*
X6145276Y-2609088D01*
X6145276Y-2615692D01*
X6162802Y-2617470D01*
X6163360Y-2630728D01*
X6163564Y-2646680D01*
X6163056Y-2695702D01*
X6146546Y-2698242D01*
X6146546Y-2705100D01*
X6197854Y-2705100D01*
X6197854Y-2698242D01*
X6182360Y-2695702D01*
X6181852Y-2658364D01*
X6181852Y-2625344D01*
X6190284Y-2618638D01*
X6198158Y-2614066D01*
X6205677Y-2611424D01*
X6213094Y-2610612D01*
X6217615Y-2610967D01*
X6221476Y-2611983D01*
X6224676Y-2613863D01*
X6227216Y-2616555D01*
X6229197Y-2620213D01*
X6230569Y-2624886D01*
X6231382Y-2630627D01*
X6231636Y-2637536D01*
X6231585Y-2667101D01*
X6231128Y-2695702D01*
X6214618Y-2698242D01*
X6214618Y-2705100D01*
X6265926Y-2705100D01*
X6265926Y-2698242D01*
X6250178Y-2695702D01*
X6249924Y-2637028D01*
X6249466Y-2627071D01*
X6248146Y-2618587D01*
X6245860Y-2611628D01*
X6242761Y-2606090D01*
X6238748Y-2601874D01*
X6233871Y-2598928D01*
X6228080Y-2597200D01*
G37*
G36*
X6333490Y-2596642D02*
G01*
X6328664Y-2596845D01*
X6323838Y-2597556D01*
X6319164Y-2598674D01*
X6314592Y-2600248D01*
X6310172Y-2602230D01*
X6305956Y-2604668D01*
X6301943Y-2607564D01*
X6298234Y-2610916D01*
X6294831Y-2614625D01*
X6291783Y-2618841D01*
X6289040Y-2623413D01*
X6286754Y-2628442D01*
X6284925Y-2633929D01*
X6283553Y-2639771D01*
X6282740Y-2646070D01*
X6282436Y-2652776D01*
X6302756Y-2652776D01*
X6303010Y-2645308D01*
X6303670Y-2638501D01*
X6304788Y-2632252D01*
X6306362Y-2626614D01*
X6308394Y-2621635D01*
X6310782Y-2617266D01*
X6313627Y-2613558D01*
X6316827Y-2610510D01*
X6320434Y-2608122D01*
X6324447Y-2606395D01*
X6328765Y-2605379D01*
X6333490Y-2605024D01*
X6338163Y-2605379D01*
X6342481Y-2606395D01*
X6346444Y-2608122D01*
X6350050Y-2610510D01*
X6353251Y-2613558D01*
X6356096Y-2617266D01*
X6358534Y-2621635D01*
X6360566Y-2626614D01*
X6362141Y-2632252D01*
X6363309Y-2638501D01*
X6363970Y-2645308D01*
X6364224Y-2652776D01*
X6363970Y-2660091D01*
X6363309Y-2666796D01*
X6362141Y-2672943D01*
X6360566Y-2678430D01*
X6358534Y-2683306D01*
X6356096Y-2687574D01*
X6353251Y-2691180D01*
X6350050Y-2694178D01*
X6346444Y-2696514D01*
X6342481Y-2698191D01*
X6338163Y-2699156D01*
X6333490Y-2699512D01*
X6328765Y-2699156D01*
X6324447Y-2698191D01*
X6320434Y-2696514D01*
X6316827Y-2694178D01*
X6313627Y-2691180D01*
X6310782Y-2687574D01*
X6308394Y-2683306D01*
X6306362Y-2678430D01*
X6304788Y-2672943D01*
X6303670Y-2666796D01*
X6303010Y-2660091D01*
X6302756Y-2652776D01*
X6282436Y-2652776D01*
X6282740Y-2659430D01*
X6283553Y-2665628D01*
X6284925Y-2671419D01*
X6286754Y-2676804D01*
X6288989Y-2681782D01*
X6291681Y-2686304D01*
X6294729Y-2690368D01*
X6298133Y-2694076D01*
X6301841Y-2697276D01*
X6305854Y-2700121D01*
X6310071Y-2702458D01*
X6314490Y-2704439D01*
X6319062Y-2705963D01*
X6323787Y-2707030D01*
X6328613Y-2707690D01*
X6333490Y-2707894D01*
X6338366Y-2707690D01*
X6343192Y-2707030D01*
X6347917Y-2705963D01*
X6352540Y-2704439D01*
X6356959Y-2702458D01*
X6361226Y-2700121D01*
X6365240Y-2697276D01*
X6368948Y-2694076D01*
X6372402Y-2690368D01*
X6375450Y-2686304D01*
X6378143Y-2681782D01*
X6380480Y-2676804D01*
X6382308Y-2671419D01*
X6383680Y-2665628D01*
X6384493Y-2659430D01*
X6384798Y-2652776D01*
X6384493Y-2646019D01*
X6383680Y-2639720D01*
X6382258Y-2633827D01*
X6380429Y-2628341D01*
X6378092Y-2623312D01*
X6375400Y-2618740D01*
X6372301Y-2614523D01*
X6368846Y-2610815D01*
X6365138Y-2607513D01*
X6361125Y-2604617D01*
X6356858Y-2602179D01*
X6352438Y-2600198D01*
X6347866Y-2598623D01*
X6343142Y-2597556D01*
X6338316Y-2596845D01*
G37*
G36*
X6445504Y-2596642D02*
G01*
X6436664Y-2597302D01*
X6428943Y-2599182D01*
X6422288Y-2602077D01*
X6416751Y-2605938D01*
X6412382Y-2610561D01*
X6409232Y-2615844D01*
X6407302Y-2621534D01*
X6406642Y-2627630D01*
X6407150Y-2633065D01*
X6408623Y-2637942D01*
X6410960Y-2642260D01*
X6414109Y-2646172D01*
X6418072Y-2649626D01*
X6422694Y-2652725D01*
X6427978Y-2655417D01*
X6433820Y-2657856D01*
X6444234Y-2661158D01*
X6453682Y-2665323D01*
X6460185Y-2669794D01*
X6463893Y-2675026D01*
X6465062Y-2681478D01*
X6464655Y-2685338D01*
X6463538Y-2688793D01*
X6461556Y-2691892D01*
X6458813Y-2694482D01*
X6455206Y-2696616D01*
X6450787Y-2698191D01*
X6445554Y-2699156D01*
X6439408Y-2699512D01*
X6434277Y-2699258D01*
X6429603Y-2698546D01*
X6425234Y-2697378D01*
X6421120Y-2695702D01*
X6416294Y-2675128D01*
X6405626Y-2675128D01*
X6406134Y-2699512D01*
X6414160Y-2703169D01*
X6422136Y-2705811D01*
X6430518Y-2707386D01*
X6439662Y-2707894D01*
X6446418Y-2707589D01*
X6452616Y-2706725D01*
X6458254Y-2705354D01*
X6463334Y-2703525D01*
X6467805Y-2701188D01*
X6471716Y-2698496D01*
X6475018Y-2695448D01*
X6477711Y-2692044D01*
X6479844Y-2688386D01*
X6481368Y-2684475D01*
X6482283Y-2680411D01*
X6482588Y-2676144D01*
X6482181Y-2671064D01*
X6480911Y-2666339D01*
X6478778Y-2661869D01*
X6475628Y-2657754D01*
X6471462Y-2653944D01*
X6466179Y-2650388D01*
X6459778Y-2647137D01*
X6444488Y-2641346D01*
X6434886Y-2637282D01*
X6428435Y-2633065D01*
X6424828Y-2628036D01*
X6423660Y-2621534D01*
X6425082Y-2614930D01*
X6429248Y-2609799D01*
X6436106Y-2606446D01*
X6445504Y-2605278D01*
X6449618Y-2605532D01*
X6453581Y-2606344D01*
X6457543Y-2607614D01*
X6461506Y-2609342D01*
X6465824Y-2628392D01*
X6475730Y-2628392D01*
X6476492Y-2605786D01*
X6469278Y-2601874D01*
X6461861Y-2599029D01*
X6454038Y-2597251D01*
G37*
G36*
X5679948Y-2596896D02*
G01*
X5645658Y-2608834D01*
X5645658Y-2615438D01*
X5663692Y-2617216D01*
X5664250Y-2630881D01*
X5664454Y-2646680D01*
X5663946Y-2695702D01*
X5646928Y-2698242D01*
X5646928Y-2705100D01*
X5698236Y-2705100D01*
X5698236Y-2698242D01*
X5682996Y-2695702D01*
X5682488Y-2658364D01*
X5682488Y-2628392D01*
X5682996Y-2598928D01*
G37*
G36*
X4978654Y-2599690D02*
G01*
X4978654Y-2607056D01*
X4991100Y-2608834D01*
X5031232Y-2706624D01*
X5040376Y-2706624D01*
X5076698Y-2609850D01*
X5089398Y-2607056D01*
X5089398Y-2599690D01*
X5048250Y-2599690D01*
X5048250Y-2607056D01*
X5066538Y-2609850D01*
X5040884Y-2684272D01*
X5012436Y-2609088D01*
X5031740Y-2607056D01*
X5031740Y-2599690D01*
G37*
G36*
X5891276Y-2642616D02*
G01*
X5891276Y-2655824D01*
X5943092Y-2655824D01*
X5943092Y-2642616D01*
G37*
G36*
X9102344Y1692402D02*
G01*
X9099346Y1691944D01*
X9096451Y1690370D01*
X9093504Y1687474D01*
X9090406Y1683004D01*
X9080449Y1667306D01*
X9071102Y1652016D01*
X9075674Y1648460D01*
X9102598Y1672082D01*
X9106509Y1675892D01*
X9108897Y1678990D01*
X9110116Y1681632D01*
X9110472Y1684020D01*
X9109760Y1687779D01*
X9107932Y1690420D01*
X9105341Y1691893D01*
G37*
G36*
X7954009Y1688592D02*
G01*
X7919720Y1679193D01*
X7919720Y1672589D01*
X7938516Y1670812D01*
X7938516Y1617980D01*
X7931403Y1624939D01*
X7924139Y1629410D01*
X7916722Y1631746D01*
X7909052Y1632457D01*
X7904022Y1632204D01*
X7899146Y1631442D01*
X7894472Y1630172D01*
X7890052Y1628444D01*
X7885887Y1626260D01*
X7881975Y1623669D01*
X7878318Y1620570D01*
X7875016Y1617065D01*
X7872018Y1613204D01*
X7869326Y1608937D01*
X7867040Y1604264D01*
X7865109Y1599234D01*
X7863586Y1593850D01*
X7862468Y1588160D01*
X7861808Y1582166D01*
X7861574Y1576324D01*
X7881112Y1576324D01*
X7881416Y1583944D01*
X7882280Y1590751D01*
X7883702Y1596847D01*
X7885582Y1602181D01*
X7887868Y1606854D01*
X7890611Y1610817D01*
X7893659Y1614119D01*
X7897063Y1616760D01*
X7900720Y1618742D01*
X7904581Y1620164D01*
X7908645Y1621028D01*
X7912862Y1621282D01*
X7918500Y1620723D01*
X7924495Y1618792D01*
X7930946Y1615186D01*
X7938008Y1609598D01*
X7938008Y1545082D01*
X7931759Y1539189D01*
X7925663Y1535328D01*
X7919415Y1533245D01*
X7912608Y1532636D01*
X7908188Y1532890D01*
X7904022Y1533753D01*
X7900060Y1535125D01*
X7896402Y1537157D01*
X7893100Y1539748D01*
X7890103Y1542948D01*
X7887462Y1546809D01*
X7885277Y1551330D01*
X7883499Y1556512D01*
X7882178Y1562404D01*
X7881366Y1569008D01*
X7881112Y1576324D01*
X7861574Y1576324D01*
X7861909Y1567891D01*
X7863078Y1560474D01*
X7864856Y1553565D01*
X7867345Y1547215D01*
X7870494Y1541424D01*
X7874203Y1536293D01*
X7878521Y1531874D01*
X7883347Y1528114D01*
X7888681Y1525168D01*
X7894472Y1522984D01*
X7900670Y1521663D01*
X7907274Y1521206D01*
X7916824Y1522272D01*
X7925104Y1525371D01*
X7932216Y1530299D01*
X7938516Y1536954D01*
X7939786Y1521714D01*
X7974330Y1524000D01*
X7974330Y1530858D01*
X7956296Y1532890D01*
X7956296Y1655318D01*
X7956803Y1687068D01*
G37*
G36*
X8743442Y1688592D02*
G01*
X8709152Y1679193D01*
X8709152Y1672589D01*
X8727186Y1670812D01*
X8726932Y1533398D01*
X8709152Y1530858D01*
X8709152Y1524000D01*
X8763762Y1524000D01*
X8763762Y1530858D01*
X8745982Y1533398D01*
X8745474Y1570736D01*
X8745474Y1655318D01*
X8746490Y1687068D01*
G37*
G36*
X8670290Y1685289D02*
G01*
X8664600Y1684324D01*
X8660028Y1681581D01*
X8656929Y1677365D01*
X8655812Y1671828D01*
X8656929Y1666239D01*
X8659977Y1661769D01*
X8664600Y1658874D01*
X8670290Y1657857D01*
X8675827Y1658874D01*
X8680348Y1661820D01*
X8683396Y1666239D01*
X8684514Y1671828D01*
X8683396Y1677365D01*
X8680348Y1681581D01*
X8675827Y1684324D01*
G37*
G36*
X8412988Y1673860D02*
G01*
X8381698Y1582166D01*
X8390890Y1582166D01*
X8413750Y1651254D01*
X8436864Y1582166D01*
X8381698Y1582166D01*
X8365490Y1534668D01*
X8347456Y1531620D01*
X8347456Y1524000D01*
X8396986Y1524000D01*
X8396986Y1531620D01*
X8375396Y1534668D01*
X8388096Y1573276D01*
X8439658Y1573276D01*
X8452612Y1534414D01*
X8430768Y1531620D01*
X8430768Y1524000D01*
X8491220Y1524000D01*
X8491220Y1531620D01*
X8473948Y1533652D01*
X8425942Y1673860D01*
G37*
G36*
X7604506Y1672843D02*
G01*
X7604506Y1665224D01*
X7625334Y1662938D01*
X7625588Y1626158D01*
X7625334Y1533906D01*
X7604506Y1531620D01*
X7604506Y1524000D01*
X7666736Y1524000D01*
X7666736Y1531620D01*
X7645908Y1534160D01*
X7645450Y1555699D01*
X7645400Y1575562D01*
X7667498Y1602232D01*
X7704328Y1533906D01*
X7685786Y1531620D01*
X7685786Y1524000D01*
X7742936Y1524000D01*
X7742936Y1531620D01*
X7725664Y1533652D01*
X7679436Y1616710D01*
X7717281Y1662684D01*
X7738364Y1665224D01*
X7738364Y1672843D01*
X7687564Y1672843D01*
X7687564Y1665224D01*
X7705090Y1662175D01*
X7645400Y1588516D01*
X7645501Y1641043D01*
X7645908Y1662938D01*
X7666990Y1665224D01*
X7666990Y1672843D01*
G37*
G36*
X8955786Y1672843D02*
G01*
X8955786Y1665224D01*
X8978646Y1662938D01*
X8980424Y1528318D01*
X8979814Y1517548D01*
X8977934Y1509014D01*
X8974836Y1502410D01*
X8970518Y1497330D01*
X8964676Y1502410D01*
X8960358Y1505508D01*
X8956395Y1507642D01*
X8952585Y1508861D01*
X8948674Y1509268D01*
X8943848Y1508658D01*
X8939834Y1506778D01*
X8936888Y1503375D01*
X8935212Y1498346D01*
X8938107Y1493418D01*
X8942578Y1490319D01*
X8948216Y1488643D01*
X8954516Y1488186D01*
X8959189Y1488440D01*
X8963812Y1489151D01*
X8968333Y1490421D01*
X8972702Y1492097D01*
X8976868Y1494282D01*
X8980779Y1496923D01*
X8984386Y1500073D01*
X8987637Y1503629D01*
X8990482Y1507693D01*
X8992870Y1512163D01*
X8994800Y1517091D01*
X8997035Y1526692D01*
X8998254Y1535938D01*
X8998915Y1547063D01*
X8999169Y1561338D01*
X8999270Y1633778D01*
X8999728Y1662938D01*
X9020556Y1665224D01*
X9020556Y1672843D01*
G37*
G36*
X8516874Y1660143D02*
G01*
X8511032Y1630172D01*
X8491220Y1627632D01*
X8491220Y1619758D01*
X8510016Y1619758D01*
X8509762Y1547114D01*
X8510219Y1540916D01*
X8511489Y1535582D01*
X8513572Y1531112D01*
X8516416Y1527505D01*
X8520023Y1524711D01*
X8524341Y1522730D01*
X8529320Y1521612D01*
X8534908Y1521206D01*
X8542985Y1521968D01*
X8550046Y1524254D01*
X8556040Y1527860D01*
X8560816Y1532636D01*
X8556244Y1537716D01*
X8552129Y1534922D01*
X8548420Y1532940D01*
X8544814Y1531772D01*
X8541004Y1531366D01*
X8535720Y1532280D01*
X8531707Y1535226D01*
X8529167Y1540357D01*
X8528304Y1547876D01*
X8528304Y1619758D01*
X8558276Y1619758D01*
X8558276Y1629410D01*
X8528558Y1629410D01*
X8529828Y1660143D01*
G37*
G36*
X8591296Y1660143D02*
G01*
X8585454Y1630172D01*
X8565388Y1627632D01*
X8565388Y1619758D01*
X8584438Y1619758D01*
X8584184Y1547114D01*
X8584641Y1540916D01*
X8585911Y1535582D01*
X8587994Y1531112D01*
X8590838Y1527505D01*
X8594445Y1524711D01*
X8598763Y1522730D01*
X8603742Y1521612D01*
X8609330Y1521206D01*
X8617356Y1521968D01*
X8624366Y1524254D01*
X8630310Y1527860D01*
X8635238Y1532636D01*
X8630666Y1537716D01*
X8626551Y1534922D01*
X8622842Y1532940D01*
X8619236Y1531772D01*
X8615426Y1531366D01*
X8610142Y1532280D01*
X8606129Y1535226D01*
X8603589Y1540357D01*
X8602726Y1547876D01*
X8602726Y1619758D01*
X8632698Y1619758D01*
X8632698Y1629410D01*
X8602980Y1629410D01*
X8603996Y1660143D01*
G37*
G36*
X7799578Y1632457D02*
G01*
X7794498Y1632204D01*
X7789519Y1631442D01*
X7784693Y1630172D01*
X7780020Y1628444D01*
X7775600Y1626311D01*
X7771384Y1623669D01*
X7767421Y1620621D01*
X7763764Y1617116D01*
X7760411Y1613255D01*
X7757464Y1608988D01*
X7754823Y1604365D01*
X7752638Y1599336D01*
X7750860Y1594002D01*
X7749590Y1588312D01*
X7749305Y1586230D01*
X7768336Y1586230D01*
X7769758Y1595424D01*
X7772146Y1603298D01*
X7775346Y1609801D01*
X7779258Y1615033D01*
X7783677Y1619046D01*
X7788503Y1621891D01*
X7793481Y1623517D01*
X7798562Y1624076D01*
X7803794Y1623517D01*
X7808518Y1621942D01*
X7812735Y1619504D01*
X7816291Y1616252D01*
X7819237Y1612392D01*
X7821371Y1608023D01*
X7822742Y1603197D01*
X7823200Y1598168D01*
X7822692Y1593138D01*
X7820863Y1589176D01*
X7817205Y1586636D01*
X7811262Y1585722D01*
X7768336Y1586230D01*
X7749305Y1586230D01*
X7748778Y1582369D01*
X7748524Y1576070D01*
X7748778Y1569720D01*
X7749438Y1563725D01*
X7750606Y1558086D01*
X7752181Y1552803D01*
X7754162Y1547926D01*
X7756550Y1543405D01*
X7759293Y1539290D01*
X7762443Y1535582D01*
X7765897Y1532280D01*
X7769707Y1529384D01*
X7773873Y1526946D01*
X7778292Y1524863D01*
X7783068Y1523288D01*
X7788046Y1522120D01*
X7793329Y1521460D01*
X7798816Y1521206D01*
X7805978Y1521663D01*
X7812633Y1522984D01*
X7818729Y1525066D01*
X7824266Y1528013D01*
X7829296Y1531670D01*
X7833766Y1535988D01*
X7837627Y1541018D01*
X7840980Y1546606D01*
X7836408Y1549654D01*
X7830261Y1543100D01*
X7823250Y1538020D01*
X7815072Y1534820D01*
X7805166Y1533652D01*
X7799831Y1533956D01*
X7794853Y1534871D01*
X7790230Y1536395D01*
X7785963Y1538579D01*
X7782102Y1541322D01*
X7778648Y1544726D01*
X7775600Y1548688D01*
X7773060Y1553311D01*
X7771028Y1558493D01*
X7769504Y1564335D01*
X7768488Y1570786D01*
X7768081Y1577848D01*
X7839709Y1577594D01*
X7840878Y1583029D01*
X7841234Y1590040D01*
X7840878Y1596390D01*
X7839811Y1602282D01*
X7838135Y1607718D01*
X7835798Y1612646D01*
X7832902Y1617116D01*
X7829448Y1621078D01*
X7825486Y1624431D01*
X7821117Y1627276D01*
X7816291Y1629511D01*
X7811058Y1631137D01*
X7805470Y1632102D01*
G37*
G36*
X8145272Y1632457D02*
G01*
X8140192Y1632204D01*
X8135213Y1631442D01*
X8130387Y1630172D01*
X8125714Y1628444D01*
X8121294Y1626311D01*
X8117078Y1623669D01*
X8113115Y1620621D01*
X8109458Y1617116D01*
X8106105Y1613255D01*
X8103158Y1608988D01*
X8100517Y1604365D01*
X8098332Y1599336D01*
X8096554Y1594002D01*
X8095284Y1588312D01*
X8094999Y1586230D01*
X8114030Y1586230D01*
X8115401Y1595424D01*
X8117789Y1603298D01*
X8120989Y1609801D01*
X8124850Y1615033D01*
X8129270Y1619046D01*
X8134045Y1621891D01*
X8139125Y1623517D01*
X8144256Y1624076D01*
X8149488Y1623517D01*
X8154212Y1621942D01*
X8158429Y1619504D01*
X8161985Y1616252D01*
X8164931Y1612392D01*
X8167065Y1608023D01*
X8168436Y1603197D01*
X8168894Y1598168D01*
X8168386Y1593138D01*
X8166557Y1589176D01*
X8162899Y1586636D01*
X8156956Y1585722D01*
X8114030Y1586230D01*
X8094999Y1586230D01*
X8094472Y1582369D01*
X8094218Y1576070D01*
X8094472Y1569720D01*
X8095132Y1563725D01*
X8096300Y1558086D01*
X8097875Y1552803D01*
X8099856Y1547926D01*
X8102244Y1543405D01*
X8104987Y1539290D01*
X8108137Y1535582D01*
X8111591Y1532280D01*
X8115401Y1529384D01*
X8119567Y1526946D01*
X8123986Y1524863D01*
X8128762Y1523288D01*
X8133740Y1522120D01*
X8139023Y1521460D01*
X8144509Y1521206D01*
X8151571Y1521663D01*
X8158175Y1522984D01*
X8164220Y1525066D01*
X8169757Y1528013D01*
X8174736Y1531670D01*
X8179206Y1535988D01*
X8183067Y1541018D01*
X8186420Y1546606D01*
X8182102Y1549654D01*
X8175955Y1543100D01*
X8168944Y1538020D01*
X8160766Y1534820D01*
X8150859Y1533652D01*
X8145525Y1533956D01*
X8140547Y1534871D01*
X8135924Y1536395D01*
X8131657Y1538579D01*
X8127796Y1541322D01*
X8124291Y1544726D01*
X8121294Y1548688D01*
X8118754Y1553311D01*
X8116722Y1558493D01*
X8115198Y1564335D01*
X8114182Y1570786D01*
X8113775Y1577848D01*
X8185403Y1577594D01*
X8186572Y1583029D01*
X8186928Y1590040D01*
X8186572Y1596390D01*
X8185505Y1602282D01*
X8183778Y1607718D01*
X8181441Y1612646D01*
X8178495Y1617116D01*
X8175040Y1621078D01*
X8171078Y1624431D01*
X8166658Y1627276D01*
X8161832Y1629511D01*
X8156651Y1631137D01*
X8151114Y1632102D01*
G37*
G36*
X8248142Y1632457D02*
G01*
X8239252Y1631797D01*
X8231479Y1629918D01*
X8224774Y1627022D01*
X8219287Y1623161D01*
X8214969Y1618538D01*
X8211820Y1613255D01*
X8209940Y1607566D01*
X8209280Y1601470D01*
X8209788Y1596034D01*
X8211210Y1591157D01*
X8213547Y1586839D01*
X8216696Y1582928D01*
X8220608Y1579473D01*
X8225231Y1576374D01*
X8230565Y1573682D01*
X8236458Y1571244D01*
X8246872Y1567942D01*
X8256320Y1563776D01*
X8262823Y1559306D01*
X8266531Y1554073D01*
X8267700Y1547622D01*
X8267293Y1543761D01*
X8266175Y1540306D01*
X8264194Y1537208D01*
X8261451Y1534617D01*
X8257844Y1532483D01*
X8253425Y1530908D01*
X8248192Y1529943D01*
X8242046Y1529588D01*
X8236915Y1529842D01*
X8232241Y1530553D01*
X8227872Y1531721D01*
X8223758Y1533398D01*
X8218931Y1553972D01*
X8208264Y1553972D01*
X8208772Y1529588D01*
X8216798Y1525930D01*
X8224774Y1523288D01*
X8233156Y1521714D01*
X8242300Y1521206D01*
X8249056Y1521510D01*
X8255253Y1522374D01*
X8260892Y1523746D01*
X8265972Y1525574D01*
X8270443Y1527911D01*
X8274354Y1530604D01*
X8277656Y1533652D01*
X8280349Y1537055D01*
X8282482Y1540713D01*
X8284006Y1544624D01*
X8284921Y1548688D01*
X8285225Y1552956D01*
X8284819Y1558036D01*
X8283549Y1562760D01*
X8281416Y1567230D01*
X8278266Y1571345D01*
X8274100Y1575155D01*
X8268817Y1578711D01*
X8262416Y1581962D01*
X8247125Y1587754D01*
X8237524Y1591818D01*
X8231073Y1596034D01*
X8227466Y1601063D01*
X8226298Y1607566D01*
X8227720Y1614170D01*
X8231886Y1619300D01*
X8238744Y1622653D01*
X8248142Y1623822D01*
X8252155Y1623568D01*
X8256168Y1622755D01*
X8260130Y1621485D01*
X8264144Y1619758D01*
X8268462Y1600708D01*
X8278368Y1600708D01*
X8279130Y1623314D01*
X8271916Y1627225D01*
X8264499Y1630070D01*
X8256676Y1631848D01*
G37*
G36*
X8824468Y1632457D02*
G01*
X8816136Y1632000D01*
X8808516Y1630578D01*
X8801658Y1628241D01*
X8795613Y1625142D01*
X8790533Y1621180D01*
X8786368Y1616506D01*
X8783269Y1611071D01*
X8781288Y1605026D01*
X8782202Y1601470D01*
X8784132Y1598828D01*
X8787130Y1597202D01*
X8791194Y1596644D01*
X8795156Y1597253D01*
X8798306Y1599133D01*
X8800693Y1602333D01*
X8802370Y1606804D01*
X8806688Y1622044D01*
X8813241Y1623517D01*
X8819388Y1624076D01*
X8824620Y1623771D01*
X8829040Y1622806D01*
X8832748Y1621078D01*
X8835694Y1618437D01*
X8837930Y1614728D01*
X8839504Y1609953D01*
X8840419Y1603857D01*
X8840724Y1596390D01*
X8840724Y1589532D01*
X8833866Y1587906D01*
X8820810Y1584096D01*
X8815070Y1582166D01*
X8805113Y1578305D01*
X8796985Y1574444D01*
X8790584Y1570532D01*
X8785707Y1566519D01*
X8782202Y1562354D01*
X8779865Y1557985D01*
X8778646Y1553362D01*
X8778488Y1551432D01*
X8797036Y1551432D01*
X8797239Y1554480D01*
X8797899Y1557578D01*
X8799169Y1560728D01*
X8801252Y1563827D01*
X8804249Y1566875D01*
X8808262Y1569923D01*
X8813546Y1572920D01*
X8820150Y1575816D01*
X8829192Y1579016D01*
X8840724Y1582420D01*
X8840724Y1547114D01*
X8832596Y1541018D01*
X8826296Y1537004D01*
X8820861Y1534820D01*
X8815324Y1534160D01*
X8808059Y1535176D01*
X8802268Y1538325D01*
X8798407Y1543710D01*
X8797036Y1551432D01*
X8778488Y1551432D01*
X8778240Y1548384D01*
X8778849Y1542135D01*
X8780576Y1536649D01*
X8783269Y1531975D01*
X8786876Y1528114D01*
X8791244Y1525117D01*
X8796223Y1522933D01*
X8801760Y1521663D01*
X8807704Y1521206D01*
X8812479Y1521460D01*
X8816848Y1522323D01*
X8820912Y1523695D01*
X8824823Y1525625D01*
X8828633Y1528114D01*
X8832545Y1531162D01*
X8840978Y1538986D01*
X8843314Y1531772D01*
X8847480Y1526235D01*
X8853424Y1522679D01*
X8861044Y1521460D01*
X8866530Y1522069D01*
X8871508Y1524050D01*
X8876030Y1527556D01*
X8880094Y1532890D01*
X8876030Y1537208D01*
X8873947Y1534820D01*
X8871864Y1533093D01*
X8869629Y1531975D01*
X8867140Y1531620D01*
X8863736Y1532382D01*
X8861145Y1534820D01*
X8859570Y1539240D01*
X8859012Y1545844D01*
X8859012Y1594358D01*
X8858758Y1600911D01*
X8858097Y1606804D01*
X8856878Y1611985D01*
X8855252Y1616557D01*
X8853119Y1620469D01*
X8850477Y1623771D01*
X8847378Y1626514D01*
X8843822Y1628749D01*
X8839708Y1630375D01*
X8835136Y1631543D01*
X8830056Y1632254D01*
G37*
G36*
X9078468Y1632457D02*
G01*
X9070238Y1632000D01*
X9062669Y1630578D01*
X9055862Y1628241D01*
X9049867Y1625142D01*
X9044787Y1621180D01*
X9040622Y1616506D01*
X9037523Y1611071D01*
X9035542Y1605026D01*
X9036456Y1601470D01*
X9038386Y1598828D01*
X9041384Y1597202D01*
X9045448Y1596644D01*
X9049308Y1597253D01*
X9052458Y1599133D01*
X9054896Y1602333D01*
X9056624Y1606804D01*
X9060942Y1622044D01*
X9067444Y1623517D01*
X9073388Y1624076D01*
X9078671Y1623771D01*
X9083141Y1622806D01*
X9086850Y1621078D01*
X9089745Y1618437D01*
X9091980Y1614728D01*
X9093555Y1609953D01*
X9094419Y1603857D01*
X9094724Y1596390D01*
X9094724Y1589532D01*
X9088018Y1587906D01*
X9075064Y1584096D01*
X9069324Y1582166D01*
X9059367Y1578305D01*
X9051239Y1574444D01*
X9044838Y1570532D01*
X9039961Y1566519D01*
X9036456Y1562354D01*
X9034119Y1557985D01*
X9032900Y1553362D01*
X9032742Y1551432D01*
X9051290Y1551432D01*
X9051493Y1554480D01*
X9052153Y1557578D01*
X9053423Y1560728D01*
X9055506Y1563827D01*
X9058503Y1566875D01*
X9062516Y1569923D01*
X9067800Y1572920D01*
X9074404Y1575816D01*
X9083395Y1579016D01*
X9094724Y1582420D01*
X9094724Y1547114D01*
X9086748Y1541018D01*
X9080500Y1537004D01*
X9075013Y1534820D01*
X9069324Y1534160D01*
X9062212Y1535176D01*
X9056522Y1538325D01*
X9052661Y1543710D01*
X9051290Y1551432D01*
X9032742Y1551432D01*
X9032494Y1548384D01*
X9033103Y1542135D01*
X9034830Y1536649D01*
X9037523Y1531975D01*
X9041130Y1528114D01*
X9045498Y1525117D01*
X9050477Y1522933D01*
X9056014Y1521663D01*
X9061958Y1521206D01*
X9066733Y1521460D01*
X9071102Y1522323D01*
X9075166Y1523695D01*
X9079077Y1525625D01*
X9082887Y1528114D01*
X9086799Y1531162D01*
X9095232Y1538986D01*
X9097518Y1531772D01*
X9101734Y1526235D01*
X9107576Y1522679D01*
X9115044Y1521460D01*
X9120682Y1522069D01*
X9125762Y1524050D01*
X9130284Y1527556D01*
X9134348Y1532890D01*
X9130284Y1537208D01*
X9128099Y1534820D01*
X9126016Y1533093D01*
X9123730Y1531975D01*
X9121140Y1531620D01*
X9117736Y1532382D01*
X9115145Y1534820D01*
X9113570Y1539240D01*
X9113012Y1545844D01*
X9113012Y1594358D01*
X9112758Y1600911D01*
X9112097Y1606804D01*
X9110878Y1611985D01*
X9109252Y1616557D01*
X9107119Y1620469D01*
X9104477Y1623771D01*
X9101378Y1626514D01*
X9097822Y1628749D01*
X9093708Y1630375D01*
X9089136Y1631543D01*
X9084056Y1632254D01*
G37*
G36*
X9218676Y1632457D02*
G01*
X9213392Y1632102D01*
X9208109Y1631035D01*
X9202877Y1629308D01*
X9197644Y1626920D01*
X9192564Y1623974D01*
X9187688Y1620469D01*
X9182963Y1616405D01*
X9178544Y1611884D01*
X9176766Y1630172D01*
X9173718Y1632204D01*
X9142476Y1620012D01*
X9142476Y1613408D01*
X9160002Y1611630D01*
X9160560Y1598371D01*
X9160764Y1582420D01*
X9160256Y1533398D01*
X9143746Y1530858D01*
X9143746Y1524000D01*
X9195054Y1524000D01*
X9195054Y1530858D01*
X9179560Y1533398D01*
X9179052Y1570736D01*
X9179052Y1603756D01*
X9187484Y1610461D01*
X9195358Y1615033D01*
X9202877Y1617675D01*
X9210294Y1618488D01*
X9214815Y1618132D01*
X9218676Y1617116D01*
X9221876Y1615236D01*
X9224416Y1612544D01*
X9226397Y1608886D01*
X9227769Y1604213D01*
X9228582Y1598472D01*
X9228836Y1591564D01*
X9228785Y1561998D01*
X9228328Y1533398D01*
X9211818Y1530858D01*
X9211818Y1524000D01*
X9263126Y1524000D01*
X9263126Y1530858D01*
X9247378Y1533398D01*
X9247124Y1592072D01*
X9246666Y1602028D01*
X9245346Y1610512D01*
X9243060Y1617472D01*
X9239961Y1623009D01*
X9235948Y1627225D01*
X9231071Y1630172D01*
X9225280Y1631899D01*
G37*
G36*
X9330690Y1632457D02*
G01*
X9325864Y1632254D01*
X9321038Y1631543D01*
X9316364Y1630426D01*
X9311792Y1628851D01*
X9307372Y1626870D01*
X9303156Y1624431D01*
X9299143Y1621536D01*
X9295434Y1618183D01*
X9292031Y1614474D01*
X9288983Y1610258D01*
X9286240Y1605686D01*
X9283954Y1600657D01*
X9282125Y1595170D01*
X9280753Y1589328D01*
X9279940Y1583029D01*
X9279636Y1576324D01*
X9299956Y1576324D01*
X9300210Y1583791D01*
X9300870Y1590598D01*
X9301988Y1596847D01*
X9303562Y1602486D01*
X9305594Y1607464D01*
X9307982Y1611833D01*
X9310827Y1615541D01*
X9314027Y1618589D01*
X9317634Y1620977D01*
X9321647Y1622704D01*
X9325965Y1623720D01*
X9330690Y1624076D01*
X9335363Y1623720D01*
X9339681Y1622704D01*
X9343644Y1620977D01*
X9347250Y1618589D01*
X9350451Y1615541D01*
X9353296Y1611833D01*
X9355734Y1607464D01*
X9357766Y1602486D01*
X9359341Y1596847D01*
X9360509Y1590598D01*
X9361170Y1583791D01*
X9361424Y1576324D01*
X9361170Y1569008D01*
X9360509Y1562303D01*
X9359341Y1556156D01*
X9357766Y1550670D01*
X9355734Y1545793D01*
X9353296Y1541526D01*
X9350451Y1537919D01*
X9347250Y1534922D01*
X9343644Y1532585D01*
X9339681Y1530908D01*
X9335363Y1529943D01*
X9330690Y1529588D01*
X9325965Y1529943D01*
X9321647Y1530908D01*
X9317634Y1532585D01*
X9314027Y1534922D01*
X9310827Y1537919D01*
X9307982Y1541526D01*
X9305594Y1545793D01*
X9303562Y1550670D01*
X9301988Y1556156D01*
X9300870Y1562303D01*
X9300210Y1569008D01*
X9299956Y1576324D01*
X9279636Y1576324D01*
X9279940Y1569669D01*
X9280753Y1563471D01*
X9282125Y1557680D01*
X9283954Y1552295D01*
X9286189Y1547317D01*
X9288881Y1542796D01*
X9291929Y1538732D01*
X9295333Y1535023D01*
X9299041Y1531823D01*
X9303054Y1528978D01*
X9307271Y1526641D01*
X9311690Y1524660D01*
X9316262Y1523136D01*
X9320987Y1522069D01*
X9325813Y1521409D01*
X9330690Y1521206D01*
X9335566Y1521409D01*
X9340392Y1522069D01*
X9345117Y1523136D01*
X9349740Y1524660D01*
X9354159Y1526641D01*
X9358426Y1528978D01*
X9362440Y1531823D01*
X9366148Y1535023D01*
X9369602Y1538732D01*
X9372650Y1542796D01*
X9375343Y1547317D01*
X9377680Y1552295D01*
X9379508Y1557680D01*
X9380880Y1563471D01*
X9381693Y1569669D01*
X9381998Y1576324D01*
X9381693Y1583080D01*
X9380880Y1589379D01*
X9379458Y1595272D01*
X9377629Y1600758D01*
X9375292Y1605788D01*
X9372600Y1610360D01*
X9369501Y1614576D01*
X9366046Y1618284D01*
X9362338Y1621586D01*
X9358325Y1624482D01*
X9354058Y1626920D01*
X9349638Y1628901D01*
X9345066Y1630476D01*
X9340342Y1631543D01*
X9335516Y1632254D01*
G37*
G36*
X9442704Y1632457D02*
G01*
X9433864Y1631797D01*
X9426143Y1629918D01*
X9419488Y1627022D01*
X9413951Y1623161D01*
X9409582Y1618538D01*
X9406432Y1613255D01*
X9404502Y1607566D01*
X9403842Y1601470D01*
X9404350Y1596034D01*
X9405823Y1591157D01*
X9408160Y1586839D01*
X9411309Y1582928D01*
X9415272Y1579473D01*
X9419894Y1576374D01*
X9425178Y1573682D01*
X9431020Y1571244D01*
X9441434Y1567942D01*
X9450882Y1563776D01*
X9457385Y1559306D01*
X9461093Y1554073D01*
X9462262Y1547622D01*
X9461855Y1543761D01*
X9460738Y1540306D01*
X9458756Y1537208D01*
X9456013Y1534617D01*
X9452406Y1532483D01*
X9447987Y1530908D01*
X9442754Y1529943D01*
X9436608Y1529588D01*
X9431477Y1529842D01*
X9426803Y1530553D01*
X9422434Y1531721D01*
X9418320Y1533398D01*
X9413494Y1553972D01*
X9402826Y1553972D01*
X9403334Y1529588D01*
X9411360Y1525930D01*
X9419336Y1523288D01*
X9427718Y1521714D01*
X9436862Y1521206D01*
X9443618Y1521510D01*
X9449816Y1522374D01*
X9455454Y1523746D01*
X9460534Y1525574D01*
X9465005Y1527911D01*
X9468916Y1530604D01*
X9472218Y1533652D01*
X9474911Y1537055D01*
X9477044Y1540713D01*
X9478568Y1544624D01*
X9479483Y1548688D01*
X9479788Y1552956D01*
X9479381Y1558036D01*
X9478111Y1562760D01*
X9475978Y1567230D01*
X9472828Y1571345D01*
X9468662Y1575155D01*
X9463379Y1578711D01*
X9456978Y1581962D01*
X9441688Y1587754D01*
X9432086Y1591818D01*
X9425635Y1596034D01*
X9422028Y1601063D01*
X9420860Y1607566D01*
X9422282Y1614170D01*
X9426448Y1619300D01*
X9433306Y1622653D01*
X9442704Y1623822D01*
X9446818Y1623568D01*
X9450781Y1622755D01*
X9454743Y1621485D01*
X9458706Y1619758D01*
X9463024Y1600708D01*
X9472930Y1600708D01*
X9473692Y1623314D01*
X9466478Y1627225D01*
X9459061Y1630070D01*
X9451238Y1631848D01*
G37*
G36*
X8677148Y1632204D02*
G01*
X8642858Y1620266D01*
X8642858Y1613662D01*
X8660892Y1611884D01*
X8661450Y1598218D01*
X8661654Y1582420D01*
X8661146Y1533398D01*
X8644128Y1530858D01*
X8644128Y1524000D01*
X8695436Y1524000D01*
X8695436Y1530858D01*
X8680196Y1533398D01*
X8679688Y1570736D01*
X8679688Y1600708D01*
X8680196Y1630172D01*
G37*
G36*
X7975853Y1629410D02*
G01*
X7975853Y1622044D01*
X7988300Y1620266D01*
X8028431Y1522476D01*
X8037575Y1522476D01*
X8073898Y1619250D01*
X8086598Y1622044D01*
X8086598Y1629410D01*
X8045450Y1629410D01*
X8045450Y1622044D01*
X8063738Y1619250D01*
X8038084Y1544828D01*
X8009636Y1620012D01*
X8028940Y1622044D01*
X8028940Y1629410D01*
G37*
G36*
X8888476Y1586484D02*
G01*
X8888476Y1573276D01*
X8940292Y1573276D01*
X8940292Y1586484D01*
G37*
D10*
X8646922Y-1266444D02*
G01*
X8794750Y-1266444D01*
X8822436Y-1275842D01*
X8831579Y-1284986D01*
X8840724Y-1303528D01*
X8840724Y-1322070D01*
X8831579Y-1340357D01*
X8822436Y-1349755D01*
X8794750Y-1358900D01*
X8776208Y-1358900D01*
X8711438Y-1159510D02*
G01*
X8720836Y-1177797D01*
X8739124Y-1196339D01*
X8766809Y-1205484D01*
X8785352Y-1205484D01*
X8813038Y-1196339D01*
X8831579Y-1177797D01*
X8840724Y-1159510D01*
X8840724Y-1131570D01*
X8831579Y-1113281D01*
X8813038Y-1094739D01*
X8785352Y-1085595D01*
X8766809Y-1085595D01*
X8739124Y-1094739D01*
X8720836Y-1113281D01*
X8711438Y-1131570D01*
X8711438Y-1159510D01*
X8711438Y-1015237D02*
G01*
X8840724Y-959865D01*
X8711438Y-904494D02*
G01*
X8840724Y-959865D01*
X8877808Y-978407D01*
X8896350Y-996950D01*
X8905493Y-1015237D01*
X8905493Y-1024636D01*
X8739124Y-741934D02*
G01*
X8720836Y-751078D01*
X8711438Y-778763D01*
X8711438Y-806450D01*
X8720836Y-834389D01*
X8739124Y-843534D01*
X8757665Y-834389D01*
X8766809Y-815847D01*
X8776208Y-769620D01*
X8785352Y-751078D01*
X8803893Y-741934D01*
X8813038Y-741934D01*
X8831579Y-751078D01*
X8840724Y-778763D01*
X8840724Y-806450D01*
X8831579Y-834389D01*
X8813038Y-843534D01*
X8646922Y-653287D02*
G01*
X8803893Y-653287D01*
X8831579Y-643889D01*
X8840724Y-625602D01*
X8840724Y-607060D01*
X8711438Y-680973D02*
G01*
X8711438Y-616204D01*
X8646922Y-546100D02*
G01*
X8656065Y-536955D01*
X8646922Y-527557D01*
X8637524Y-536955D01*
X8646922Y-546100D01*
X8711438Y-536955D02*
G01*
X8840724Y-536955D01*
X8739124Y-355854D02*
G01*
X8720836Y-374395D01*
X8711438Y-392684D01*
X8711438Y-420370D01*
X8720836Y-438912D01*
X8739124Y-457454D01*
X8766809Y-466597D01*
X8785352Y-466597D01*
X8813038Y-457454D01*
X8831579Y-438912D01*
X8840724Y-420370D01*
X8840724Y-392684D01*
X8831579Y-374395D01*
X8813038Y-355854D01*
X8646922Y-294894D02*
G01*
X8840724Y-294894D01*
X8711438Y-202437D02*
G01*
X8803893Y-294894D01*
X8766809Y-257810D02*
G01*
X8840724Y-193294D01*
X8646922Y9905D02*
G01*
X8840724Y9905D01*
X8646922Y9905D02*
G01*
X8840724Y83820D01*
X8646922Y157734D02*
G01*
X8840724Y83820D01*
X8646922Y157734D02*
G01*
X8840724Y157734D01*
X8711438Y264921D02*
G01*
X8720836Y246379D01*
X8739124Y227837D01*
X8766809Y218694D01*
X8785352Y218694D01*
X8813038Y227837D01*
X8831579Y246379D01*
X8840724Y264921D01*
X8840724Y292607D01*
X8831579Y311150D01*
X8813038Y329437D01*
X8785352Y338836D01*
X8766809Y338836D01*
X8739124Y329437D01*
X8720836Y311150D01*
X8711438Y292607D01*
X8711438Y264921D01*
X8646922Y510539D02*
G01*
X8840724Y510539D01*
X8739124Y510539D02*
G01*
X8720836Y491997D01*
X8711438Y473710D01*
X8711438Y445770D01*
X8720836Y427481D01*
X8739124Y408939D01*
X8766809Y399795D01*
X8785352Y399795D01*
X8813038Y408939D01*
X8831579Y427481D01*
X8840724Y445770D01*
X8840724Y473710D01*
X8831579Y491997D01*
X8813038Y510539D01*
X8711438Y571500D02*
G01*
X8803893Y571500D01*
X8831579Y580644D01*
X8840724Y599186D01*
X8840724Y626871D01*
X8831579Y645413D01*
X8803893Y673100D01*
X8711438Y673100D02*
G01*
X8840724Y673100D01*
X8646922Y734060D02*
G01*
X8840724Y734060D01*
X8766809Y795020D02*
G01*
X8766809Y905763D01*
X8748522Y905763D01*
X8729979Y896620D01*
X8720836Y887476D01*
X8711438Y868934D01*
X8711438Y841247D01*
X8720836Y822705D01*
X8739124Y804163D01*
X8766809Y795020D01*
X8785352Y795020D01*
X8813038Y804163D01*
X8831579Y822705D01*
X8840724Y841247D01*
X8840724Y868934D01*
X8831579Y887476D01*
X8813038Y905763D01*
D11*
X9622536Y2642615D02*
G01*
X9620250Y2647187D01*
X9615677Y2651760D01*
X9611106Y2654045D01*
X9602215Y2654045D01*
X9597643Y2651760D01*
X9593072Y2647187D01*
X9590786Y2642615D01*
X9588500Y2635757D01*
X9588500Y2624328D01*
X9590786Y2617470D01*
X9593072Y2613152D01*
X9597643Y2608579D01*
X9602215Y2606294D01*
X9611106Y2606294D01*
X9615677Y2608579D01*
X9620250Y2613152D01*
X9622536Y2617470D01*
X9651238Y2654045D02*
G01*
X9646665Y2651760D01*
X9642093Y2647187D01*
X9639808Y2642615D01*
X9637522Y2635757D01*
X9637522Y2624328D01*
X9639808Y2617470D01*
X9642093Y2613152D01*
X9646665Y2608579D01*
X9651238Y2606294D01*
X9660381Y2606294D01*
X9664954Y2608579D01*
X9669525Y2613152D01*
X9671558Y2617470D01*
X9673843Y2624328D01*
X9673843Y2635757D01*
X9671558Y2642615D01*
X9669525Y2647187D01*
X9664954Y2651760D01*
X9660381Y2654045D01*
X9651238Y2654045D01*
X9691115Y2642615D02*
G01*
X9691115Y2644902D01*
X9693402Y2649473D01*
X9695688Y2651760D01*
X9700259Y2654045D01*
X9709404Y2654045D01*
X9713975Y2651760D01*
X9716261Y2649473D01*
X9718547Y2644902D01*
X9718547Y2640329D01*
X9716261Y2635757D01*
X9711690Y2628900D01*
X9688829Y2606294D01*
X9720834Y2606294D01*
X9767570Y2647187D02*
G01*
X9762997Y2651760D01*
X9756140Y2654045D01*
X9747250Y2654045D01*
X9740391Y2651760D01*
X9735820Y2647187D01*
X9735820Y2642615D01*
X9738106Y2638044D01*
X9740391Y2635757D01*
X9744963Y2633471D01*
X9758425Y2628900D01*
X9762997Y2626613D01*
X9765284Y2624328D01*
X9767570Y2619755D01*
X9767570Y2613152D01*
X9762997Y2608579D01*
X9756140Y2606294D01*
X9747250Y2606294D01*
X9740391Y2608579D01*
X9735820Y2613152D01*
X9782556Y2654045D02*
G01*
X9782556Y2606294D01*
X9782556Y2654045D02*
G01*
X9812020Y2654045D01*
X9782556Y2631186D02*
G01*
X9800843Y2631186D01*
X9782556Y2606294D02*
G01*
X9812020Y2606294D01*
X9827259Y2654045D02*
G01*
X9827259Y2606294D01*
X9827259Y2654045D02*
G01*
X9859009Y2606294D01*
X9859009Y2654045D02*
G01*
X9859009Y2606294D01*
X9905745Y2647187D02*
G01*
X9901174Y2651760D01*
X9894315Y2654045D01*
X9885425Y2654045D01*
X9878568Y2651760D01*
X9873995Y2647187D01*
X9873995Y2642615D01*
X9876281Y2638044D01*
X9878568Y2635757D01*
X9883140Y2633471D01*
X9896602Y2628900D01*
X9901174Y2626613D01*
X9903459Y2624328D01*
X9905745Y2619755D01*
X9905745Y2613152D01*
X9901174Y2608579D01*
X9894315Y2606294D01*
X9885425Y2606294D01*
X9878568Y2608579D01*
X9873995Y2613152D01*
X9934447Y2654045D02*
G01*
X9929875Y2651760D01*
X9925304Y2647187D01*
X9923018Y2642615D01*
X9920731Y2635757D01*
X9920731Y2624328D01*
X9923018Y2617470D01*
X9925304Y2613152D01*
X9929875Y2608579D01*
X9934447Y2606294D01*
X9943591Y2606294D01*
X9948163Y2608579D01*
X9952481Y2613152D01*
X9954768Y2617470D01*
X9957054Y2624328D01*
X9957054Y2635757D01*
X9954768Y2642615D01*
X9952481Y2647187D01*
X9948163Y2651760D01*
X9943591Y2654045D01*
X9934447Y2654045D01*
X9972040Y2654045D02*
G01*
X9972040Y2606294D01*
X9972040Y2654045D02*
G01*
X9992613Y2654045D01*
X9999472Y2651760D01*
X10001758Y2649473D01*
X10004043Y2644902D01*
X10004043Y2640329D01*
X10001758Y2635757D01*
X9999472Y2633471D01*
X9992613Y2631186D01*
X9972040Y2631186D01*
X9988041Y2631186D02*
G01*
X10004043Y2606294D01*
X10515600Y2641345D02*
G01*
X10515600Y2593594D01*
X10530586Y2641345D02*
G01*
X10530586Y2593594D01*
X10530586Y2641345D02*
G01*
X10562336Y2593594D01*
X10562336Y2641345D02*
G01*
X10562336Y2593594D01*
X10609325Y2634487D02*
G01*
X10604754Y2639060D01*
X10597895Y2641345D01*
X10588752Y2641345D01*
X10581893Y2639060D01*
X10577322Y2634487D01*
X10577322Y2629915D01*
X10579608Y2625344D01*
X10581893Y2623057D01*
X10586465Y2620771D01*
X10600181Y2616200D01*
X10604754Y2613913D01*
X10607040Y2611628D01*
X10609325Y2607055D01*
X10609325Y2600452D01*
X10604754Y2595879D01*
X10597895Y2593594D01*
X10588752Y2593594D01*
X10581893Y2595879D01*
X10577322Y2600452D01*
X10624311Y2641345D02*
G01*
X10624311Y2593594D01*
X10639297Y2641345D02*
G01*
X10639297Y2593594D01*
X10639297Y2641345D02*
G01*
X10655045Y2641345D01*
X10661904Y2639060D01*
X10666475Y2634487D01*
X10668761Y2629915D01*
X10671047Y2623057D01*
X10671047Y2611628D01*
X10668761Y2604770D01*
X10666475Y2600452D01*
X10661904Y2595879D01*
X10655045Y2593594D01*
X10639297Y2593594D01*
X10686034Y2641345D02*
G01*
X10686034Y2593594D01*
X10686034Y2641345D02*
G01*
X10715497Y2641345D01*
X10686034Y2618486D02*
G01*
X10704322Y2618486D01*
X10686034Y2593594D02*
G01*
X10715497Y2593594D01*
X10730484Y2613913D02*
G01*
X10771631Y2613913D01*
X10786618Y2641345D02*
G01*
X10786618Y2593594D01*
X10786618Y2641345D02*
G01*
X10802365Y2641345D01*
X10809224Y2639060D01*
X10813795Y2634487D01*
X10816081Y2629915D01*
X10818368Y2623057D01*
X10818368Y2611628D01*
X10816081Y2604770D01*
X10813795Y2600452D01*
X10809224Y2595879D01*
X10802365Y2593594D01*
X10786618Y2593594D01*
X10833354Y2641345D02*
G01*
X10833354Y2593594D01*
X10865104Y2641345D02*
G01*
X10865104Y2593594D01*
X10833354Y2618486D02*
G01*
X10865104Y2618486D01*
X10896091Y2641345D02*
G01*
X10896091Y2593594D01*
X10880090Y2641345D02*
G01*
X10911840Y2641345D01*
X10927079Y2632202D02*
G01*
X10931397Y2634487D01*
X10938256Y2641345D01*
X10938256Y2593594D01*
X10953241Y2632202D02*
G01*
X10957813Y2634487D01*
X10964672Y2641345D01*
X10964672Y2593594D01*
X11443715Y2641345D02*
G01*
X11439143Y2639060D01*
X11434572Y2634487D01*
X11432286Y2629915D01*
X11430000Y2623057D01*
X11430000Y2611628D01*
X11432286Y2604770D01*
X11434572Y2600452D01*
X11439143Y2595879D01*
X11443715Y2593594D01*
X11452606Y2593594D01*
X11457177Y2595879D01*
X11461750Y2600452D01*
X11464036Y2604770D01*
X11466322Y2611628D01*
X11466322Y2623057D01*
X11464036Y2629915D01*
X11461750Y2634487D01*
X11457177Y2639060D01*
X11452606Y2641345D01*
X11443715Y2641345D01*
X11481308Y2641345D02*
G01*
X11481308Y2607055D01*
X11483593Y2600452D01*
X11488165Y2595879D01*
X11495024Y2593594D01*
X11499595Y2593594D01*
X11506454Y2595879D01*
X11511025Y2600452D01*
X11513058Y2607055D01*
X11513058Y2641345D01*
X11544045Y2641345D02*
G01*
X11544045Y2593594D01*
X11528297Y2641345D02*
G01*
X11560047Y2641345D01*
X11606784Y2634487D02*
G01*
X11602211Y2639060D01*
X11595354Y2641345D01*
X11586463Y2641345D01*
X11579606Y2639060D01*
X11575034Y2634487D01*
X11575034Y2629915D01*
X11577320Y2625344D01*
X11579606Y2623057D01*
X11584177Y2620771D01*
X11597640Y2616200D01*
X11602211Y2613913D01*
X11604497Y2611628D01*
X11606784Y2607055D01*
X11606784Y2600452D01*
X11602211Y2595879D01*
X11595354Y2593594D01*
X11586463Y2593594D01*
X11579606Y2595879D01*
X11575034Y2600452D01*
X11621770Y2641345D02*
G01*
X11621770Y2593594D01*
X11636756Y2641345D02*
G01*
X11636756Y2593594D01*
X11636756Y2641345D02*
G01*
X11652758Y2641345D01*
X11659615Y2639060D01*
X11664188Y2634487D01*
X11666474Y2629915D01*
X11668759Y2623057D01*
X11668759Y2611628D01*
X11666474Y2604770D01*
X11664188Y2600452D01*
X11659615Y2595879D01*
X11652758Y2593594D01*
X11636756Y2593594D01*
X11683745Y2641345D02*
G01*
X11683745Y2593594D01*
X11683745Y2641345D02*
G01*
X11713209Y2641345D01*
X11683745Y2618486D02*
G01*
X11701779Y2618486D01*
X11683745Y2593594D02*
G01*
X11713209Y2593594D01*
X11728195Y2641345D02*
G01*
X11728195Y2593594D01*
X11728195Y2641345D02*
G01*
X11744197Y2641345D01*
X11750802Y2639060D01*
X11755374Y2634487D01*
X11757659Y2629915D01*
X11759945Y2623057D01*
X11759945Y2611628D01*
X11757659Y2604770D01*
X11755374Y2600452D01*
X11750802Y2595879D01*
X11744197Y2593594D01*
X11728195Y2593594D01*
X11774931Y2641345D02*
G01*
X11774931Y2593594D01*
X11806936Y2641345D02*
G01*
X11806936Y2593594D01*
X11774931Y2618486D02*
G01*
X11806936Y2618486D01*
X11837670Y2641345D02*
G01*
X11837670Y2593594D01*
X11821922Y2641345D02*
G01*
X11853672Y2641345D01*
X11868658Y2632202D02*
G01*
X11873229Y2634487D01*
X11880088Y2641345D01*
X11880088Y2593594D01*
X11895074Y2632202D02*
G01*
X11899645Y2634487D01*
X11906250Y2641345D01*
X11906250Y2593594D01*
D12*
X6744705Y2781300D02*
G01*
X6635739Y2781300D01*
X6744705Y2781300D02*
G01*
X6744705Y2713736D01*
X6692889Y2781300D02*
G01*
X6692889Y2739644D01*
X6635739Y2781300D02*
G01*
X6635739Y2713736D01*
X6729211Y2606802D02*
G01*
X6739625Y2617215D01*
X6744705Y2632710D01*
X6744705Y2653537D01*
X6739625Y2669031D01*
X6729211Y2679445D01*
X6718797Y2679445D01*
X6708383Y2674365D01*
X6703049Y2669031D01*
X6697969Y2658618D01*
X6687555Y2627629D01*
X6682475Y2617215D01*
X6677141Y2611881D01*
X6666727Y2606802D01*
X6651233Y2606802D01*
X6640819Y2617215D01*
X6635739Y2632710D01*
X6635739Y2653537D01*
X6640819Y2669031D01*
X6651233Y2679445D01*
X6744705Y2572512D02*
G01*
X6635739Y2572512D01*
X6744705Y2572512D02*
G01*
X6744705Y2525776D01*
X6739625Y2510028D01*
X6734291Y2504947D01*
X6723877Y2499613D01*
X6708383Y2499613D01*
X6697969Y2504947D01*
X6692889Y2510028D01*
X6687555Y2525776D01*
X6687555Y2572512D01*
X6744705Y2439415D02*
G01*
X6739625Y2454910D01*
X6729211Y2460244D01*
X6718797Y2460244D01*
X6708383Y2454910D01*
X6703049Y2444750D01*
X6697969Y2423921D01*
X6692889Y2408173D01*
X6682475Y2397760D01*
X6672061Y2392679D01*
X6656313Y2392679D01*
X6645899Y2397760D01*
X6640819Y2403094D01*
X6635739Y2418587D01*
X6635739Y2439415D01*
X6640819Y2454910D01*
X6645899Y2460244D01*
X6656313Y2465323D01*
X6672061Y2465323D01*
X6682475Y2460244D01*
X6692889Y2449829D01*
X6697969Y2434336D01*
X6703049Y2413507D01*
X6708383Y2403094D01*
X6718797Y2397760D01*
X6729211Y2397760D01*
X6739625Y2403094D01*
X6744705Y2418587D01*
X6744705Y2439415D01*
X6718797Y2353310D02*
G01*
X6723877Y2353310D01*
X6734291Y2347976D01*
X6739625Y2342895D01*
X6744705Y2332481D01*
X6744705Y2311654D01*
X6739625Y2301239D01*
X6734291Y2296160D01*
X6723877Y2290826D01*
X6713463Y2290826D01*
X6703049Y2296160D01*
X6687555Y2306320D01*
X6635739Y2358389D01*
X6635739Y2285745D01*
X6729211Y2188971D02*
G01*
X6739625Y2194305D01*
X6744705Y2209800D01*
X6744705Y2220213D01*
X6739625Y2235707D01*
X6723877Y2246121D01*
X6697969Y2251455D01*
X6672061Y2251455D01*
X6651233Y2246121D01*
X6640819Y2235707D01*
X6635739Y2220213D01*
X6635739Y2214879D01*
X6640819Y2199386D01*
X6651233Y2188971D01*
X6666727Y2183892D01*
X6672061Y2183892D01*
X6687555Y2188971D01*
X6697969Y2199386D01*
X6703049Y2214879D01*
X6703049Y2220213D01*
X6697969Y2235707D01*
X6687555Y2246121D01*
X6672061Y2251455D01*
X6729211Y2087118D02*
G01*
X6739625Y2092452D01*
X6744705Y2107945D01*
X6744705Y2118360D01*
X6739625Y2133854D01*
X6723877Y2144268D01*
X6697969Y2149602D01*
X6672061Y2149602D01*
X6651233Y2144268D01*
X6640819Y2133854D01*
X6635739Y2118360D01*
X6635739Y2113279D01*
X6640819Y2097531D01*
X6651233Y2087118D01*
X6666727Y2082037D01*
X6672061Y2082037D01*
X6687555Y2087118D01*
X6697969Y2097531D01*
X6703049Y2113279D01*
X6703049Y2118360D01*
X6697969Y2133854D01*
X6687555Y2144268D01*
X6672061Y2149602D01*
X6682475Y2047747D02*
G01*
X6682475Y1954276D01*
X6744705Y1888744D02*
G01*
X6739625Y1904237D01*
X6723877Y1914652D01*
X6697969Y1919986D01*
X6682475Y1919986D01*
X6656313Y1914652D01*
X6640819Y1904237D01*
X6635739Y1888744D01*
X6635739Y1878329D01*
X6640819Y1862836D01*
X6656313Y1852421D01*
X6682475Y1847087D01*
X6697969Y1847087D01*
X6723877Y1852421D01*
X6739625Y1862836D01*
X6744705Y1878329D01*
X6744705Y1888744D01*
X6723877Y1812797D02*
G01*
X6729211Y1802384D01*
X6744705Y1786889D01*
X6635739Y1786889D01*
X6729211Y1679955D02*
G01*
X6739625Y1690370D01*
X6744705Y1705863D01*
X6744705Y1726692D01*
X6739625Y1742186D01*
X6729211Y1752600D01*
X6718797Y1752600D01*
X6708383Y1747520D01*
X6703049Y1742186D01*
X6697969Y1731771D01*
X6687555Y1700529D01*
X6682475Y1690370D01*
X6677141Y1685036D01*
X6666727Y1679955D01*
X6651233Y1679955D01*
X6640819Y1690370D01*
X6635739Y1705863D01*
X6635739Y1726692D01*
X6640819Y1742186D01*
X6651233Y1752600D01*
X10045700Y1261516D02*
G01*
X10045700Y1152550D01*
X10118343Y1261516D02*
G01*
X10045700Y1188872D01*
X10071608Y1214780D02*
G01*
X10118343Y1152550D01*
X10152634Y1261516D02*
G01*
X10194290Y1209700D01*
X10194290Y1152550D01*
X10235945Y1261516D02*
G01*
X10194290Y1209700D01*
X10301224Y1261516D02*
G01*
X10285729Y1256436D01*
X10275315Y1240688D01*
X10270236Y1214780D01*
X10270236Y1199286D01*
X10275315Y1173124D01*
X10285729Y1157630D01*
X10301224Y1152550D01*
X10311638Y1152550D01*
X10327386Y1157630D01*
X10337800Y1173124D01*
X10342879Y1199286D01*
X10342879Y1214780D01*
X10337800Y1240688D01*
X10327386Y1256436D01*
X10311638Y1261516D01*
X10301224Y1261516D01*
X10382250Y1235608D02*
G01*
X10382250Y1240688D01*
X10387584Y1251102D01*
X10392663Y1256436D01*
X10403077Y1261516D01*
X10423906Y1261516D01*
X10434320Y1256436D01*
X10439400Y1251102D01*
X10444734Y1240688D01*
X10444734Y1230274D01*
X10439400Y1219860D01*
X10429240Y1204366D01*
X10377170Y1152550D01*
X10449813Y1152550D01*
X10494518Y1261516D02*
G01*
X10551668Y1261516D01*
X10520679Y1219860D01*
X10536174Y1219860D01*
X10546588Y1214780D01*
X10551668Y1209700D01*
X10557002Y1193952D01*
X10557002Y1183538D01*
X10551668Y1168044D01*
X10541254Y1157630D01*
X10525759Y1152550D01*
X10510265Y1152550D01*
X10494518Y1157630D01*
X10489438Y1162710D01*
X10484104Y1173124D01*
D11*
X10776125Y-702604D02*
G01*
X10771553Y-693460D01*
X10762409Y-684570D01*
X10753265Y-679998D01*
X10735231Y-679998D01*
X10726087Y-684570D01*
X10716943Y-693460D01*
X10712371Y-702604D01*
X10707799Y-716320D01*
X10707799Y-738926D01*
X10712371Y-752642D01*
X10716943Y-761786D01*
X10726087Y-770930D01*
X10735231Y-775248D01*
X10753265Y-775248D01*
X10762409Y-770930D01*
X10771553Y-761786D01*
X10776125Y-752642D01*
X10776125Y-738926D01*
X10753265Y-738926D02*
G01*
X10776125Y-738926D01*
X10806097Y-679998D02*
G01*
X10806097Y-775248D01*
X10806097Y-679998D02*
G01*
X10869597Y-775248D01*
X10869597Y-679998D02*
G01*
X10869597Y-775248D01*
X10899823Y-679998D02*
G01*
X10899823Y-775248D01*
X10899823Y-679998D02*
G01*
X10931573Y-679998D01*
X10945289Y-684570D01*
X10954179Y-693460D01*
X10958751Y-702604D01*
X10963323Y-716320D01*
X10963323Y-738926D01*
X10958751Y-752642D01*
X10954179Y-761786D01*
X10945289Y-770930D01*
X10931573Y-775248D01*
X10899823Y-775248D01*
D10*
X9467895Y-99997D02*
G01*
X9467895Y-293799D01*
X9597181Y-99997D02*
G01*
X9467895Y-229283D01*
X9514123Y-183055D02*
G01*
X9597181Y-293799D01*
X9658141Y-99997D02*
G01*
X9732055Y-192199D01*
X9732055Y-293799D01*
X9805969Y-99997D02*
G01*
X9732055Y-192199D01*
X9922301Y-99997D02*
G01*
X9894615Y-109141D01*
X9876073Y-136827D01*
X9866929Y-183055D01*
X9866929Y-210741D01*
X9876073Y-256969D01*
X9894615Y-284655D01*
X9922301Y-293799D01*
X9940843Y-293799D01*
X9968529Y-284655D01*
X9987071Y-256969D01*
X9996215Y-210741D01*
X9996215Y-183055D01*
X9987071Y-136827D01*
X9968529Y-109141D01*
X9940843Y-99997D01*
X9922301Y-99997D01*
X10066319Y-145971D02*
G01*
X10066319Y-136827D01*
X10075717Y-118285D01*
X10084861Y-109141D01*
X10103403Y-99997D01*
X10140233Y-99997D01*
X10158775Y-109141D01*
X10167919Y-118285D01*
X10177317Y-136827D01*
X10177317Y-155369D01*
X10167919Y-173911D01*
X10149631Y-201597D01*
X10057175Y-293799D01*
X10186461Y-293799D01*
X10265963Y-99997D02*
G01*
X10367563Y-99997D01*
X10312191Y-173911D01*
X10339877Y-173911D01*
X10358165Y-183055D01*
X10367563Y-192199D01*
X10376707Y-219885D01*
X10376707Y-238427D01*
X10367563Y-266113D01*
X10349021Y-284655D01*
X10321335Y-293799D01*
X10293649Y-293799D01*
X10265963Y-284655D01*
X10256565Y-275511D01*
X10247421Y-256969D01*
D11*
X10762488Y-415391D02*
G01*
X10717022Y-415391D01*
X10712450Y-456285D01*
X10717022Y-451713D01*
X10730738Y-447395D01*
X10744200Y-447395D01*
X10757915Y-451713D01*
X10767059Y-460857D01*
X10771631Y-474573D01*
X10771631Y-483717D01*
X10767059Y-497179D01*
X10757915Y-506323D01*
X10744200Y-510895D01*
X10730738Y-510895D01*
X10717022Y-506323D01*
X10712450Y-501751D01*
X10707877Y-492607D01*
X10801604Y-415391D02*
G01*
X10837925Y-510895D01*
X10874247Y-415391D02*
G01*
X10837925Y-510895D01*
X10707877Y-175361D02*
G01*
X10744200Y-270865D01*
X10780522Y-175361D02*
G01*
X10744200Y-270865D01*
X10810747Y-175361D02*
G01*
X10810747Y-270865D01*
X10810747Y-175361D02*
G01*
X10851641Y-175361D01*
X10865104Y-179933D01*
X10869675Y-184505D01*
X10874247Y-193649D01*
X10874247Y-202793D01*
X10869675Y-211937D01*
X10865104Y-216255D01*
X10851641Y-220827D01*
X10810747Y-220827D01*
X10842497Y-220827D02*
G01*
X10874247Y-270865D01*
X10904220Y-175361D02*
G01*
X10967974Y-270865D01*
X10967974Y-175361D02*
G01*
X10904220Y-270865D01*
X10707877Y74574D02*
G01*
X10744200Y-20929D01*
X10780522Y74574D02*
G01*
X10744200Y-20929D01*
X10810747Y74574D02*
G01*
X10810747Y-20929D01*
X10810747Y74574D02*
G01*
X10851641Y74574D01*
X10865104Y70002D01*
X10869675Y65430D01*
X10874247Y56286D01*
X10874247Y47396D01*
X10869675Y38252D01*
X10865104Y33680D01*
X10851641Y29108D01*
X10810747Y29108D01*
X10842497Y29108D02*
G01*
X10874247Y-20929D01*
X10904220Y74574D02*
G01*
X10940541Y29108D01*
X10940541Y-20929D01*
X10977118Y74574D02*
G01*
X10940541Y29108D01*
X10771631Y310794D02*
G01*
X10762488Y319938D01*
X10748772Y324510D01*
X10730738Y324510D01*
X10717022Y319938D01*
X10707877Y310794D01*
X10707877Y301904D01*
X10712450Y292760D01*
X10717022Y288188D01*
X10726165Y283616D01*
X10753343Y274472D01*
X10762488Y269900D01*
X10767059Y265328D01*
X10771631Y256438D01*
X10771631Y242722D01*
X10762488Y233578D01*
X10748772Y229006D01*
X10730738Y229006D01*
X10717022Y233578D01*
X10707877Y242722D01*
X10801604Y324510D02*
G01*
X10824209Y229006D01*
X10847070Y324510D02*
G01*
X10824209Y229006D01*
X10847070Y324510D02*
G01*
X10869675Y229006D01*
X10892536Y324510D02*
G01*
X10869675Y229006D01*
X12331700Y2641345D02*
G01*
X12331700Y2593594D01*
X12331700Y2593594D02*
G01*
X12358877Y2593594D01*
X12373863Y2641345D02*
G01*
X12373863Y2593594D01*
X12373863Y2641345D02*
G01*
X12389865Y2641345D01*
X12396724Y2639060D01*
X12401295Y2634487D01*
X12403581Y2629915D01*
X12405868Y2623057D01*
X12405868Y2611628D01*
X12403581Y2604770D01*
X12401295Y2600452D01*
X12396724Y2595879D01*
X12389865Y2593594D01*
X12373863Y2593594D01*
X12420854Y2641345D02*
G01*
X12420854Y2593594D01*
X12420854Y2641345D02*
G01*
X12441174Y2641345D01*
X12448031Y2639060D01*
X12450318Y2636773D01*
X12452604Y2632202D01*
X12452604Y2627629D01*
X12450318Y2623057D01*
X12448031Y2620771D01*
X12441174Y2618486D01*
X12420854Y2618486D01*
X12436602Y2618486D02*
G01*
X12452604Y2593594D01*
D12*
X9347200Y-2399284D02*
G01*
X9347200Y-2508250D01*
X9347200Y-2399284D02*
G01*
X9393936Y-2399284D01*
X9409429Y-2404363D01*
X9414763Y-2409697D01*
X9419843Y-2420112D01*
X9419843Y-2430526D01*
X9414763Y-2440939D01*
X9409429Y-2446020D01*
X9393936Y-2451100D01*
X9347200Y-2451100D01*
X9383522Y-2451100D02*
G01*
X9419843Y-2508250D01*
X9459468Y-2425192D02*
G01*
X9459468Y-2420112D01*
X9464547Y-2409697D01*
X9469881Y-2404363D01*
X9480295Y-2399284D01*
X9500870Y-2399284D01*
X9511284Y-2404363D01*
X9516618Y-2409697D01*
X9521697Y-2420112D01*
X9521697Y-2430526D01*
X9516618Y-2440939D01*
X9506204Y-2456434D01*
X9454134Y-2508250D01*
X9527031Y-2508250D01*
X3770884Y-3314700D02*
G01*
X3879850Y-3314700D01*
X3770884Y-3314700D02*
G01*
X3770884Y-3267963D01*
X3775963Y-3252470D01*
X3781297Y-3247136D01*
X3791711Y-3242055D01*
X3802125Y-3242055D01*
X3812540Y-3247136D01*
X3817620Y-3252470D01*
X3822700Y-3267963D01*
X3822700Y-3314700D01*
X3822700Y-3278378D02*
G01*
X3879850Y-3242055D01*
X3770884Y-3171189D02*
G01*
X3879850Y-3171189D01*
X3770884Y-3207765D02*
G01*
X3770884Y-3134868D01*
X3796791Y-3022600D02*
G01*
X3786377Y-3027934D01*
X3775963Y-3038347D01*
X3770884Y-3048762D01*
X3770884Y-3069589D01*
X3775963Y-3079750D01*
X3786377Y-3090163D01*
X3796791Y-3095497D01*
X3812540Y-3100578D01*
X3838447Y-3100578D01*
X3853941Y-3095497D01*
X3864356Y-3090163D01*
X3874770Y-3079750D01*
X3879850Y-3069589D01*
X3879850Y-3048762D01*
X3874770Y-3038347D01*
X3864356Y-3027934D01*
X3853941Y-3022600D01*
X3770884Y-2988310D02*
G01*
X3879850Y-2988310D01*
X3770884Y-2988310D02*
G01*
X3879850Y-2946907D01*
X3770884Y-2905252D02*
G01*
X3879850Y-2946907D01*
X3770884Y-2905252D02*
G01*
X3879850Y-2905252D01*
X3770884Y-2839720D02*
G01*
X3775963Y-2850134D01*
X3786377Y-2860547D01*
X3796791Y-2865881D01*
X3812540Y-2870962D01*
X3838447Y-2870962D01*
X3853941Y-2865881D01*
X3864356Y-2860547D01*
X3874770Y-2850134D01*
X3879850Y-2839720D01*
X3879850Y-2819145D01*
X3874770Y-2808731D01*
X3864356Y-2798318D01*
X3853941Y-2792984D01*
X3838447Y-2787904D01*
X3812540Y-2787904D01*
X3796791Y-2792984D01*
X3786377Y-2798318D01*
X3775963Y-2808731D01*
X3770884Y-2819145D01*
X3770884Y-2839720D01*
X3770884Y-2753613D02*
G01*
X3879850Y-2753613D01*
X3770884Y-2753613D02*
G01*
X3770884Y-2717292D01*
X3775963Y-2701544D01*
X3786377Y-2691129D01*
X3796791Y-2686050D01*
X3812540Y-2680970D01*
X3838447Y-2680970D01*
X3853941Y-2686050D01*
X3864356Y-2691129D01*
X3874770Y-2701544D01*
X3879850Y-2717292D01*
X3879850Y-2753613D01*
X3770884Y-2646679D02*
G01*
X3848861Y-2646679D01*
X3864356Y-2641345D01*
X3874770Y-2630931D01*
X3879850Y-2615437D01*
X3879850Y-2605023D01*
X3874770Y-2589529D01*
X3864356Y-2579115D01*
X3848861Y-2573781D01*
X3770884Y-2573781D01*
X3770884Y-2539492D02*
G01*
X3879850Y-2539492D01*
X3879850Y-2539492D02*
G01*
X3879850Y-2477262D01*
X3770884Y-2442971D02*
G01*
X3879850Y-2442971D01*
X3770884Y-2442971D02*
G01*
X3770884Y-2375407D01*
X3822700Y-2442971D02*
G01*
X3822700Y-2401315D01*
X3879850Y-2442971D02*
G01*
X3879850Y-2375407D01*
D11*
X12890500Y2628645D02*
G01*
X12890500Y2580894D01*
X12890500Y2628645D02*
G01*
X12908788Y2580894D01*
X12926822Y2628645D02*
G01*
X12908788Y2580894D01*
X12926822Y2628645D02*
G01*
X12926822Y2580894D01*
X12955524Y2628645D02*
G01*
X12950952Y2626360D01*
X12946379Y2621787D01*
X12944093Y2617215D01*
X12941808Y2610357D01*
X12941808Y2598928D01*
X12944093Y2592070D01*
X12946379Y2587752D01*
X12950952Y2583179D01*
X12955524Y2580894D01*
X12964668Y2580894D01*
X12969240Y2583179D01*
X12973558Y2587752D01*
X12975843Y2592070D01*
X12978129Y2598928D01*
X12978129Y2610357D01*
X12975843Y2617215D01*
X12973558Y2621787D01*
X12969240Y2626360D01*
X12964668Y2628645D01*
X12955524Y2628645D01*
X12993115Y2628645D02*
G01*
X12993115Y2580894D01*
X13040106Y2621787D02*
G01*
X13035534Y2626360D01*
X13028675Y2628645D01*
X13019531Y2628645D01*
X13012674Y2626360D01*
X13008102Y2621787D01*
X13008102Y2617215D01*
X13010388Y2612644D01*
X13012674Y2610357D01*
X13017245Y2608071D01*
X13030961Y2603500D01*
X13035534Y2601213D01*
X13037820Y2598928D01*
X13040106Y2594355D01*
X13040106Y2587752D01*
X13035534Y2583179D01*
X13028675Y2580894D01*
X13019531Y2580894D01*
X13012674Y2583179D01*
X13008102Y2587752D01*
X13070840Y2628645D02*
G01*
X13070840Y2580894D01*
X13055091Y2628645D02*
G01*
X13086841Y2628645D01*
X13101827Y2628645D02*
G01*
X13101827Y2594355D01*
X13104113Y2587752D01*
X13108686Y2583179D01*
X13115543Y2580894D01*
X13120116Y2580894D01*
X13126974Y2583179D01*
X13131291Y2587752D01*
X13133577Y2594355D01*
X13133577Y2628645D01*
X13148563Y2628645D02*
G01*
X13148563Y2580894D01*
X13148563Y2628645D02*
G01*
X13169138Y2628645D01*
X13175995Y2626360D01*
X13178281Y2624073D01*
X13180568Y2619502D01*
X13180568Y2614929D01*
X13178281Y2610357D01*
X13175995Y2608071D01*
X13169138Y2605786D01*
X13148563Y2605786D01*
X13164566Y2605786D02*
G01*
X13180568Y2580894D01*
X13195554Y2628645D02*
G01*
X13195554Y2580894D01*
X13195554Y2628645D02*
G01*
X13225018Y2628645D01*
X13195554Y2605786D02*
G01*
X13213588Y2605786D01*
X13195554Y2580894D02*
G01*
X13225018Y2580894D01*
X13271754Y2621787D02*
G01*
X13267436Y2626360D01*
X13260577Y2628645D01*
X13251434Y2628645D01*
X13244575Y2626360D01*
X13240004Y2621787D01*
X13240004Y2617215D01*
X13242290Y2612644D01*
X13244575Y2610357D01*
X13249147Y2608071D01*
X13262863Y2603500D01*
X13267436Y2601213D01*
X13269468Y2598928D01*
X13271754Y2594355D01*
X13271754Y2587752D01*
X13267436Y2583179D01*
X13260577Y2580894D01*
X13251434Y2580894D01*
X13244575Y2583179D01*
X13240004Y2587752D01*
X13286740Y2628645D02*
G01*
X13286740Y2580894D01*
X13286740Y2628645D02*
G01*
X13316458Y2628645D01*
X13286740Y2605786D02*
G01*
X13305027Y2605786D01*
X13286740Y2580894D02*
G01*
X13316458Y2580894D01*
X13331443Y2628645D02*
G01*
X13331443Y2580894D01*
X13331443Y2628645D02*
G01*
X13363193Y2580894D01*
X13363193Y2628645D02*
G01*
X13363193Y2580894D01*
X13409929Y2621787D02*
G01*
X13405611Y2626360D01*
X13398754Y2628645D01*
X13389609Y2628645D01*
X13382752Y2626360D01*
X13378179Y2621787D01*
X13378179Y2617215D01*
X13380466Y2612644D01*
X13382752Y2610357D01*
X13387324Y2608071D01*
X13401040Y2603500D01*
X13405611Y2601213D01*
X13407897Y2598928D01*
X13409929Y2594355D01*
X13409929Y2587752D01*
X13405611Y2583179D01*
X13398754Y2580894D01*
X13389609Y2580894D01*
X13382752Y2583179D01*
X13378179Y2587752D01*
X13438631Y2628645D02*
G01*
X13434059Y2626360D01*
X13429488Y2621787D01*
X13427202Y2617215D01*
X13425170Y2610357D01*
X13425170Y2598928D01*
X13427202Y2592070D01*
X13429488Y2587752D01*
X13434059Y2583179D01*
X13438631Y2580894D01*
X13447775Y2580894D01*
X13452347Y2583179D01*
X13456920Y2587752D01*
X13459206Y2592070D01*
X13461491Y2598928D01*
X13461491Y2610357D01*
X13459206Y2617215D01*
X13456920Y2621787D01*
X13452347Y2626360D01*
X13447775Y2628645D01*
X13438631Y2628645D01*
X13476477Y2628645D02*
G01*
X13476477Y2580894D01*
X13476477Y2628645D02*
G01*
X13496797Y2628645D01*
X13503656Y2626360D01*
X13505941Y2624073D01*
X13508227Y2619502D01*
X13508227Y2614929D01*
X13505941Y2610357D01*
X13503656Y2608071D01*
X13496797Y2605786D01*
X13476477Y2605786D01*
X13492225Y2605786D02*
G01*
X13508227Y2580894D01*
D12*
X5637784Y-1349057D02*
G01*
X5642863Y-1364805D01*
X5658611Y-1375219D01*
X5684520Y-1380299D01*
X5700013Y-1380299D01*
X5726175Y-1375219D01*
X5741670Y-1364805D01*
X5746750Y-1349057D01*
X5746750Y-1338643D01*
X5741670Y-1323149D01*
X5726175Y-1312735D01*
X5700013Y-1307655D01*
X5684520Y-1307655D01*
X5658611Y-1312735D01*
X5642863Y-1323149D01*
X5637784Y-1338643D01*
X5637784Y-1349057D01*
X5720841Y-1268031D02*
G01*
X5726175Y-1273365D01*
X5731256Y-1268031D01*
X5726175Y-1262951D01*
X5720841Y-1268031D01*
X5674106Y-1161097D02*
G01*
X5689600Y-1166177D01*
X5700013Y-1176591D01*
X5705347Y-1192339D01*
X5705347Y-1197419D01*
X5700013Y-1212913D01*
X5689600Y-1223327D01*
X5674106Y-1228661D01*
X5669025Y-1228661D01*
X5653277Y-1223327D01*
X5642863Y-1212913D01*
X5637784Y-1197419D01*
X5637784Y-1192339D01*
X5642863Y-1176591D01*
X5653277Y-1166177D01*
X5674106Y-1161097D01*
X5700013Y-1161097D01*
X5726175Y-1166177D01*
X5741670Y-1176591D01*
X5746750Y-1192339D01*
X5746750Y-1202499D01*
X5741670Y-1218247D01*
X5731256Y-1223327D01*
X5653277Y-1064323D02*
G01*
X5642863Y-1069657D01*
X5637784Y-1085151D01*
X5637784Y-1095565D01*
X5642863Y-1111059D01*
X5658611Y-1121473D01*
X5684520Y-1126807D01*
X5710427Y-1126807D01*
X5731256Y-1121473D01*
X5741670Y-1111059D01*
X5746750Y-1095565D01*
X5746750Y-1090485D01*
X5741670Y-1074737D01*
X5731256Y-1064323D01*
X5715761Y-1059243D01*
X5710427Y-1059243D01*
X5694934Y-1064323D01*
X5684520Y-1074737D01*
X5679440Y-1090485D01*
X5679440Y-1095565D01*
X5684520Y-1111059D01*
X5694934Y-1121473D01*
X5710427Y-1126807D01*
X5637784Y-993711D02*
G01*
X5642863Y-1004125D01*
X5653277Y-1014539D01*
X5663691Y-1019619D01*
X5679440Y-1024953D01*
X5705347Y-1024953D01*
X5720841Y-1019619D01*
X5731256Y-1014539D01*
X5741670Y-1004125D01*
X5746750Y-993711D01*
X5746750Y-972883D01*
X5741670Y-962469D01*
X5731256Y-952309D01*
X5720841Y-946975D01*
X5705347Y-941895D01*
X5679440Y-941895D01*
X5663691Y-946975D01*
X5653277Y-952309D01*
X5642863Y-962469D01*
X5637784Y-972883D01*
X5637784Y-993711D01*
X5637784Y-907605D02*
G01*
X5746750Y-907605D01*
X5746750Y-907605D02*
G01*
X5746750Y-845121D01*
X5637784Y-810831D02*
G01*
X5746750Y-810831D01*
X5637784Y-810831D02*
G01*
X5637784Y-743267D01*
X5689600Y-810831D02*
G01*
X5689600Y-769429D01*
X5746750Y-810831D02*
G01*
X5746750Y-743267D01*
X5637784Y-708977D02*
G01*
X5746750Y-708977D01*
X5637784Y-708977D02*
G01*
X5637784Y-672655D01*
X5642863Y-657161D01*
X5653277Y-646747D01*
X5663691Y-641413D01*
X5679440Y-636333D01*
X5705347Y-636333D01*
X5720841Y-641413D01*
X5731256Y-646747D01*
X5741670Y-657161D01*
X5746750Y-672655D01*
X5746750Y-708977D01*
X5783325Y-602043D02*
G01*
X5783325Y-508571D01*
X5637784Y-422211D02*
G01*
X5710427Y-474281D01*
X5710427Y-396303D01*
X5637784Y-422211D02*
G01*
X5746750Y-422211D01*
X5637784Y-362013D02*
G01*
X5746750Y-362013D01*
X5637784Y-362013D02*
G01*
X5637784Y-315277D01*
X5642863Y-299529D01*
X5648197Y-294449D01*
X5658611Y-289369D01*
X5674106Y-289369D01*
X5684520Y-294449D01*
X5689600Y-299529D01*
X5694934Y-315277D01*
X5694934Y-362013D01*
X5783325Y-255079D02*
G01*
X5783325Y-161353D01*
X5637784Y-127063D02*
G01*
X5746750Y-127063D01*
X5637784Y-127063D02*
G01*
X5746750Y-85661D01*
X5637784Y-44005D02*
G01*
X5746750Y-85661D01*
X5637784Y-44005D02*
G01*
X5746750Y-44005D01*
X5637784Y21526D02*
G01*
X5642863Y11112D01*
X5653277Y698D01*
X5663691Y-4635D01*
X5679440Y-9715D01*
X5705347Y-9715D01*
X5720841Y-4635D01*
X5731256Y698D01*
X5741670Y11112D01*
X5746750Y21526D01*
X5746750Y42100D01*
X5741670Y52514D01*
X5731256Y62928D01*
X5720841Y68262D01*
X5705347Y73342D01*
X5679440Y73342D01*
X5663691Y68262D01*
X5653277Y62928D01*
X5642863Y52514D01*
X5637784Y42100D01*
X5637784Y21526D01*
X5637784Y107632D02*
G01*
X5746750Y107632D01*
X5637784Y107632D02*
G01*
X5637784Y143954D01*
X5642863Y159702D01*
X5653277Y170116D01*
X5663691Y175196D01*
X5679440Y180530D01*
X5705347Y180530D01*
X5720841Y175196D01*
X5731256Y170116D01*
X5741670Y159702D01*
X5746750Y143954D01*
X5746750Y107632D01*
X5637784Y214820D02*
G01*
X5715761Y214820D01*
X5731256Y219900D01*
X5741670Y230314D01*
X5746750Y245808D01*
X5746750Y256222D01*
X5741670Y271970D01*
X5731256Y282130D01*
X5715761Y287464D01*
X5637784Y287464D01*
X5637784Y321754D02*
G01*
X5746750Y321754D01*
X5746750Y321754D02*
G01*
X5746750Y383984D01*
X5637784Y418274D02*
G01*
X5746750Y418274D01*
X5637784Y418274D02*
G01*
X5637784Y485838D01*
X5689600Y418274D02*
G01*
X5689600Y459930D01*
X5746750Y418274D02*
G01*
X5746750Y485838D01*
X5783325Y520128D02*
G01*
X5783325Y613600D01*
X5637784Y699960D02*
G01*
X5720841Y699960D01*
X5736590Y694880D01*
X5741670Y689546D01*
X5746750Y679132D01*
X5746750Y668718D01*
X5741670Y658304D01*
X5736590Y653224D01*
X5720841Y647890D01*
X5710427Y647890D01*
X5637784Y734250D02*
G01*
X5746750Y806894D01*
X5637784Y806894D02*
G01*
X5746750Y734250D01*
D13*
X5099418Y-825560D02*
G01*
X5213969Y-825560D01*
X5099418Y-789492D02*
G01*
X5213969Y-789492D01*
X5126847Y-671639D02*
G01*
X5115933Y-677230D01*
X5105008Y-688146D01*
X5099418Y-699071D01*
X5099418Y-720918D01*
X5105008Y-731834D01*
X5115933Y-742756D01*
X5126847Y-748093D01*
X5143108Y-753684D01*
X5170279Y-753684D01*
X5186799Y-748093D01*
X5197718Y-742756D01*
X5208638Y-731834D01*
X5213969Y-720918D01*
X5213969Y-699071D01*
X5208638Y-688146D01*
X5197718Y-677230D01*
X5186799Y-671639D01*
X5164947Y-635822D02*
G01*
X5164947Y-537530D01*
X5126847Y-419671D02*
G01*
X5115933Y-425256D01*
X5105008Y-436184D01*
X5099418Y-447100D01*
X5099418Y-468944D01*
X5105008Y-479874D01*
X5115933Y-490788D01*
X5126847Y-496122D01*
X5143108Y-501710D01*
X5170279Y-501710D01*
X5186799Y-496122D01*
X5197718Y-490788D01*
X5208638Y-479874D01*
X5213969Y-468944D01*
X5213969Y-447100D01*
X5208638Y-436184D01*
X5197718Y-425256D01*
X5186799Y-419671D01*
X5137769Y-356422D02*
G01*
X5143108Y-367344D01*
X5154033Y-378274D01*
X5170279Y-383857D01*
X5181208Y-383857D01*
X5197718Y-378274D01*
X5208638Y-367344D01*
X5213969Y-356422D01*
X5213969Y-340174D01*
X5208638Y-329244D01*
X5197718Y-318322D01*
X5181208Y-312988D01*
X5170279Y-312988D01*
X5154033Y-318322D01*
X5143108Y-329244D01*
X5137769Y-340174D01*
X5137769Y-356422D01*
X5137769Y-276926D02*
G01*
X5213969Y-276926D01*
X5159618Y-276926D02*
G01*
X5143108Y-260410D01*
X5137769Y-249488D01*
X5137769Y-233235D01*
X5143108Y-222310D01*
X5159618Y-216979D01*
X5213969Y-216979D01*
X5137769Y-180916D02*
G01*
X5213969Y-180916D01*
X5159618Y-180916D02*
G01*
X5143108Y-164652D01*
X5137769Y-153730D01*
X5137769Y-137226D01*
X5143108Y-126298D01*
X5159618Y-120964D01*
X5213969Y-120964D01*
X5170279Y-84896D02*
G01*
X5170279Y-19364D01*
X5159618Y-19364D01*
X5148699Y-24952D01*
X5143108Y-30289D01*
X5137769Y-41216D01*
X5137769Y-57721D01*
X5143108Y-68643D01*
X5154033Y-79568D01*
X5170279Y-84896D01*
X5181208Y-84896D01*
X5197718Y-79568D01*
X5208638Y-68643D01*
X5213969Y-57721D01*
X5213969Y-41216D01*
X5208638Y-30289D01*
X5197718Y-19364D01*
X5154033Y81978D02*
G01*
X5143108Y71056D01*
X5137769Y60131D01*
X5137769Y43878D01*
X5143108Y32956D01*
X5154033Y22031D01*
X5170279Y16449D01*
X5181208Y16449D01*
X5197718Y22031D01*
X5208638Y32956D01*
X5213969Y43878D01*
X5213969Y60131D01*
X5208638Y71056D01*
X5197718Y81978D01*
X5099418Y134305D02*
G01*
X5192133Y134305D01*
X5208638Y139893D01*
X5213969Y150815D01*
X5213969Y161731D01*
X5137769Y118049D02*
G01*
X5137769Y156149D01*
X5137769Y224975D02*
G01*
X5143108Y214061D01*
X5154033Y203139D01*
X5170279Y197551D01*
X5181208Y197551D01*
X5197718Y203139D01*
X5208638Y214061D01*
X5213969Y224975D01*
X5213969Y241239D01*
X5208638Y252161D01*
X5197718Y263075D01*
X5181208Y268414D01*
X5170279Y268414D01*
X5154033Y263075D01*
X5143108Y252161D01*
X5137769Y241239D01*
X5137769Y224975D01*
X5137769Y304485D02*
G01*
X5213969Y304485D01*
X5170279Y304485D02*
G01*
X5154033Y310070D01*
X5143108Y320992D01*
X5137769Y331914D01*
X5137769Y348170D01*
X4874884Y-617280D02*
G01*
X4880218Y-633539D01*
X4896469Y-644466D01*
X4923909Y-650046D01*
X4940160Y-650046D01*
X4967589Y-644466D01*
X4983850Y-633539D01*
X4989184Y-617280D01*
X4989184Y-606366D01*
X4983850Y-589848D01*
X4967589Y-578929D01*
X4940160Y-573592D01*
X4923909Y-573592D01*
X4896469Y-578929D01*
X4880218Y-589848D01*
X4874884Y-606366D01*
X4874884Y-617280D01*
X4962009Y-532193D02*
G01*
X4967589Y-537530D01*
X4972926Y-532193D01*
X4967589Y-526602D01*
X4962009Y-532193D01*
X4912984Y-419671D02*
G01*
X4929238Y-425256D01*
X4940160Y-436184D01*
X4945750Y-452434D01*
X4945750Y-458022D01*
X4940160Y-474284D01*
X4929238Y-485200D01*
X4912984Y-490788D01*
X4907399Y-490788D01*
X4891138Y-485200D01*
X4880218Y-474284D01*
X4874884Y-458022D01*
X4874884Y-452434D01*
X4880218Y-436184D01*
X4891138Y-425256D01*
X4912984Y-419671D01*
X4940160Y-419671D01*
X4967589Y-425256D01*
X4983850Y-436184D01*
X4989184Y-452434D01*
X4989184Y-463356D01*
X4983850Y-479874D01*
X4972926Y-485200D01*
X4891138Y-318322D02*
G01*
X4880218Y-323656D01*
X4874884Y-340174D01*
X4874884Y-351088D01*
X4880218Y-367344D01*
X4896469Y-378274D01*
X4923909Y-383857D01*
X4951084Y-383857D01*
X4972926Y-378274D01*
X4983850Y-367344D01*
X4989184Y-351088D01*
X4989184Y-345500D01*
X4983850Y-329244D01*
X4972926Y-318322D01*
X4956675Y-312734D01*
X4951084Y-312734D01*
X4934826Y-318322D01*
X4923909Y-329244D01*
X4918318Y-345500D01*
X4918318Y-351088D01*
X4923909Y-367344D01*
X4934826Y-378274D01*
X4951084Y-383857D01*
X4885547Y-265998D02*
G01*
X4880218Y-271335D01*
X4874884Y-265998D01*
X4880218Y-260410D01*
X4891138Y-260410D01*
X4902060Y-265998D01*
X4907399Y-271335D01*
X4902060Y-265998D02*
G01*
X4912984Y-276926D01*
X4923909Y-276926D01*
X4929238Y-271335D01*
X4923909Y-265998D01*
X4918318Y-271335D01*
X4923909Y-276926D01*
X4874884Y-191830D02*
G01*
X4880218Y-202752D01*
X4891138Y-213680D01*
X4902060Y-219016D01*
X4918318Y-224596D01*
X4945750Y-224596D01*
X4962009Y-219016D01*
X4972926Y-213680D01*
X4983850Y-202752D01*
X4989184Y-191830D01*
X4989184Y-169989D01*
X4983850Y-159064D01*
X4972926Y-148142D01*
X4962009Y-142557D01*
X4945750Y-137226D01*
X4918318Y-137226D01*
X4902060Y-142557D01*
X4891138Y-148142D01*
X4880218Y-159064D01*
X4874884Y-169989D01*
X4874884Y-191830D01*
X4874884Y-101152D02*
G01*
X4989184Y-101152D01*
X4989184Y-101152D02*
G01*
X4989184Y-35880D01*
X4874884Y193D02*
G01*
X4989184Y193D01*
X4874884Y193D02*
G01*
X4874884Y71056D01*
X4929238Y193D02*
G01*
X4929238Y43878D01*
X4989184Y193D02*
G01*
X4989184Y71056D01*
X4874884Y107127D02*
G01*
X4989184Y107127D01*
X4874884Y107127D02*
G01*
X4874884Y145227D01*
X4880218Y161731D01*
X4891138Y172656D01*
X4902060Y177993D01*
X4918318Y183578D01*
X4945750Y183578D01*
X4962009Y177993D01*
X4972926Y172656D01*
X4983850Y161731D01*
X4989184Y145227D01*
X4989184Y107127D01*
D10*
X9613900Y2540000D02*
G01*
X9423400Y2540000D01*
X9423400Y2286000D01*
X10185400Y2286000D01*
X10185400Y2540000D01*
D14*
X10185400Y2540000D02*
G01*
X9613900Y2540000D01*
D10*
X10566400Y2527300D02*
G01*
X10375900Y2527300D01*
X10375900Y2273300D01*
X11137900Y2273300D01*
X11137900Y2527300D01*
D14*
X11137900Y2527300D02*
G01*
X10566400Y2527300D01*
D10*
X11455400Y2527300D02*
G01*
X11264900Y2527300D01*
X11264900Y2273300D01*
X12026900Y2273300D01*
X12026900Y2527300D01*
D14*
X12026900Y2527300D02*
G01*
X11455400Y2527300D01*
D15*
X4079100Y1523997D02*
G01*
X6555600Y1523997D01*
X6555600Y2971797D01*
X4079100Y2971797D02*
G01*
X6555600Y2971797D01*
X4079100Y2971797D02*
G01*
X4079100Y1523997D01*
D16*
X5857100Y2755897D02*
G01*
X5780900Y2755897D01*
X5857100Y1993897D02*
G01*
X5857100Y2755897D01*
X6441300Y2755897D01*
X6441300Y2628897D01*
X6034900Y2628897D01*
X6034900Y2501897D01*
X6441300Y2501897D01*
X6441300Y2387597D01*
X6034900Y2387597D01*
X6034900Y2247897D01*
X6441300Y2247897D01*
X6441300Y2133597D01*
X6034900Y2133597D01*
X6034900Y1993897D01*
X6441300Y1993897D01*
X6441300Y1625597D01*
D15*
X11467845Y1099972D02*
G01*
X11467845Y-1499971D01*
X8167877Y-1499971D01*
X8167877Y-854049D01*
X8167877Y1099972D01*
X11467894Y1100002D02*
G01*
X8167900Y1100002D01*
X11867901Y-720001D02*
G01*
X11097900Y-720001D01*
X11872897Y-470004D02*
G01*
X11102896Y-470004D01*
X11872899Y-210002D02*
G01*
X11102898Y-210002D01*
X11892899Y39997D02*
G01*
X11122898Y39997D01*
X11862899Y289996D02*
G01*
X11092898Y289996D01*
D14*
X12687300Y2514600D02*
G01*
X12369800Y2514600D01*
D10*
X12687300Y2514600D02*
G01*
X12687300Y2260600D01*
X12179300Y2260600D01*
X12179300Y2514600D01*
X12369800Y2514600D01*
D15*
X9093200Y-2641600D02*
G01*
X9067800Y-2641600D01*
X9601200Y-2641600D02*
G01*
X9626600Y-2641600D01*
X9093200Y-2641600D02*
G01*
X9093200Y-2565400D01*
X9093200Y-2717800D02*
G01*
X9093200Y-2641600D01*
X9601200Y-2717800D02*
G01*
X9093200Y-2717800D01*
X9601200Y-2641600D02*
G01*
X9601200Y-2717800D01*
X9601200Y-2565400D02*
G01*
X9601200Y-2641600D01*
X9093200Y-2565400D02*
G01*
X9601200Y-2565400D01*
D10*
X4000500Y-2362200D02*
G01*
X4254500Y-2362200D01*
X4254500Y-3378200D01*
X4000500Y-3378200D01*
X4000500Y-3187700D01*
D14*
X4000500Y-2362200D02*
G01*
X4000500Y-3187700D01*
D10*
X13004800Y2501900D02*
G01*
X12814300Y2501900D01*
X12814300Y2247900D01*
X13576300Y2247900D01*
X13576300Y2501900D01*
D14*
X13576300Y2501900D02*
G01*
X13004800Y2501900D01*
D15*
X6890118Y449747D02*
G01*
X6890118Y1250104D01*
X6690220Y-950302D02*
G01*
X6690220Y449747D01*
X6890021Y449747D02*
G01*
X6690118Y449747D01*
X6890118Y-950257D02*
G01*
X6690220Y-950257D01*
X4635360Y-504250D02*
G01*
X4000360Y-504250D01*
X3990075Y-250250D02*
G01*
X4635360Y-250250D01*
X4635360Y3749D02*
G01*
X4000360Y3749D01*
X4635360Y274739D02*
G01*
X3989946Y274739D01*
X4640061Y-775241D02*
G01*
X4640186Y60131D01*
X4640061Y274739D01*
X3990075Y-775241D02*
G01*
X4635360Y-775241D01*
X3990098Y-1749897D02*
G01*
X3990098Y949741D01*
X6890118Y-1450251D02*
G01*
X6890118Y-950257D01*
X4290067Y1250104D02*
G01*
X6890072Y1250104D01*
X3990098Y-1749897D02*
G01*
X6590070Y-1749897D01*
G75*
G01*
X3989946Y949899D02*
G02*
X4290177Y1249870I300000J-28D01*
G75*
G01*
X6890118Y-1450147D02*
G02*
X6590149Y-1750126I-299999J20D01*
G75*
G01
X8594903Y743001D02*
G03X8594903Y743001I-167005J0D01*
G75*
G01
X8594903Y-1143000D02*
G03X8594903Y-1143000I-167005J0D01*
G75*
G01
X11117910Y-1143000D02*
G03X11117910Y-1143000I-167005J0D01*
G75*
G01
X11117910Y743001D02*
G03X11117910Y743001I-167005J0D01*
M02*
